<svg width="41" height="24" viewBox="0 0 41 24" fill="none" xmlns="http://www.w3.org/2000/svg">
<g clip-path="url(#clip0_618_261)">
<path d="M39.0381 23.7083C39.7588 23.4713 40.4074 22.9023 40.7678 22.1912C40.9359 21.8514 40.96 21.6855 40.96 20.9664C40.96 20.2078 40.9439 20.0972 40.7357 19.7021C40.5436 19.3465 38.7978 17.5844 31.4066 10.2832C23.8473 2.816 22.2217 1.25145 21.8213 1.0381C21.3648 0.793146 21.3008 0.777342 20.5 0.777342C19.6992 0.777342 19.6352 0.793145 19.1787 1.0381C18.7703 1.25145 17.1607 2.8081 9.56132 10.3227C2.31425 17.4817 0.392378 19.4256 0.232222 19.7416C0.0640585 20.0814 0.0400335 20.2473 0.0400335 20.9664C0.0400334 21.725 0.0640584 21.8356 0.272261 22.2465C0.552534 22.7917 1.01698 23.25 1.60156 23.5503C2.00195 23.7478 2.12206 23.7715 2.84277 23.7715C4.24413 23.7715 3.44335 24.459 12.5082 15.5221L20.5 7.65189L28.4838 15.5221C37.4605 24.3563 36.7478 23.7478 38.0371 23.7873C38.4375 23.7952 38.8459 23.7636 39.0381 23.7083Z" fill="#112B3C"/>
</g>
<defs>
<clipPath id="clip0_618_261">
<rect width="41" height="24" fill="white" transform="translate(41 24) rotate(-180)"/>
</clipPath>
</defs>
</svg>
