<svg width="41" height="24" viewBox="0 0 41 24" fill="none" xmlns="http://www.w3.org/2000/svg">
<g clip-path="url(#clip0_618_273)">
<path d="M1.96191 0.291679C1.24121 0.528732 0.592578 1.09766 0.232227 1.80882C0.0640625 2.1486 0.0400391 2.31454 0.0400391 3.0336C0.0400391 3.79217 0.0560547 3.90279 0.264258 4.29788C0.456445 4.65346 2.20215 6.41556 9.59336 13.7168C17.1527 21.184 18.7783 22.7485 19.1787 22.9619C19.6352 23.2069 19.6992 23.2227 20.5 23.2227C21.3008 23.2227 21.3648 23.2069 21.8213 22.9619C22.2297 22.7485 23.8393 21.1919 31.4387 13.6773C38.6857 6.51829 40.6076 4.57445 40.7678 4.25838C40.9359 3.9186 40.96 3.75266 40.96 3.0336C40.96 2.27503 40.9359 2.1644 40.7277 1.75351C40.4475 1.20829 39.983 0.749983 39.3984 0.449715C38.9981 0.252171 38.8779 0.228464 38.1572 0.228464C36.7559 0.228464 37.5566 -0.45899 28.4918 8.47793L20.5 16.3481L12.5162 8.47793C3.53945 -0.356268 4.25215 0.252171 2.96289 0.212662C2.5625 0.20476 2.1541 0.236366 1.96191 0.291679Z" fill="#112B3C"/>
</g>
<defs>
<clipPath id="clip0_618_273">
<rect width="41" height="24" fill="white"/>
</clipPath>
</defs>
</svg>
