<svg width="29" height="22" viewBox="0 0 29 22" fill="none" xmlns="http://www.w3.org/2000/svg">
<path fill-rule="evenodd" clip-rule="evenodd" d="M0.58171 0.612335C0.453413 0.671984 0.274908 0.819539 0.185032 0.940172L0.0216009 1.15956L0.00652711 8.99735C-0.00826331 16.6845 -0.00633659 16.8424 0.10445 17.2123C0.239547 17.6634 0.543402 18.0887 0.919397 18.3528C1.38323 18.6786 1.62282 18.7209 3.00298 18.7209H4.23534L4.29853 19.0325C4.4109 19.5869 4.72008 20.1533 5.13948 20.5733C5.593 21.0274 5.95154 21.2363 6.54327 21.3913C7.0606 21.5268 7.4188 21.5344 7.94139 21.421C9.04897 21.1807 10.0212 20.2069 10.2688 19.0897L10.3441 18.7499L12.1086 18.7209C14.061 18.6888 14.049 18.6913 14.0594 18.3139C14.0634 18.1723 14.0241 18.0855 13.9111 17.9859C13.7574 17.8506 13.7573 17.8506 12.0428 17.8506H10.3283L10.2541 17.5459C10.0849 16.8509 9.63033 16.1832 9.04659 15.7721C8.15939 15.1472 6.83194 15.0698 5.83526 15.5849C5.12741 15.9508 4.53665 16.7096 4.33678 17.5096L4.25886 17.8215L3.04128 17.8372L1.82371 17.8528L1.51855 17.6895C1.16664 17.5013 0.90965 17.1364 0.859555 16.754L0.828387 16.516L1.50166 16.5147C2.03474 16.5137 2.2222 16.4912 2.40167 16.4063C3.26161 15.9999 3.27345 14.7233 2.42133 14.2885C2.15392 14.152 2.06075 14.137 1.48387 14.137H0.843291V13.7599V13.3827H9.96688H19.0905V15.6166V17.8506H17.1714C15.3157 17.8506 15.2474 17.8545 15.103 17.9708C14.9159 18.1215 14.8983 18.4321 15.067 18.6049C15.1775 18.718 15.2559 18.7209 18.1725 18.7209H21.1645L21.2332 19.061C21.406 19.918 22.1048 20.8089 22.8988 21.1846C24.1572 21.7799 25.5372 21.5005 26.478 20.4601C26.8364 20.0638 27.108 19.5409 27.2048 19.061L27.2734 18.7209H27.5909C28.1859 18.7209 28.7287 18.3139 28.9265 17.7195C28.9982 17.5042 29.0084 16.9234 28.9949 13.8144L28.9791 10.1624L28.8466 9.88941C28.656 9.49688 24.8966 4.8651 24.6076 4.66683C24.2522 4.4229 23.7642 4.31712 23.1017 4.34021C22.5887 4.35814 22.5272 4.37247 22.4288 4.49694C22.2884 4.67455 22.2907 4.93862 22.4339 5.08524C22.5317 5.18539 22.6231 5.20135 23.0998 5.20164C23.8568 5.20204 24.0482 5.26564 24.3748 5.6251C24.5228 5.78809 24.644 5.94069 24.644 5.96431C24.644 5.98792 24.098 6.0152 23.4307 6.02494L22.2174 6.04264L21.9998 6.22286C21.5658 6.58238 21.5577 6.61766 21.5379 8.25708C21.5184 9.87049 21.5456 10.0767 21.8214 10.3982C22.1811 10.8177 22.0256 10.7987 25.2532 10.818L28.1574 10.8355V14.1457V17.456L27.9647 17.6533C27.8031 17.8188 27.7313 17.8506 27.5188 17.8506H27.2654L27.1933 17.5749C26.9189 16.5271 26.0693 15.6402 25.0445 15.332C24.6524 15.2141 23.8631 15.2123 23.428 15.3283C22.5952 15.5504 21.8808 16.1549 21.4787 16.9775C21.3495 17.2417 21.2439 17.5049 21.2439 17.5624C21.2439 17.8353 21.2075 17.8506 20.5578 17.8506H19.9405V11.5956C19.9405 6.80792 19.9565 5.32419 20.0085 5.27092C20.0525 5.22589 20.2798 5.20129 20.6514 5.20129C21.2785 5.20129 21.3652 5.16178 21.4436 4.84009C21.4749 4.71168 21.4492 4.64832 21.307 4.50274L21.132 4.32344L20.5407 4.34166L19.9496 4.35994L19.9308 2.8223C19.9093 1.07659 19.8858 0.967675 19.4683 0.684749L19.2404 0.530347L12.08 0.515202L4.91955 0.5L4.77981 0.643088C4.60193 0.825226 4.6017 1.04757 4.77919 1.22925L4.91825 1.3717H11.9457C18.8475 1.3717 18.9742 1.37373 19.0321 1.4845C19.072 1.56086 19.0864 3.35432 19.0766 7.04031L19.0621 12.4833L9.95243 12.498L0.842724 12.5127L0.857175 6.9567L0.871625 1.40071L2.2226 1.3717C3.55816 1.34303 3.57482 1.34112 3.68181 1.20569C3.82903 1.01937 3.81775 0.814549 3.65092 0.643784L3.51186 0.501335L2.16338 0.502611C0.969038 0.503714 0.788323 0.516305 0.58171 0.612335ZM26.5975 8.35989C27.2512 9.17049 27.7952 9.86197 27.8064 9.89649C27.8209 9.94094 27.0629 9.95927 25.2154 9.95927C22.6795 9.95927 22.6006 9.95591 22.4906 9.84322C22.3839 9.73402 22.3772 9.64983 22.3772 8.4178C22.3772 7.62618 22.4004 7.0641 22.4359 6.99621C22.4916 6.88968 22.5685 6.88405 23.9518 6.88504L25.409 6.88602L26.5975 8.35989ZM21.723 11.6684C21.6465 11.7467 21.5839 11.8784 21.5839 11.9611C21.5839 12.0438 21.6465 12.1755 21.723 12.2538C21.8582 12.3923 21.8854 12.3963 22.7084 12.3963C23.4509 12.3963 23.5708 12.3829 23.6857 12.2877C23.7805 12.2092 23.8166 12.1189 23.8166 11.9611C23.8166 11.8033 23.7805 11.7131 23.6857 11.6345C23.5708 11.5393 23.4509 11.5259 22.7084 11.5259C21.8854 11.5259 21.8582 11.5299 21.723 11.6684ZM2.09968 15.1034C2.21591 15.2111 2.23212 15.3661 2.14468 15.5334C2.09215 15.6339 2.02097 15.6456 1.46466 15.6456H0.843291V15.3265V15.0074H1.41966C1.87647 15.0074 2.01757 15.0273 2.09968 15.1034ZM8.25448 16.3104C8.71066 16.5219 9.16854 17.0138 9.34863 17.4859C9.4469 17.7434 9.47721 17.9432 9.47891 18.3438C9.48197 19.0727 9.33747 19.434 8.83868 19.9447C8.34657 20.4486 7.99296 20.5974 7.27514 20.6025C6.81545 20.6058 6.72744 20.5879 6.38313 20.4211C5.9134 20.1937 5.50992 19.792 5.29118 19.3341C5.08231 18.897 5.02966 18.1628 5.17139 17.6636C5.36032 16.9982 5.88535 16.4457 6.53845 16.2248C7.0475 16.0526 7.77694 16.0891 8.25448 16.3104ZM25.161 16.3231C25.6409 16.5531 25.9423 16.8339 26.1615 17.2551C26.846 18.5701 26.1715 20.1766 24.7788 20.548C23.4899 20.8918 22.2583 20.0528 22.0273 18.6736C21.8546 17.6422 22.4805 16.5761 23.4709 16.2146C23.9403 16.0433 24.6758 16.0905 25.161 16.3231ZM6.71968 16.7158C5.76827 17.0633 5.32502 18.1899 5.77609 19.1142C6.29353 20.1745 7.56341 20.4301 8.40431 19.6431C9.17562 18.9213 9.17461 17.7408 8.40216 17.0447C8.26196 16.9182 8.02934 16.7737 7.88523 16.7234C7.56727 16.6125 7.01254 16.6089 6.71968 16.7158ZM23.7373 16.6829C23.2544 16.8455 22.9301 17.1215 22.7214 17.5477C22.3723 18.2607 22.5087 19.0839 23.0666 19.6318C23.7167 20.2703 24.8278 20.2326 25.4411 19.5514C25.7773 19.1779 25.9033 18.8487 25.9033 18.3438C25.9033 17.3682 25.2652 16.6937 24.304 16.6531C24.0702 16.6433 23.8152 16.6567 23.7373 16.6829ZM7.7613 17.6344C8.01483 17.8094 8.18376 18.2183 8.12806 18.5224C8.07416 18.8166 7.7392 19.1615 7.45404 19.2162C6.94641 19.3138 6.45322 18.8985 6.45368 18.3738C6.45424 17.6839 7.21201 17.2553 7.7613 17.6344ZM24.5411 17.5536C24.9158 17.6999 25.1427 18.1704 25.0337 18.575C24.8011 19.4373 23.6371 19.4387 23.4048 18.5769C23.3032 18.2002 23.5336 17.7053 23.879 17.5581C24.0316 17.493 24.3798 17.4906 24.5411 17.5536Z" fill="#112B3C"/>
</svg>
