<svg width="15" height="15" viewBox="0 0 15 15" fill="none" xmlns="http://www.w3.org/2000/svg">
<g clip-path="url(#clip0_413_296)">
<path d="M13.5498 0.922852C13.5352 0.928711 13.4824 0.94043 13.4326 0.952148C13.3652 0.966797 12.6328 1.68164 10.4238 3.89062L7.5 6.81152L4.59375 3.90527C2.39062 1.70508 1.66406 0.996094 1.59668 0.981445C1.5498 0.969727 1.49121 0.955078 1.46777 0.949219C1.38867 0.925781 1.18652 1.00488 1.0957 1.0957C0.972656 1.21875 0.922852 1.39453 0.966797 1.55859C0.996094 1.67285 1.30078 1.98633 3.90527 4.59375L6.81152 7.5L3.90527 10.4092C2.30859 12.0059 0.987305 13.3447 0.969727 13.3799C0.952148 13.415 0.9375 13.5146 0.9375 13.5996C0.9375 13.8838 1.11621 14.0625 1.40039 14.0625C1.48535 14.0625 1.58496 14.0479 1.62012 14.0303C1.65527 14.0127 2.99414 12.6914 4.59375 11.0918L7.5 8.18848L10.4092 11.0918C12.0059 12.6914 13.3447 14.0127 13.3799 14.0303C13.415 14.0479 13.5146 14.0625 13.6025 14.0625C13.7871 14.0625 13.9248 13.9863 14.0127 13.834C14.0771 13.7227 14.0889 13.4941 14.0332 13.3857C14.0127 13.3477 12.6914 12.0059 11.0918 10.4062L8.18848 7.5L11.0918 4.59082C12.6914 2.99414 14.0127 1.65527 14.0303 1.62012C14.0889 1.50586 14.0713 1.25098 13.9951 1.14258C13.9014 1.00195 13.6699 0.887695 13.5498 0.922852Z" fill="#CF0A0A"/>
</g>
<defs>
<clipPath id="clip0_413_296">
<rect width="15" height="15" fill="white"/>
</clipPath>
</defs>
</svg>
