<svg width="22" height="22" viewBox="0 0 22 22" fill="none" xmlns="http://www.w3.org/2000/svg">
<g clip-path="url(#clip0_107_2)">
<path d="M1.31296 21.5661C1.08802 21.5661 0.863076 21.4803 0.691514 21.3086C0.348271 20.9655 0.348271 20.4089 0.691514 20.0657L20.0655 0.691439C20.4087 0.348256 20.9652 0.348256 21.3085 0.691439C21.6517 1.03462 21.6517 1.59115 21.3085 1.93439L1.93446 21.3086C1.76284 21.4803 1.5379 21.5661 1.31296 21.5661V21.5661Z" fill="white"/>
<path d="M20.687 21.5661C20.4621 21.5661 20.2372 21.4803 20.0656 21.3086L0.691514 1.93434C0.348271 1.59116 0.348271 1.03463 0.691514 0.691392C1.03476 0.348149 1.59128 0.348149 1.93446 0.691392L21.3085 20.0656C21.6517 20.4088 21.6517 20.9654 21.3085 21.3086C21.1369 21.4802 20.9119 21.5661 20.687 21.5661V21.5661Z" fill="white"/>
</g>
<defs>
<clipPath id="clip0_107_2">
<rect width="22" height="22" fill="white"/>
</clipPath>
</defs>
</svg>
