<svg width="25" height="25" viewBox="0 0 25 25" fill="none" xmlns="http://www.w3.org/2000/svg">
<g clip-path="url(#clip0_698_447)">
<path d="M1.49189 24.5069C1.23627 24.5069 0.980657 24.4094 0.7857 24.2143C0.395652 23.8244 0.395652 23.1919 0.7857 22.8019L22.8016 0.785711C23.1916 0.39573 23.824 0.39573 24.2141 0.785711C24.6041 1.17569 24.6041 1.8081 24.2141 2.19815L2.19814 24.2143C2.00312 24.4094 1.7475 24.5069 1.49189 24.5069Z" fill="#112B3C"/>
<path d="M23.5079 24.5069C23.2523 24.5069 22.9967 24.4094 22.8017 24.2143L0.7857 2.19811C0.395652 1.80813 0.395652 1.17572 0.7857 0.785669C1.17575 0.395622 1.80816 0.395622 2.19814 0.785669L24.2141 22.8019C24.6041 23.1919 24.6041 23.8243 24.2141 24.2143C24.0191 24.4093 23.7634 24.5069 23.5079 24.5069Z" fill="#112B3C"/>
</g>
<defs>
<clipPath id="clip0_698_447">
<rect width="25" height="25" fill="white"/>
</clipPath>
</defs>
</svg>
