<svg width="35" height="35" viewBox="0 0 35 35" fill="none" xmlns="http://www.w3.org/2000/svg">
<path d="M6.19845 29.8279C5.93602 29.8279 5.67359 29.7277 5.47343 29.5275C5.07298 29.1271 5.07298 28.4779 5.47343 28.0774L28.0765 5.47411C28.4768 5.07373 29.1261 5.07373 29.5266 5.47411C29.927 5.87449 29.927 6.52377 29.5266 6.92422L6.92354 29.5275C6.72332 29.7277 6.46088 29.8279 6.19845 29.8279Z" fill="white"/>
<path d="M28.8016 29.8279C28.5391 29.8279 28.2767 29.7279 28.0765 29.5276L5.47343 6.92427C5.07298 6.52389 5.07298 5.87461 5.47343 5.47416C5.87388 5.07372 6.52316 5.07372 6.92354 5.47416L29.5266 28.0775C29.927 28.4778 29.927 29.1271 29.5266 29.5276C29.3264 29.7278 29.0639 29.8279 28.8016 29.8279Z" fill="white"/>
</svg>
