<svg width="35" height="35" viewBox="0 0 35 35" fill="none" xmlns="http://www.w3.org/2000/svg">
<path d="M6.19821 29.8279C5.93578 29.8279 5.67334 29.7277 5.47319 29.5275C5.07274 29.1271 5.07274 28.4779 5.47319 28.0774L28.0762 5.47411C28.4766 5.07373 29.1259 5.07373 29.5263 5.47411C29.9268 5.87449 29.9268 6.52377 29.5263 6.92422L6.9233 29.5275C6.72307 29.7277 6.46064 29.8279 6.19821 29.8279Z" fill="#112B3C"/>
<path d="M28.8013 29.8279C28.5389 29.8279 28.2764 29.7279 28.0763 29.5276L5.47319 6.92427C5.07274 6.52389 5.07274 5.87461 5.47319 5.47416C5.87364 5.07372 6.52292 5.07372 6.9233 5.47416L29.5263 28.0775C29.9268 28.4778 29.9268 29.1271 29.5263 29.5276C29.3262 29.7278 29.0637 29.8279 28.8013 29.8279Z" fill="#112B3C"/>
</svg>
