<svg width="163" height="163" viewBox="0 0 163 163" fill="none" xmlns="http://www.w3.org/2000/svg">
<path d="M48.4543 1.30542C39.1264 2.51518 31.3266 9.45541 28.9707 18.656C28.525 20.3433 28.334 22.158 28.334 24.5138V27.9203L23.9725 28.1113C18.7195 28.3341 16.3 28.8753 12.8936 30.5627C6.71738 33.6189 2.32402 39.031 0.636719 45.7166C0.0318359 48.0724 0 49.3777 0 81.1818C0 112.986 0.0318359 114.291 0.636719 116.647C2.70605 124.733 9.29609 131.323 17.3824 133.393C19.7383 133.998 21.0436 134.029 47.8176 134.029C66.5053 134.029 76.0242 134.125 76.4381 134.348C77.234 134.794 77.2022 135.271 76.0561 139.155C74.7508 143.644 73.4455 147.21 71.599 151.316C69.8481 155.232 69.657 156.824 70.6758 158.861C71.8219 161.09 74.6234 162.363 76.9793 161.727C78.6348 161.313 82.9008 158.575 88.1537 154.627C95.3805 149.215 100.442 144.599 105.918 138.391C107.574 136.513 109.197 134.825 109.547 134.666C109.866 134.475 111.521 134.189 113.24 134.029C117.061 133.679 119.13 133.074 122.282 131.451C126.548 129.254 129.891 125.879 132.119 121.582C133.934 118.08 134.666 114.992 134.666 110.726V107.287H136.831C140.524 107.287 144.79 106.682 147.337 105.823C155.041 103.276 161.185 96.272 162.682 88.3449C162.936 86.9759 163 76.9794 162.936 53.007L162.841 19.5793L161.918 16.905C159.753 10.7289 154.691 5.28491 148.96 2.96089C144.344 1.08257 145.172 1.14624 122.441 1.01889C110.885 0.955231 101.111 0.987061 100.697 1.11441C98.7869 1.59195 98.1184 3.62944 99.3281 5.18941L99.9967 6.01714L121.39 6.11264C141.129 6.20816 142.912 6.27182 144.535 6.81303C151.221 9.04155 155.646 13.5623 157.492 20.0886C158.034 21.9988 158.065 24.0999 158.065 53.9621C158.065 83.665 158.034 85.9572 157.492 88.0584C155.869 94.4255 150.616 99.7421 144.344 101.398C143.325 101.684 140.715 102.003 138.582 102.098L134.666 102.289V94.6166V86.9441L133.838 86.3074C132.724 85.416 131.705 85.4796 130.623 86.4029L129.731 87.1669L129.572 100.984C129.413 114.259 129.381 114.832 128.713 116.647C127.598 119.576 126.102 121.804 123.842 123.937C120.372 127.217 116.965 128.649 111.585 129.095C107.478 129.445 106.396 130.082 102.098 134.921C95.6988 142.052 88.2492 148.547 80.1947 153.959C76.5336 156.41 75.1328 157.079 75.1328 156.346C75.1328 156.187 75.6104 155.009 76.1834 153.736C79.2078 147.114 82.1367 137.882 82.1367 135.08C82.1367 134.316 81.9457 133.234 81.691 132.661C81.2135 131.483 79.2715 129.668 78.2209 129.413C77.8389 129.318 64.6906 129.222 49.0273 129.159C17.4461 129.063 19.0697 129.159 14.8037 126.93C12.3205 125.625 8.40469 121.709 7.09941 119.226C4.83906 114.864 4.93457 116.774 4.93457 81.1818C4.93457 51.6062 4.96641 49.0275 5.50762 47.1492C7.25859 40.7501 12.0977 35.8474 18.624 33.8418C20.4387 33.3005 22.7945 33.2687 67.333 33.2687C111.84 33.2687 114.227 33.3005 116.01 33.8418C122.664 35.9111 127.439 40.7183 129.063 47.0218C129.477 48.6455 129.572 51.256 129.572 62.9398C129.572 77.3615 129.668 78.6349 130.846 79.2716C131.833 79.8128 133.361 79.6218 134.029 78.9533C134.698 78.2847 134.698 78.03 134.602 62.4623L134.507 46.6398L133.584 43.9656C130.655 35.5609 123.301 29.5757 114.514 28.366C112.858 28.1431 98.8824 28.0158 72.6814 28.0158H33.3641L33.5232 24.2591C33.6824 19.9931 34.16 18.2103 35.9109 15.3132C38.3305 11.3019 42.0871 8.373 46.7988 6.81303C48.4225 6.27182 50.3008 6.20816 69.9436 6.11264L91.3373 6.01714L92.0059 5.18941C93.0883 3.78862 92.8018 2.16499 91.3373 1.43277C90.5732 1.01889 87.4215 0.955231 70.4529 0.987061C59.4695 1.01889 49.5367 1.14624 48.4543 1.30542Z" fill="#E9E9E9"/>
<path d="M43.6152 44.857C41.0047 45.43 39.2219 47.0537 38.5533 49.505C38.0758 51.256 38.1076 59.9154 38.5852 61.5708C38.808 62.3031 39.5402 63.4492 40.2725 64.1814C41.8324 65.7095 43.4561 66.2189 46.9262 66.2189H49.3457V68.9568C49.3457 71.5355 49.3775 71.7265 50.269 72.6179C51.415 73.7322 53.1342 73.8595 54.6941 72.9044C57.6231 71.0898 60.5201 66.6009 61.125 62.8761C61.5389 60.3611 61.5389 51.0968 61.125 49.6324C60.6156 47.8496 59.5014 46.4169 57.9414 45.5255C56.5725 44.7615 56.2541 44.7296 50.6191 44.666C47.3719 44.6341 44.2201 44.7296 43.6152 44.857ZM55.9357 50.4601C56.3178 50.9695 56.3815 52.1156 56.2859 56.8273C56.1904 62.0484 56.0949 62.7169 55.3945 64.2769L54.6305 66.0279L54.2484 64.5316C53.5162 61.6663 52.5293 61.1251 47.9131 61.1251C43.2332 61.1251 43.2969 61.1888 43.2969 55.4583C43.2969 51.0013 43.4561 50.3009 44.5703 49.8871C44.825 49.7597 47.3719 49.7279 50.2371 49.7597C55.0443 49.8234 55.49 49.8871 55.9357 50.4601Z" fill="#E9E9E9"/>
<path d="M70.039 44.8571C67.4285 45.4301 65.6457 47.0537 64.9771 49.5051C64.5314 51.1924 64.5314 59.5016 65.009 61.3799C65.4865 63.3537 67.4922 65.3594 69.466 65.8369C70.2937 66.0598 72.0447 66.219 73.35 66.219H75.7695V68.9569C75.7695 71.5356 75.8013 71.7266 76.6928 72.618C79.3988 75.2922 84.4926 71.6948 86.9121 65.4231C87.5488 63.7358 87.6762 62.8125 87.8035 57.3686C87.9945 49.0276 87.4215 47.1174 84.2697 45.4619C83.0599 44.8252 82.4232 44.7616 77.0429 44.6979C73.7957 44.6342 70.6439 44.7297 70.039 44.8571ZM82.3596 50.4602C82.7416 50.9696 82.8053 52.1157 82.7097 56.8274C82.6142 62.0485 82.5187 62.717 81.8183 64.277L81.0543 66.028L80.6722 64.5317C79.94 61.6664 78.9531 61.1252 74.3369 61.1252C69.657 61.1252 69.7207 61.1889 69.7207 55.4584C69.7207 51.0014 69.8799 50.301 70.9941 49.8871C71.2488 49.7598 73.7957 49.728 76.6609 49.7598C81.4681 49.8235 81.9138 49.8871 82.3596 50.4602Z" fill="#E9E9E9"/>
<path d="M24.2272 81.0539C23.1448 82.4547 23.5586 84.333 25.1186 84.9698C25.6916 85.2245 38.3305 85.32 67.7469 85.2563L109.579 85.1608L110.184 84.3967C110.98 83.4098 110.98 81.6907 110.152 80.8629C109.516 80.2262 109.102 80.2262 67.2057 80.2262H24.8639L24.2272 81.0539Z" fill="#E9E9E9"/>
<path d="M24.8956 91.3691C23.463 91.9422 23.1447 94.1707 24.3544 95.3486L25.1185 96.1445H67.2693H109.42L110.089 95.4123C111.107 94.3299 111.044 92.5789 109.961 91.7193L109.102 91.0508L67.3648 91.0826C43.1058 91.0826 25.3414 91.21 24.8956 91.3691Z" fill="#E9E9E9"/>
<path d="M24.2272 103.021C23.1448 104.422 23.5586 106.3 25.1186 106.937C25.6916 107.191 38.3305 107.287 67.7469 107.223L109.579 107.128L110.184 106.364C110.98 105.377 110.98 103.657 110.152 102.83C109.516 102.193 109.102 102.193 67.2057 102.193H24.8639L24.2272 103.021Z" fill="#E9E9E9"/>
<path d="M45.0796 113.686C43.9654 114.545 43.9335 116.424 44.9841 117.411L45.7164 118.111H67.2056C90.605 118.111 89.7773 118.175 90.223 116.328C90.5095 115.182 89.9365 113.813 88.9496 113.368C88.3765 113.113 82.0412 113.017 67.0464 113.017C46.1621 113.017 45.9074 113.017 45.0796 113.686Z" fill="#E9E9E9"/>
</svg>
