<svg width="65" height="64" viewBox="0 0 65 64" fill="none" xmlns="http://www.w3.org/2000/svg">
<g clip-path="url(#clip0_301_32)">
<path d="M3.6625 0.499999C2.55 0.737499 1.4875 1.5125 0.9375 2.5125L0.5625 3.1875L0.525 32.025L0.5 60.8625L0.7625 61.5625C1.1125 62.4875 2 63.3875 2.9375 63.7375L3.6375 64H32.5H61.3625L62.0625 63.7375C62.9875 63.3875 63.8875 62.4875 64.2375 61.5625C64.5 60.875 64.5 60.7625 64.5 46.3875C64.5 30.125 64.5625 31.275 63.55 30.1375C63.2375 29.7875 62.7 29.375 62.3375 29.2C61.85 28.975 58.675 28.3 49.7875 26.5375L37.8875 24.1875L37.85 16L37.8125 7.8125L37.4625 7.1C37.075 6.3125 36.3875 5.65 35.55 5.25C35.125 5.0625 31.425 4.45 20.2125 2.75C12.0875 1.525 5.1625 0.487499 4.8125 0.449999C4.475 0.412499 3.95 0.437499 3.6625 0.499999ZM19.375 5.4375C27.3875 6.65 34.1 7.7 34.3 7.775C34.4875 7.85 34.7625 8.0875 34.8875 8.3C35.1125 8.675 35.125 9.475 35.125 34.9625V61.25H31.1875H27.2625L27.225 54.775L27.1875 48.3125L26.8375 47.6125C26.4375 46.7875 25.6 45.9625 24.775 45.5875C24.2 45.325 24.05 45.3125 19.175 45.3125H14.1625L13.3 45.75C12.6875 46.0625 12.3125 46.3625 11.975 46.8125C11.125 47.925 11.125 47.9375 11.125 54.9625V61.25H7.6875C3.9375 61.25 3.6875 61.2125 3.4 60.5625C3.1875 60.1125 3.1875 4.3625 3.3875 3.9625C3.6 3.5375 4.025 3.25 4.4375 3.25C4.6375 3.25 11.35 4.2375 19.375 5.4375ZM49.6875 29.375C61.05 31.6125 61.0625 31.6125 61.4125 32L61.75 32.375V46.3125C61.75 56.8375 61.7125 60.3125 61.6 60.5625C61.275 61.275 61.75 61.25 49.3125 61.25H37.875V44.1375C37.875 27.9 37.8875 27.025 38.1 27.075C38.2125 27.1 43.4375 28.1375 49.6875 29.375ZM23.8375 48.325C24.4625 48.8 24.4875 48.975 24.4875 55.3375L24.5 61.25H19.1875H13.875V55.1875C13.875 50.2 13.9125 49.05 14.05 48.775C14.2125 48.4625 14.5 48.25 15 48.075C15.1 48.0375 17.05 48.025 19.3375 48.0375C23.325 48.0625 23.5 48.075 23.8375 48.325Z" fill="#112B3C"/>
<path d="M9.2 13.4375C8.6625 13.725 8.5125 13.9875 8.5 14.6625C8.5 15.175 8.5625 15.325 8.8625 15.6375L9.225 16H12.5H15.775L16.1375 15.6375C16.4375 15.325 16.5 15.1625 16.5 14.6625C16.5 13.9875 16.2375 13.5875 15.6625 13.3625C15.5 13.3 14.05 13.25 12.4625 13.25C10.1125 13.25 9.4875 13.2875 9.2 13.4375Z" fill="#112B3C"/>
<path d="M22.4251 13.4875C21.6626 13.95 21.5626 15.025 22.2126 15.675L22.5376 16H25.7751C27.7626 16 29.1126 15.95 29.2626 15.875C29.5876 15.6875 29.8751 15.1 29.8751 14.575C29.8751 14.2625 29.7626 14.0125 29.5126 13.725L29.1501 13.3125L25.9751 13.275C23.0501 13.25 22.7876 13.2625 22.4251 13.4875Z" fill="#112B3C"/>
<path d="M9.2 21.4375C8.6625 21.725 8.5125 21.9875 8.5 22.6625C8.5 23.175 8.5625 23.325 8.8625 23.6375L9.225 24H12.5H15.775L16.1375 23.6375C16.4375 23.325 16.5 23.1625 16.5 22.6625C16.5 21.9875 16.2375 21.5875 15.6625 21.3625C15.5 21.3 14.05 21.25 12.4625 21.25C10.1125 21.25 9.4875 21.2875 9.2 21.4375Z" fill="#112B3C"/>
<path d="M22.4251 21.4875C21.6626 21.95 21.5626 23.025 22.2126 23.675L22.5376 24H25.7751C27.7626 24 29.1126 23.95 29.2626 23.875C29.5876 23.6875 29.8751 23.1 29.8751 22.575C29.8751 22.2625 29.7626 22.0125 29.5126 21.725L29.1501 21.3125L25.9751 21.275C23.0501 21.25 22.7876 21.2625 22.4251 21.4875Z" fill="#112B3C"/>
<path d="M9.2 29.4375C8.6625 29.725 8.5125 29.9875 8.5 30.6625C8.5 31.175 8.5625 31.325 8.8625 31.6375L9.225 32H12.5H15.775L16.1375 31.6375C16.4375 31.325 16.5 31.1625 16.5 30.6625C16.5 29.9875 16.2375 29.5875 15.6625 29.3625C15.5 29.3 14.05 29.25 12.4625 29.25C10.1125 29.25 9.4875 29.2875 9.2 29.4375Z" fill="#112B3C"/>
<path d="M22.4251 29.4875C21.6626 29.95 21.5626 31.025 22.2126 31.675L22.5376 32H25.7751C27.7626 32 29.1126 31.95 29.2626 31.875C29.5876 31.6875 29.8751 31.1 29.8751 30.575C29.8751 30.2625 29.7626 30.0125 29.5126 29.725L29.1501 29.3125L25.9751 29.275C23.0501 29.25 22.7876 29.2625 22.4251 29.4875Z" fill="#112B3C"/>
<path d="M9.2 37.4375C8.6625 37.725 8.5125 37.9875 8.5 38.6625C8.5 39.175 8.5625 39.325 8.8625 39.6375L9.225 40H12.5H15.775L16.1375 39.6375C16.4375 39.325 16.5 39.1625 16.5 38.6625C16.5 37.9875 16.2375 37.5875 15.6625 37.3625C15.5 37.3 14.05 37.25 12.4625 37.25C10.1125 37.25 9.4875 37.2875 9.2 37.4375Z" fill="#112B3C"/>
<path d="M22.4251 37.4875C21.6626 37.95 21.5626 39.025 22.2126 39.675L22.5376 40H25.7751C27.7626 40 29.1126 39.95 29.2626 39.875C29.5876 39.6875 29.8751 39.1 29.8751 38.575C29.8751 38.2625 29.7626 38.0125 29.5126 37.725L29.1501 37.3125L25.9751 37.275C23.0501 37.25 22.7876 37.2625 22.4251 37.4875Z" fill="#112B3C"/>
<path d="M46.4251 37.4875C45.6626 37.95 45.5626 39.025 46.2126 39.675L46.5376 40H49.7751C51.7626 40 53.1126 39.95 53.2626 39.875C53.5876 39.6875 53.8751 39.1 53.8751 38.575C53.8751 38.2625 53.7626 38.0125 53.5126 37.725L53.1501 37.3125L49.9751 37.275C47.0501 37.25 46.7876 37.2625 46.4251 37.4875Z" fill="#112B3C"/>
<path d="M46.4251 45.4875C45.6626 45.95 45.5626 47.025 46.2126 47.675L46.5376 48H49.7751C51.7626 48 53.1126 47.95 53.2626 47.875C53.5876 47.6875 53.8751 47.1 53.8751 46.575C53.8751 46.2625 53.7626 46.0125 53.5126 45.725L53.1501 45.3125L49.9751 45.275C47.0501 45.25 46.7876 45.2625 46.4251 45.4875Z" fill="#112B3C"/>
<path d="M46.4251 53.4875C45.6626 53.95 45.5626 55.025 46.2126 55.675L46.5376 56H49.7751C51.7626 56 53.1126 55.95 53.2626 55.875C53.5876 55.6875 53.8751 55.1 53.8751 54.575C53.8751 54.2625 53.7626 54.0125 53.5126 53.725L53.1501 53.3125L49.9751 53.275C47.0501 53.25 46.7876 53.2625 46.4251 53.4875Z" fill="#112B3C"/>
</g>
<defs>
<clipPath id="clip0_301_32">
<rect width="64" height="64" fill="white" transform="translate(0.5)"/>
</clipPath>
</defs>
</svg>
