<svg width="40" height="40" viewBox="0 0 40 40" fill="none" xmlns="http://www.w3.org/2000/svg">
<path d="M18.8672 3.19717C14.4063 4.00967 11.1719 6.33779 9.36719 10.0409L8.97656 10.8378L8.29688 10.8847C4.97656 11.119 1.82813 13.4628 0.617188 16.5878C0.101563 17.9394 0.046875 18.244 0.046875 20.0019C0.046875 21.7519 0.101563 22.0722 0.617188 23.4159C1.85156 26.6034 5.07031 28.9394 8.49219 29.119C9.35156 29.1659 9.35938 29.1659 9.5625 28.9628C9.78125 28.744 9.8125 28.5565 9.67969 28.2519C9.5625 27.994 9.3125 27.9159 8.50781 27.8612C7.60938 27.8065 6.67969 27.5644 5.78906 27.1425C3.71094 26.1581 2.20313 24.4081 1.51563 22.1503C1.3125 21.494 1.29688 21.3456 1.29688 20.0409C1.28906 18.7987 1.3125 18.5644 1.46875 18.0175C2.14844 15.6815 3.57031 13.955 5.66406 12.9315C6.71875 12.4159 7.5 12.205 8.67969 12.119C9.17188 12.08 9.65625 12.0175 9.74219 11.9628C9.84375 11.9159 10.0625 11.5565 10.2734 11.119C11.3047 8.93936 13.1641 6.95498 15.2891 5.78311C17.3047 4.6581 19.4531 4.17373 21.7656 4.30654C26.6172 4.58779 30.9375 8.07217 32.3125 12.7987C32.5938 13.7753 32.7344 14.6894 32.8047 15.994C32.8828 17.4237 32.9063 17.455 33.9219 17.5175C35.9844 17.6503 37.7656 19.0097 38.5 21.0331C38.6875 21.5487 38.7109 21.7128 38.7109 22.6581C38.7109 23.5331 38.6797 23.8065 38.5391 24.2597C38.0469 25.8065 36.75 27.1112 35.1563 27.6659C34.6953 27.8222 34.4531 27.8456 32.6016 27.8847C30.6172 27.9315 30.5469 27.9394 30.375 28.1034C30.1328 28.3534 30.1406 28.7987 30.3906 29.0019C30.5703 29.1503 30.6875 29.1503 32.6953 29.119C35.0781 29.08 35.2656 29.0487 36.4453 28.4784C38.125 27.6659 39.3906 26.0878 39.8516 24.2284C40.0781 23.33 40.0313 21.6581 39.7656 20.8222C39.0078 18.4394 37.0625 16.7362 34.6406 16.3378L34.0859 16.244L34.0313 15.3925C33.8672 12.705 33.0234 10.369 31.4141 8.20498C30.8047 7.37686 29.4688 6.07217 28.5938 5.44717C27.2031 4.46279 25.3359 3.64248 23.6172 3.27529C22.5156 3.0331 19.9844 2.99404 18.8672 3.19717Z" fill="#5BB318"/>
<path d="M18.0468 14.6875C14.0703 14.7266 13.6875 14.7344 13.4921 14.8672C13.1562 15.0859 13.0312 15.3516 12.8828 16.1562C12.664 17.2891 12.25 18.0781 11.4531 18.875C10.9843 19.3359 10.6484 19.5859 10.1796 19.8281C9.26558 20.2969 9.17964 20.4453 9.18746 21.4844C9.18746 22.0625 9.25777 22.6016 9.40621 23.3203C10.7031 29.3828 14.0625 34.0547 18.9531 36.5781C19.4453 36.8281 19.9453 37.0312 20.0625 37.0312C20.3437 37.0312 21.4453 36.4609 22.539 35.75C27.0234 32.8125 30 27.7891 30.7812 21.8047C30.9453 20.6016 30.7421 20.2344 29.6562 19.6719C29.1953 19.4297 28.8593 19.1719 28.3984 18.7109C27.625 17.9375 27.25 17.2344 27.0234 16.1172C26.8359 15.2031 26.7031 14.9687 26.289 14.7656C25.9921 14.625 25.8203 14.6094 24.1718 14.625C23.1875 14.6406 20.4296 14.6641 18.0468 14.6875ZM25.7968 16.4687C26.0546 17.75 26.5468 18.6562 27.539 19.6484C28.0703 20.1719 28.414 20.4375 28.9062 20.7031L29.5703 21.0625L29.5468 21.4062C29.4687 22.5469 28.9609 24.7266 28.4375 26.1719C26.9453 30.25 24.0781 33.6406 20.6171 35.4297L20.0234 35.7266L19.3593 35.3672C15.0703 33.0312 12.1562 29.125 10.8593 23.9844C10.6015 22.9531 10.3906 21.8047 10.3906 21.3984C10.3906 21.1406 10.4218 21.1094 10.7968 20.9297C11.6875 20.5156 12.6875 19.6016 13.2578 18.6875C13.664 18.0312 14.039 17.0391 14.1093 16.3906L14.164 15.9375L17.8828 15.9141C19.9296 15.9062 22.5156 15.8906 23.6406 15.875L25.6796 15.8594L25.7968 16.4687Z" fill="#5BB318"/>
<path d="M15.3594 16.8755C14.9922 16.9927 14.7813 17.2583 14.5704 17.8833C14.1563 19.1411 13.2813 20.2895 12.1641 21.0786C11.1875 21.7583 11.1719 21.8755 11.7266 24.0474C12.8829 28.6177 15.4141 32.102 19.1797 34.313C19.9375 34.7583 20.1875 34.7505 21.0157 34.2505C23.0235 33.0395 24.8516 31.227 26.1094 29.1958C26.7266 28.2114 27.3985 26.7427 27.8125 25.4849C28.2266 24.2192 28.5938 22.6177 28.5938 22.0552C28.5938 21.727 28.5625 21.6645 28.2657 21.3911C28.0782 21.227 27.7032 20.9224 27.4219 20.7114C26.5313 20.0552 25.6329 18.8052 25.3125 17.7739C25.1719 17.3208 24.9532 16.9927 24.7266 16.8911C24.4844 16.7817 15.7266 16.7661 15.3594 16.8755ZM24.2891 18.6333C24.8047 19.938 25.8204 21.2114 26.9532 21.977C27.1485 22.1099 27.3125 22.2192 27.3282 22.227C27.3438 22.2427 27.2579 22.6645 27.1485 23.1724C26.1954 27.4692 23.8672 30.9927 20.6719 32.977L20.0469 33.3599L19.6954 33.1489C16.7813 31.4692 14.5547 28.6255 13.3282 25.0239C13.0235 24.1177 12.6563 22.6958 12.6563 22.3989C12.6563 22.3364 12.7891 22.1958 12.961 22.0864C13.4141 21.7895 14.1875 21.0395 14.5782 20.5317C14.961 20.0395 15.5235 19.0161 15.7422 18.4145L15.8829 18.0474L19.9766 18.063L24.0704 18.0864L24.2891 18.6333Z" fill="#5BB318"/>
<path d="M23.1484 21.5483C23.1016 21.5796 22.2812 22.7827 21.3281 24.2124L19.6016 26.8217L19.0391 26.2827C17.7812 25.0639 17.6016 24.9233 17.3203 24.9233C16.9766 24.9233 16.7188 25.1889 16.7188 25.5483C16.7188 25.7905 16.8281 25.9233 17.875 26.9389C19.3047 28.3296 19.5234 28.4858 19.8672 28.3921C20.1641 28.3061 20.1484 28.3296 22.4531 24.8217C23.4062 23.3686 24.1406 22.1733 24.1406 22.0717C24.1406 21.7592 23.8516 21.4858 23.5312 21.4858C23.375 21.4858 23.2031 21.5171 23.1484 21.5483Z" fill="#5BB318"/>
</svg>
