<svg width="26" height="26" viewBox="0 0 26 26" fill="none" xmlns="http://www.w3.org/2000/svg">
<path fill-rule="evenodd" clip-rule="evenodd" d="M4.45611 0.573697C4.20443 0.662292 4.0264 0.826232 3.90887 1.07771C3.83231 1.24145 3.81482 1.40519 3.8139 1.96522L3.81279 2.652L2.68169 2.66796L1.55059 2.68398L1.2079 2.84425C0.823888 3.0239 0.422284 3.38782 0.258643 3.70451C-0.0125161 4.2293 9.12535e-05 3.72423 9.12535e-05 14.0784C9.12535e-05 22.4727 0.00969924 23.7062 0.0769043 23.961C0.279638 24.7297 0.929423 25.323 1.70589 25.4485C2.15477 25.5211 24.0592 25.5151 24.4116 25.4423C25.0249 25.3156 25.5998 24.8658 25.8664 24.3042C26.1106 23.7898 26.0904 23.595 25.1993 17.8933C24.7635 15.1049 24.1183 10.9374 23.7654 8.63217C23.4126 6.32693 23.1014 4.34024 23.0738 4.21726C22.9993 3.88476 22.7388 3.43837 22.4843 3.20661C22.3604 3.09393 22.1062 2.93019 21.9195 2.84285L21.5799 2.68398L20.093 2.66862L18.606 2.65331L18.6049 1.96588C18.6037 1.19136 18.5427 0.97707 18.2558 0.738741C17.7656 0.331402 16.9006 0.463919 16.5846 0.994739C16.4537 1.2146 16.4445 1.27031 16.428 1.94359L16.4105 2.65888H14.3565H12.3024V1.96678C12.3024 1.34867 12.2901 1.25079 12.188 1.05136C12.1212 0.920851 11.9821 0.765244 11.8533 0.676799C11.6549 0.540668 11.5938 0.525559 11.2432 0.525559C10.7673 0.525559 10.5172 0.637044 10.2944 0.948358C10.1438 1.15858 10.1417 1.17123 10.1245 1.91016L10.1071 2.65888H8.05759H6.00803L5.9907 1.91468C5.97392 1.19627 5.96833 1.1631 5.83026 0.957142C5.56815 0.566368 4.95939 0.396506 4.45611 0.573697ZM5.14321 1.33647C5.22989 1.41392 5.23619 1.53776 5.23619 3.16505C5.23619 4.68493 5.22587 4.9207 5.15633 4.98942C5.06513 5.07942 4.81903 5.09312 4.67364 5.01632C4.57929 4.96643 4.57533 4.89284 4.57533 3.18774C4.57533 1.6396 4.58559 1.40102 4.65519 1.33226C4.75971 1.2291 5.02563 1.23136 5.14321 1.33647ZM11.46 1.33226C11.5295 1.40097 11.5398 1.63714 11.5398 3.16084C11.5398 5.1014 11.5456 5.06827 11.2094 5.06827C10.8732 5.06827 10.879 5.1014 10.879 3.16084C10.879 1.22027 10.8732 1.2534 11.2094 1.2534C11.3033 1.2534 11.416 1.28889 11.46 1.33226ZM17.7452 1.30535C17.8396 1.35524 17.8435 1.42903 17.8435 3.15255C17.8435 4.48194 17.8277 4.96342 17.7825 5.00804C17.6937 5.09573 17.3836 5.08173 17.2756 4.9852C17.1889 4.9078 17.1826 4.78432 17.1826 3.16957C17.1826 1.62781 17.1919 1.42687 17.2668 1.34521C17.3595 1.24401 17.5924 1.22459 17.7452 1.30535ZM3.81279 3.8438C3.81279 4.24873 3.80318 4.28778 3.65921 4.46728C2.97486 5.32046 3.26854 6.55286 4.25913 6.9848C4.62275 7.14337 5.17483 7.13418 5.5528 6.96332C5.9359 6.79014 6.26816 6.44775 6.40679 6.08328C6.61339 5.53996 6.48071 4.79511 6.11718 4.45789C6.00956 4.35811 5.99873 4.30525 5.99873 3.87994V3.41181H8.05759H10.1164V3.87994C10.1164 4.30525 10.1056 4.35811 9.99799 4.45789C9.93282 4.51833 9.82419 4.67474 9.75652 4.8055C9.65175 5.00789 9.63355 5.11395 9.63396 5.52004C9.63436 5.88847 9.65602 6.03685 9.72928 6.17258C9.92093 6.52772 10.1653 6.7677 10.5021 6.93139C11.3144 7.32628 12.2589 7.00618 12.661 6.19984C12.9323 5.65557 12.861 4.99494 12.4799 4.52159C12.3073 4.30726 12.3024 4.28899 12.3024 3.8565V3.41181H14.3612H16.4201V3.8695C16.4201 4.30284 16.4123 4.33597 16.2728 4.49283C15.9054 4.90599 15.8063 5.67745 16.0558 6.18227C16.3841 6.84656 17.1227 7.2171 17.8334 7.07405C19.0583 6.82749 19.5506 5.42888 18.7511 4.46703C18.6159 4.3043 18.606 4.26243 18.606 3.84927V3.40609L20.0422 3.4215L21.4783 3.43691L21.718 3.57606C21.8499 3.6526 22.0153 3.78969 22.0856 3.88069C22.3596 4.23548 22.3679 4.31228 22.3679 6.50518V8.53178H11.5653H0.76263V6.50633C0.76263 5.09031 0.780524 4.42958 0.822108 4.31027C0.959009 3.91769 1.30408 3.56853 1.65907 3.46357C1.73919 3.43982 2.2566 3.41849 2.80878 3.41613L3.81279 3.41181V3.8438ZM18.3506 5.72529C18.1985 6.28311 17.5334 6.52827 17.0455 6.20626C16.8645 6.0868 16.6743 5.78914 16.6743 5.62545C16.6743 5.52069 16.6782 5.52114 16.8761 5.6505C17.2622 5.90283 18.0111 5.85881 18.2775 5.56812C18.4016 5.4328 18.4197 5.47185 18.3506 5.72529ZM4.24774 5.64422C4.60008 5.88029 5.18464 5.88451 5.53816 5.65351C5.73977 5.52174 5.74455 5.52109 5.74455 5.62545C5.74455 5.79887 5.53323 6.11907 5.34157 6.23603C4.98964 6.45082 4.45413 6.34741 4.21724 6.01893C4.12019 5.88436 3.99417 5.52004 4.04465 5.52004C4.05446 5.52004 4.14581 5.5759 4.24774 5.64422ZM10.7394 5.74401C11.0975 5.89174 11.8339 5.79079 11.9687 5.57545C12.0399 5.46176 12.087 5.52566 12.0504 5.68613C11.9183 6.26444 11.2382 6.53801 10.7407 6.21294C10.5328 6.07711 10.3706 5.81619 10.3706 5.61762C10.3706 5.51216 10.3768 5.51 10.4615 5.58564C10.5114 5.63027 10.6365 5.70154 10.7394 5.74401ZM22.3679 9.61099V9.93726H17.1668C12.0029 9.93726 11.9649 9.93802 11.8545 10.0396C11.6932 10.188 11.7041 10.4518 11.8771 10.5861C12.0106 10.6898 12.0276 10.6902 17.1895 10.6902H22.3679V13.7454C22.3679 16.7602 22.3693 16.8023 22.4733 16.9328C22.6067 17.1002 22.8841 17.1157 23.0166 16.9631C23.0983 16.8688 23.107 16.5903 23.1304 13.3113L23.1559 9.76158L24.1917 16.4125C24.7615 20.0705 25.2389 23.2111 25.2526 23.3916C25.2846 23.8106 25.1419 24.1679 24.8412 24.4221C24.5374 24.6788 24.2473 24.745 23.4262 24.745C23.0399 24.745 22.7238 24.7321 22.7238 24.7163C22.7238 24.7005 22.7829 24.5879 22.8553 24.466C23.1223 24.0162 23.1292 23.9293 23.1298 21.0337L23.1304 18.3515L23.0199 18.2353C22.8637 18.0711 22.611 18.0786 22.4733 18.2514C22.3697 18.3814 22.3679 18.4289 22.3674 21.0499L22.3669 23.716L22.2476 23.967C22.0996 24.2784 21.9022 24.4774 21.6054 24.6144L21.3766 24.7199L11.669 24.733C0.866285 24.7475 1.62176 24.771 1.21436 24.4076C1.10166 24.3071 0.959619 24.1329 0.898769 24.0206L0.788048 23.8164L0.774577 17.2533L0.761156 10.6902H5.58848H10.4158L10.5431 10.5773C10.727 10.4141 10.7392 10.2008 10.574 10.0377C10.4737 9.93867 10.4045 9.93726 5.61746 9.93726H0.76263V9.61099V9.28472H11.5653H22.3679V9.61099ZM7.32509 12.6504C7.05429 12.7616 6.98398 13.056 7.18392 13.2414C7.29434 13.3438 7.35046 13.3506 8.09109 13.3506C8.81774 13.3506 8.88799 13.3425 8.97324 13.2495C9.10008 13.1111 9.09123 12.8682 8.95443 12.7329C8.85185 12.6315 8.78769 12.6218 8.14528 12.6115C7.76152 12.6053 7.39245 12.6228 7.32509 12.6504ZM10.7976 12.6669C10.5525 12.776 10.4914 13.0683 10.6756 13.2502C10.7686 13.3419 10.8451 13.3506 11.5653 13.3506C12.2855 13.3506 12.362 13.3419 12.4549 13.2502C12.5919 13.1149 12.5892 12.8431 12.4497 12.7184C12.3572 12.6357 12.2484 12.621 11.649 12.6097C11.1399 12.6001 10.9133 12.6154 10.7976 12.6669ZM14.3358 12.6332C14.1656 12.6951 14.0816 12.8175 14.0816 13.0041C14.0816 13.3175 14.177 13.3506 15.0823 13.3506C15.8137 13.3506 15.8627 13.3444 15.9606 13.2407C16.152 13.0379 16.0741 12.7462 15.8036 12.6531C15.6415 12.5973 14.4781 12.5816 14.3358 12.6332ZM17.8083 12.6483C17.6457 12.713 17.5229 12.921 17.5657 13.0595C17.6518 13.3381 17.6942 13.3506 18.5594 13.3506H19.3612L19.4665 13.2183C19.5245 13.1456 19.5719 13.0563 19.5719 13.0199C19.5719 12.8715 19.4472 12.6999 19.3032 12.6503C19.1195 12.5871 17.9661 12.5855 17.8083 12.6483ZM3.74644 15.7153C3.51179 15.8501 3.54041 16.2421 3.79321 16.3558C3.86769 16.3893 4.21027 16.4125 4.63089 16.4125C5.31865 16.4125 5.34666 16.4084 5.46724 16.2893C5.53587 16.2215 5.59204 16.1076 5.59204 16.036C5.59204 15.9645 5.53587 15.8506 5.46724 15.7828C5.34584 15.6629 5.3221 15.6596 4.59032 15.6611C4.16005 15.662 3.79891 15.6852 3.74644 15.7153ZM7.19109 15.7828C7.12246 15.8506 7.06629 15.9645 7.06629 16.036C7.06629 16.1076 7.12246 16.2215 7.19109 16.2893C7.31167 16.4084 7.33968 16.4125 8.02744 16.4125C8.80681 16.4125 8.96653 16.3733 9.04055 16.1636C9.09718 16.0032 9.00405 15.7421 8.87244 15.6922C8.82511 15.6742 8.45553 15.6596 8.05113 15.6596C7.33826 15.6596 7.31203 15.6633 7.19109 15.7828ZM10.6845 15.7757C10.5281 15.9401 10.5385 16.1769 10.7079 16.3085C10.8292 16.4027 10.9104 16.4125 11.5653 16.4125C12.2201 16.4125 12.3014 16.4027 12.4226 16.3085C12.5977 16.1725 12.6052 15.923 12.4389 15.7687C12.3289 15.6667 12.2717 15.6596 11.5581 15.6596C10.8262 15.6596 10.7905 15.6643 10.6845 15.7757ZM14.1929 15.7619C14.0179 15.9229 14.0263 16.1329 14.2142 16.2996C14.3338 16.4057 14.3858 16.4125 15.0781 16.4125C15.7924 16.4125 15.8185 16.4088 15.9394 16.2893C16.1093 16.1216 16.1054 15.8996 15.9303 15.7636C15.8086 15.6691 15.7281 15.6596 15.0503 15.6596C14.3697 15.6596 14.2944 15.6686 14.1929 15.7619ZM17.7263 15.7153C17.4917 15.8501 17.5203 16.2421 17.7731 16.3558C17.8476 16.3893 18.1902 16.4125 18.6108 16.4125C19.2985 16.4125 19.3265 16.4084 19.4471 16.2893C19.5158 16.2215 19.5719 16.1076 19.5719 16.036C19.5719 15.9645 19.5158 15.8506 19.4471 15.7828C19.3257 15.6629 19.302 15.6596 18.5702 15.6611C18.1399 15.662 17.7788 15.6852 17.7263 15.7153ZM3.82844 18.7201C3.66495 18.7879 3.5432 18.9952 3.5858 19.1332C3.67187 19.4118 3.71437 19.4243 4.57949 19.4243H5.38133L5.48666 19.292C5.62382 19.1199 5.61965 19.0098 5.46948 18.8373C5.34722 18.6968 5.34523 18.6964 4.64339 18.6852C4.25648 18.679 3.88975 18.6947 3.82844 18.7201ZM7.32509 18.7236C7.05414 18.8359 6.98403 19.1297 7.18392 19.3151C7.29434 19.4175 7.35046 19.4243 8.09109 19.4243C8.81774 19.4243 8.88799 19.4162 8.97324 19.3232C9.10013 19.1848 9.09123 18.9418 8.95433 18.8066C8.85175 18.7052 8.78713 18.6955 8.14523 18.6846C7.75948 18.6782 7.39281 18.6956 7.32509 18.7236ZM10.7976 18.7405C10.5525 18.8497 10.4914 19.142 10.6756 19.3239C10.7686 19.4156 10.8451 19.4243 11.5653 19.4243C12.2855 19.4243 12.362 19.4156 12.4549 19.3239C12.5834 19.197 12.5854 18.9686 12.4594 18.8149C12.3669 18.702 12.329 18.6958 11.6588 18.6834C11.1413 18.6738 10.9135 18.6889 10.7976 18.7405ZM14.3612 18.7074C14.1791 18.7512 14.0816 18.8786 14.0816 19.0729C14.0816 19.3979 14.1554 19.4243 15.0643 19.4243C15.7931 19.4243 15.8695 19.4157 15.9626 19.3239C16.1561 19.1328 16.0726 18.8194 15.8036 18.7268C15.6469 18.6729 14.5653 18.6583 14.3612 18.7074ZM17.8083 18.7201C17.6448 18.7879 17.5231 18.9952 17.5657 19.1332C17.6518 19.4118 17.6942 19.4243 18.5594 19.4243H19.3612L19.4665 19.292C19.6037 19.1199 19.5995 19.0098 19.4494 18.8373C19.3271 18.6968 19.3251 18.6964 18.6233 18.6852C18.2364 18.679 17.8696 18.6947 17.8083 18.7201ZM3.72825 21.8074C3.66928 21.8482 3.60654 21.9387 3.58875 22.0086C3.55159 22.1548 3.66551 22.408 3.78966 22.455C3.8349 22.4721 4.2028 22.4862 4.6072 22.4862C5.32007 22.4862 5.3463 22.4824 5.46724 22.363C5.53587 22.2952 5.59204 22.1813 5.59204 22.1097C5.59204 22.0382 5.53587 21.9243 5.46724 21.8565C5.346 21.7367 5.32124 21.7333 4.58895 21.7333C4.00672 21.7333 3.81106 21.7501 3.72825 21.8074ZM7.19109 21.8565C7.12246 21.9243 7.06629 22.0382 7.06629 22.1097C7.06629 22.1813 7.12246 22.2952 7.19109 22.363C7.31248 22.4829 7.33617 22.4862 8.06801 22.4846C8.8701 22.4829 8.95215 22.4614 9.04162 22.2289C9.09891 22.0802 9.00202 21.815 8.87244 21.7659C8.82511 21.7479 8.45553 21.7333 8.05113 21.7333C7.33826 21.7333 7.31203 21.737 7.19109 21.8565ZM10.7079 21.8373C10.6108 21.9128 10.574 21.9876 10.574 22.1097C10.574 22.2319 10.6108 22.3067 10.7079 22.3821C10.8292 22.4764 10.9104 22.4862 11.5653 22.4862C12.2201 22.4862 12.3014 22.4764 12.4226 22.3821C12.5977 22.2462 12.6052 21.9967 12.4389 21.8424C12.3292 21.7407 12.2711 21.7333 11.5815 21.7333C10.9102 21.7333 10.8295 21.7429 10.7079 21.8373ZM14.2228 21.8022C14.0046 21.9658 14.0284 22.3229 14.2645 22.4291C14.34 22.4631 14.6795 22.4862 15.1031 22.4862C15.7908 22.4862 15.8189 22.4821 15.9394 22.363C16.1093 22.1953 16.1054 21.9733 15.9303 21.8373C15.8084 21.7427 15.7294 21.7334 15.0534 21.7349C14.5218 21.736 14.2855 21.7551 14.2228 21.8022Z" fill="#112B3C"/>
</svg>
