<svg width="27" height="28" viewBox="0 0 27 28" fill="none" xmlns="http://www.w3.org/2000/svg">
<path fill-rule="evenodd" clip-rule="evenodd" d="M21.8124 0.550678C19.7902 0.890038 18.2628 2.48513 18.0388 4.49169C18.0061 4.78479 18.0044 5.10337 18.0345 5.3426C18.1314 6.11432 18.6122 7.30026 19.3588 8.60901C19.9971 9.72796 20.4102 10.3632 21.4441 11.8162L21.9359 12.5074V13.0683C21.9359 13.6135 21.9402 13.634 22.0898 13.8015C22.222 13.9494 22.2786 13.9738 22.4898 13.9738C22.7011 13.9738 22.7577 13.9494 22.8899 13.8015C23.0393 13.6343 23.0438 13.6128 23.0438 13.0749V12.5206L23.4549 11.9548C25.7811 8.75271 27.0033 6.31436 27 4.88244C26.9983 4.15698 26.6837 3.17356 26.2396 2.50607C25.9589 2.08405 25.345 1.47876 24.9265 1.21136C24.0339 0.640939 22.8152 0.382396 21.8124 0.550678ZM23.4659 1.77328C24.0151 1.93988 24.4106 2.1789 24.8427 2.60551C25.2813 3.03861 25.4757 3.33493 25.6668 3.86124C25.9197 4.55779 25.9229 5.17801 25.6776 5.9319C25.4344 6.67926 24.5142 8.39241 23.6815 9.64803C23.2467 10.3038 22.5021 11.3662 22.4885 11.3504C22.3846 11.2296 21.3723 9.73529 21.0316 9.19963C20.2276 7.93567 19.5417 6.62086 19.2936 5.86791C19.128 5.36507 19.1149 4.4813 19.2664 4.02984C19.5232 3.26424 19.9561 2.67045 20.573 2.23719C21.4055 1.65258 22.4931 1.47818 23.4659 1.77328ZM22.0678 3.97192C21.5447 4.21485 21.2978 4.70513 21.4176 5.26342C21.4963 5.63047 21.8651 5.99922 22.2322 6.07792C22.7905 6.19767 23.2808 5.95084 23.5238 5.4278C23.6562 5.14288 23.648 4.84788 23.4992 4.531C23.3535 4.22081 23.2565 4.12591 22.9373 3.98115C22.643 3.84769 22.3422 3.84447 22.0678 3.97192ZM5.60716 9.5957C4.12845 9.86844 2.93727 10.48 1.94003 11.4785C0.362025 13.0584 -0.326894 15.447 0.147509 17.6929C0.641855 20.0333 2.23294 22.788 4.73311 25.6322C5.50127 26.506 6.31765 27.3428 6.48822 27.4311C6.6437 27.5116 7.11024 27.5222 7.73738 27.4594C8.08933 27.4242 8.14167 27.4036 8.28412 27.2442C8.41891 27.0933 8.43759 27.0377 8.41353 26.8585C8.39633 26.7303 8.32959 26.5908 8.24138 26.4988L8.0973 26.3484L8.41849 26.005C9.17278 25.1988 10.3992 23.6475 11.0488 22.678C13.5459 18.9509 14.1003 15.9346 12.7847 13.2325C11.8298 11.2712 10.082 9.98808 7.82396 9.59074C7.3064 9.49964 6.11332 9.50233 5.60716 9.5957ZM8.11708 10.7998C8.79044 10.9729 9.32704 11.2021 9.82624 11.5298C11.0908 12.3599 11.9362 13.6146 12.255 15.1343C12.3724 15.694 12.3724 16.7265 12.2551 17.35C11.9539 18.9502 10.9589 20.9468 9.45198 22.9743C8.68429 24.0072 6.8675 26.107 6.74146 26.107C6.61542 26.107 4.79864 24.0072 4.03095 22.9743C2.52401 20.9468 1.52899 18.9502 1.22784 17.35C1.11051 16.7265 1.11056 15.694 1.22795 15.1343C1.66959 13.029 3.12983 11.4359 5.14642 10.8597C5.81998 10.6672 6.16033 10.6271 6.92612 10.6497C7.43012 10.6646 7.74593 10.7045 8.11708 10.7998ZM5.92434 12.9775C5.02286 13.1954 4.15287 13.8971 3.74078 14.7387C3.45615 15.32 3.34577 15.8403 3.38271 16.4268C3.46448 17.7245 4.2051 18.7962 5.38626 19.326C5.84167 19.5303 6.21942 19.6092 6.74146 19.6092C8.54189 19.6092 9.98589 18.241 10.1002 16.4268C10.1998 14.8468 9.07723 13.3374 7.53284 12.9745C7.10797 12.8747 6.34387 12.8761 5.92434 12.9775ZM7.16954 14.0536C8.29884 14.2662 9.12076 15.4078 8.95415 16.5323C8.89585 16.9259 8.83412 17.1131 8.67047 17.3922C8.47014 17.7341 8.0581 18.0965 7.65012 18.2898C7.32149 18.4454 7.2547 18.4578 6.74146 18.4578C6.22823 18.4578 6.16144 18.4454 5.8328 18.2898C5.2676 18.022 4.7778 17.4955 4.62274 16.989C4.10908 15.3111 5.47658 13.735 7.16954 14.0536ZM21.7512 15.2765C21.6932 15.3094 21.5268 15.4592 21.3815 15.6092C21.0738 15.9271 20.7463 16.0695 20.0474 16.1892C19.6553 16.2565 19.5669 16.2913 19.443 16.4274C19.2799 16.6066 19.2553 16.8243 19.3726 17.0511C19.4911 17.2802 19.6644 17.3435 20.078 17.3089C21.0395 17.2283 21.8413 16.8488 22.3144 16.2506C22.6234 15.8598 22.5788 15.4886 22.1991 15.2923C22.0189 15.1991 21.8954 15.1947 21.7512 15.2765ZM17.2115 16.7196C16.6615 16.9909 16.0312 17.7047 15.6234 18.5177C15.3962 18.9707 15.3854 19.011 15.4443 19.1894C15.5264 19.4382 15.7271 19.592 15.9695 19.592C16.2459 19.592 16.3541 19.4923 16.6416 18.9728C16.8854 18.5323 17.2789 18.0837 17.8388 17.608C17.9973 17.4734 18.0318 17.4087 18.0318 17.2469C18.0318 16.7676 17.6333 16.5114 17.2115 16.7196ZM14.7111 20.8976C14.6164 20.9852 14.4784 21.2309 14.3628 21.5175C14.2575 21.7786 14.019 22.2963 13.8329 22.6679C13.4516 23.4293 13.4204 23.6105 13.6279 23.857C13.9261 24.2114 14.3141 24.105 14.6133 23.5869C15.0803 22.7781 15.6049 21.554 15.6049 21.2729C15.6049 21.1247 15.5655 21.0378 15.4425 20.9149C15.2238 20.6961 14.9362 20.6893 14.7111 20.8976ZM11.8528 25.057C11.3237 25.4102 10.9754 25.5911 10.3896 25.817C9.92448 25.9963 9.74906 26.1696 9.74906 26.4499C9.74906 26.6622 9.93487 26.915 10.1292 26.967C10.6407 27.104 12.7314 26.0353 12.9432 25.5285C13.0914 25.174 12.8175 24.7625 12.4331 24.762C12.3531 24.7619 12.1093 24.8858 11.8528 25.057Z" fill="#112B3C"/>
</svg>
