<svg width="47" height="47" viewBox="0 0 47 47" fill="none" xmlns="http://www.w3.org/2000/svg">
<g clip-path="url(#clip0_579_100)">
<path d="M16.8906 0.211136C15.4586 0.697659 14.2836 1.9002 13.9439 3.22207L13.8246 3.67188H10.7494H7.6834L7.29785 3.90137C7.08672 4.02071 6.83887 4.23184 6.75625 4.36035L6.60937 4.58984H4.33281C2.14805 4.58984 2.04707 4.59903 1.60645 4.81016C0.936328 5.12227 0.59668 5.44356 0.28457 6.07695L0 6.63692V25.7949V44.9529L0.28457 45.5129C0.59668 46.1463 0.936328 46.4676 1.60645 46.7797L2.06543 47H18.3594H34.6533L35.1123 46.7797C35.7824 46.4676 36.1221 46.1463 36.4342 45.5129L36.7188 44.9529V25.7949V6.63692L36.4342 6.07695C36.1221 5.44356 35.7824 5.12227 35.1123 4.81016C34.6717 4.59903 34.5707 4.58984 32.3859 4.58984H30.1094L29.9625 4.36035C29.8799 4.23184 29.632 4.02071 29.4209 3.90137L29.0354 3.67188H25.9693H22.8941L22.7748 3.22207C22.6463 2.69883 22.1506 1.83594 21.7283 1.38614C21.2877 0.917969 20.4156 0.385548 19.7547 0.183594C18.9193 -0.0734367 17.6893 -0.0642548 16.8906 0.211136ZM19.5068 2.15723C19.975 2.38672 20.5625 2.97422 20.7828 3.4332C20.8746 3.62598 20.9939 4.0666 21.0398 4.41543C21.1133 4.88359 21.1959 5.10391 21.3703 5.27832L21.5998 5.50781H25.0238H28.457V7.34375V9.17969H18.3594H8.26172V7.34375V5.50781H11.6949H15.1189L15.3576 5.27832C15.5229 5.11309 15.6055 4.90195 15.6514 4.56231C15.7615 3.67188 15.9727 3.20371 16.4684 2.69883C16.7437 2.42344 17.1109 2.16641 17.3496 2.08379C17.9096 1.88184 19.0111 1.91856 19.5068 2.15723ZM6.42578 7.34375V8.26172H5.2875C4.18594 8.26172 4.14922 8.2709 3.91055 8.50039L3.67187 8.74825V25.7949V42.8416L3.91055 43.0895L4.1584 43.3281H9.40918H14.66L14.9078 43.0895C15.1006 42.8967 15.1465 42.759 15.1465 42.4102C15.1465 42.0613 15.1006 41.9236 14.9078 41.7309L14.66 41.4922H10.0885H5.50781V25.7949V10.0977H6.04941C6.54512 10.0977 6.60937 10.1252 6.78379 10.3639C6.89395 10.5107 7.16016 10.7219 7.37129 10.8229C7.76602 11.0156 7.81191 11.0156 18.3594 11.0156C28.9068 11.0156 28.9527 11.0156 29.3475 10.8229C29.5586 10.7219 29.8248 10.5107 29.935 10.3639C30.1094 10.1252 30.1736 10.0977 30.6693 10.0977H31.2109V25.7949V41.4922H26.6303H22.0588L21.8109 41.7309C21.4713 42.0797 21.4713 42.7406 21.8109 43.0895L22.0588 43.3281H27.3096H32.5603L32.8082 43.0895L33.0469 42.8416V25.7949V8.74825L32.8082 8.50039C32.5695 8.2709 32.5328 8.26172 31.4312 8.26172H30.293V7.33457V6.4166L32.2482 6.44414C34.4697 6.47168 34.6166 6.51758 34.791 7.15098C34.8553 7.39883 34.8736 13.3105 34.8645 25.9877C34.8369 46.0729 34.8736 44.7143 34.3412 44.9988C34.1668 45.0998 31.1742 45.1182 18.3227 45.1182C3.4332 45.1182 2.50605 45.109 2.26738 44.9621C2.12051 44.8611 1.99199 44.6592 1.92773 44.4389C1.86348 44.191 1.84512 38.2793 1.8543 25.593C1.88184 8.14238 1.89102 7.0959 2.04707 6.85723C2.12969 6.72871 2.34082 6.57266 2.50605 6.52676C2.66211 6.48086 3.6168 6.43496 4.61738 6.43496L6.42578 6.42578V7.34375Z" fill="#112B3C"/>
<path d="M17.6801 3.91055C17.4873 4.10332 17.4414 4.24102 17.4414 4.58984C17.4414 4.93867 17.4873 5.07637 17.6801 5.26914C17.8729 5.46191 18.0105 5.50781 18.3594 5.50781C18.7082 5.50781 18.8459 5.46191 19.0387 5.26914C19.2314 5.07637 19.2773 4.93867 19.2773 4.58984C19.2773 4.24102 19.2314 4.10332 19.0387 3.91055C18.8459 3.71777 18.7082 3.67188 18.3594 3.67188C18.0105 3.67188 17.8729 3.71777 17.6801 3.91055Z" fill="#112B3C"/>
<path d="M9.99668 22.0128C9.73047 22.2514 9.68457 22.3524 9.68457 22.7104C9.68457 23.0592 9.73047 23.1786 10.0059 23.454C11.2543 24.7483 13.7328 24.7667 15.0639 23.4999C15.3852 23.1969 15.4219 23.1143 15.4219 22.7288C15.4219 22.3708 15.376 22.2423 15.1557 22.0219C14.7701 21.6364 14.3203 21.6548 13.7328 22.077C12.8883 22.6829 12.1814 22.6829 11.4379 22.1046C11.2176 21.921 10.9422 21.8108 10.6943 21.7833C10.3639 21.7374 10.2629 21.7741 9.99668 22.0128Z" fill="#112B3C"/>
<path d="M21.5631 22.0219C21.3428 22.2423 21.2969 22.3708 21.2969 22.7288C21.2969 23.1143 21.3336 23.1969 21.6549 23.4999C22.9859 24.7667 25.4645 24.7483 26.7129 23.454C26.9883 23.1786 27.0342 23.0592 27.0342 22.7104C27.0342 22.3524 26.9883 22.2514 26.7221 22.0128C26.4559 21.7741 26.3549 21.7374 26.0244 21.7833C25.7766 21.8108 25.5012 21.921 25.2809 22.1046C24.5373 22.6829 23.8305 22.6829 22.9859 22.077C22.3984 21.6548 21.9486 21.6364 21.5631 22.0219Z" fill="#112B3C"/>
<path d="M16.6153 28.0256C16.3032 28.1816 16.0461 28.7049 16.1196 29.0537C16.1471 29.2006 16.294 29.4393 16.4409 29.577L16.7071 29.834H18.3594H20.0118L20.2963 29.577C20.5258 29.375 20.5901 29.2373 20.5993 28.9527C20.6084 28.5213 20.379 28.1174 20.0485 27.998C19.6997 27.8604 16.8907 27.8879 16.6153 28.0256Z" fill="#112B3C"/>
<path d="M17.6801 41.7309C17.4873 41.9236 17.4414 42.0613 17.4414 42.4102C17.4414 43.016 17.7535 43.3281 18.3594 43.3281C18.9652 43.3281 19.2773 43.016 19.2773 42.4102C19.2773 42.0613 19.2314 41.9236 19.0387 41.7309C18.8459 41.5381 18.7082 41.4922 18.3594 41.4922C18.0105 41.4922 17.8729 41.5381 17.6801 41.7309Z" fill="#112B3C"/>
<path d="M41.7308 0.238672C41.3912 0.5875 41.3912 1.24844 41.7308 1.58809C41.9603 1.81758 42.0246 1.83594 43.0527 1.8543L44.1359 1.88184L42.814 3.65352C41.6298 5.2416 41.4921 5.46191 41.4921 5.79238C41.4921 6.71035 41.7125 6.79297 44.246 6.79297C46.7796 6.79297 47 6.71035 47 5.7832C47 5.48027 46.9449 5.34258 46.7337 5.13145C46.4675 4.86523 46.4492 4.86523 45.4027 4.86523H44.3378L45.6689 3.09355C46.9265 1.41367 47 1.29434 47 0.89961C47 0.569141 46.9449 0.431446 46.7613 0.238672L46.5134 4.76837e-07H44.246H41.9787L41.7308 0.238672Z" fill="#112B3C"/>
<path d="M38.9127 9.72129C38.7016 9.93242 38.6465 10.0701 38.6465 10.373C38.6465 10.5842 38.6924 10.832 38.7383 10.933C38.8852 11.1992 39.3258 11.3828 39.8398 11.3828C40.0877 11.3828 40.2988 11.4012 40.2988 11.4287C40.2988 11.4563 39.9316 11.9703 39.4727 12.5854C38.7566 13.54 38.6465 13.7328 38.6465 14.0541C38.6465 14.9354 38.9219 15.0547 40.9414 15.0547C42.9701 15.0547 43.2363 14.9354 43.2363 14.0449C43.2363 13.742 43.1812 13.6043 42.9701 13.3932C42.7223 13.1545 42.6396 13.127 42.098 13.127H41.4922L42.3643 11.9611C43.1629 10.9055 43.2363 10.7678 43.2363 10.4006C43.2363 10.0701 43.1812 9.9416 42.9701 9.72129L42.7039 9.45508H40.9414H39.1789L38.9127 9.72129Z" fill="#112B3C"/>
</g>
<defs>
<clipPath id="clip0_579_100">
<rect width="47" height="47" fill="white"/>
</clipPath>
</defs>
</svg>
