<svg width="21" height="22" viewBox="0 0 21 22" fill="none" xmlns="http://www.w3.org/2000/svg">
<g clip-path="url(#clip0_524_560)">
<path d="M5.7925 0.484755C4.82141 0.607988 4.02284 1.00234 3.32287 1.70232C2.6574 2.36778 2.27784 3.08255 2.12502 3.96984C2.09545 4.13251 2.0708 4.88671 2.0708 5.65077C2.0708 7.03593 2.0708 7.03593 2.19404 7.28733C2.38135 7.65703 2.63275 7.81477 3.0764 7.83449C3.52497 7.85421 3.79609 7.72604 4.0327 7.38099L4.19044 7.14437V5.97611C4.19044 5.33529 4.21509 4.6501 4.23974 4.45292C4.3334 3.73816 4.75239 3.15649 5.41293 2.83115L5.78757 2.64383H11.5303H17.278L17.5491 2.75228C18.1406 2.99382 18.5991 3.49169 18.7815 4.08815C18.8801 4.3987 18.8801 4.5663 18.8801 10.9992C18.8801 17.432 18.8801 17.5996 18.7815 17.9102C18.5991 18.5066 18.1406 19.0045 17.5491 19.2461L17.278 19.3545H11.5303H5.78757L5.41293 19.1672C4.75239 18.8418 4.3334 18.2602 4.23974 17.5454C4.21509 17.3482 4.19044 16.663 4.19044 16.0222V14.8638L4.04749 14.6371C3.95876 14.504 3.81088 14.3561 3.67779 14.2772C3.47568 14.1589 3.4116 14.1441 3.08626 14.1638C2.63275 14.1836 2.38135 14.3364 2.19404 14.711C2.0708 14.9624 2.0708 14.9624 2.0708 16.3476C2.0708 17.1116 2.09545 17.8658 2.12502 18.0285C2.27784 18.9158 2.6574 19.6305 3.32287 20.296C3.90947 20.8826 4.47142 21.203 5.32421 21.4347C5.6249 21.5185 6.0439 21.5234 11.5353 21.5234H17.4259L17.8449 21.4101C19.3878 21.0009 20.5018 19.8869 20.911 18.344L21.0243 17.925V10.9992V4.07336L20.911 3.65436C20.5068 2.12132 19.4124 1.02206 17.8695 0.588272L17.4752 0.474895L11.7078 0.469965C8.53817 0.465036 5.8763 0.469965 5.7925 0.484755Z" fill="#112B3C"/>
<path d="M9.11001 6.82897C8.66143 6.99164 8.42482 7.29234 8.39032 7.74584C8.35581 8.22892 8.41989 8.33244 9.23324 9.16058L9.97265 9.91478L5.34395 9.92464L0.71524 9.93942L0.483558 10.0774C0.14343 10.2746 -0.0241699 10.5802 -0.0241699 10.9992C-0.0241699 11.4182 0.14343 11.7239 0.483558 11.921L0.71524 12.0591L5.34395 12.0739L9.97265 12.0837L9.23324 12.8379C8.41496 13.6661 8.35581 13.7696 8.39032 14.2576C8.43961 14.923 9.08536 15.3667 9.75083 15.1892C9.9628 15.1301 10.1353 14.9723 11.7226 13.3949C12.6838 12.4436 13.507 11.5809 13.5613 11.4823C13.6894 11.2359 13.6894 10.7626 13.5613 10.5162C13.507 10.4176 12.6937 9.56479 11.7472 8.62327C10.3325 7.21347 9.99237 6.89798 9.81491 6.8339C9.55366 6.74517 9.35155 6.74024 9.11001 6.82897Z" fill="#112B3C"/>
</g>
<defs>
<clipPath id="clip0_524_560">
<rect width="21" height="21" fill="white" transform="translate(0 0.5)"/>
</clipPath>
</defs>
</svg>
