<svg width="18" height="17" viewBox="0 0 18 17" fill="none" xmlns="http://www.w3.org/2000/svg">
<path d="M0.257171 0.0720329C0.0111947 0.226906 -0.0766539 0.601482 0.0744457 0.853601C0.113099 0.918432 1.5995 2.78051 3.37755 4.98835L6.61038 9.01144V12.7968V16.5858L6.6912 16.7263C6.78608 16.8992 6.96529 17 7.17261 17C7.31317 17 7.58374 16.8739 9.19664 16.06C10.2192 15.5449 11.1082 15.0767 11.175 15.0227C11.2418 14.9686 11.3156 14.8678 11.3402 14.7994C11.3753 14.7057 11.3858 14.007 11.3858 11.8424L11.3893 9.01144L14.6257 4.98475C16.4073 2.7733 17.8937 0.911228 17.9288 0.85C18.0764 0.601482 17.985 0.223305 17.7426 0.0720329C17.6266 0 17.5458 0 8.99986 0C0.453952 0 0.373131 0 0.257171 0.0720329ZM14.826 2.90657C14.0494 3.87542 12.7492 5.48898 11.934 6.50106C11.1223 7.50953 10.416 8.39555 10.3703 8.46398L10.2825 8.59004L10.2719 11.4066L10.2649 14.2231L9.01041 14.8534C8.32519 15.2028 7.75593 15.4873 7.7489 15.4873C7.74187 15.4873 7.73133 13.935 7.72782 12.0369L7.71727 8.59004L7.62943 8.46398C7.58374 8.39555 6.87744 7.50953 6.06572 6.50106C5.25049 5.48898 3.95033 3.87542 3.17374 2.90657L1.76114 1.15254H8.99986H16.2386L14.826 2.90657Z" fill="white"/>
</svg>
