<svg width="19" height="19" viewBox="0 0 19 19" fill="none" xmlns="http://www.w3.org/2000/svg">
<g clip-path="url(#clip0_455_88)">
<path d="M15.7399 0.148438H3.26006C2.43509 0.149371 1.64418 0.477501 1.06084 1.06084C0.477501 1.64418 0.149371 2.43509 0.148438 3.26006V15.7399C0.149371 16.5649 0.477501 17.3558 1.06084 17.9392C1.64418 18.5225 2.43509 18.8506 3.26006 18.8516H15.7399C16.5649 18.8506 17.3558 18.5225 17.9392 17.9392C18.5225 17.3558 18.8506 16.5649 18.8516 15.7399V3.26006C18.8506 2.43509 18.5225 1.64418 17.9392 1.06084C17.3558 0.477501 16.5649 0.149371 15.7399 0.148438ZM3.26006 1.33594H15.7399C16.2501 1.33652 16.7391 1.53942 17.0999 1.90014C17.4606 2.26086 17.6635 2.74993 17.6641 3.26006V11.9179L14.3729 6.9812C14.3187 6.89987 14.2453 6.83319 14.1591 6.78707C14.0729 6.74095 13.9767 6.71682 13.8789 6.71682C13.7812 6.71682 13.6849 6.74095 13.5988 6.78707C13.5126 6.83319 13.4391 6.89987 13.3849 6.9812L9.40775 12.9469L5.54095 9.08014C5.4296 8.96881 5.27859 8.90627 5.12113 8.90627C4.96367 8.90627 4.81266 8.96881 4.70131 9.08014L1.33594 12.4455V3.26006C1.33652 2.74993 1.53942 2.26086 1.90014 1.90014C2.26086 1.53942 2.74993 1.33652 3.26006 1.33594ZM15.7399 17.6641H3.26006C2.74993 17.6635 2.26086 17.4606 1.90014 17.0999C1.53942 16.7391 1.33652 16.2501 1.33594 15.7399V14.1245C1.33698 14.1235 1.33816 14.1226 1.3392 14.1216L5.12109 10.3397L9.08018 14.2987C9.1353 14.3539 9.20075 14.3976 9.27278 14.4275C9.34482 14.4573 9.42203 14.4727 9.5 14.4727C9.51954 14.4727 9.53907 14.4717 9.55852 14.4698C9.64595 14.4611 9.73036 14.4332 9.80568 14.3879C9.881 14.3427 9.94534 14.2813 9.99407 14.2083L13.8789 8.38093L17.6641 14.0587V15.7399C17.6635 16.2501 17.4606 16.7391 17.0999 17.0999C16.7391 17.4606 16.2501 17.6635 15.7399 17.6641Z" fill="#112B3C"/>
</g>
<defs>
<clipPath id="clip0_455_88">
<rect width="19" height="19" fill="white"/>
</clipPath>
</defs>
</svg>
