<svg width="55" height="55" viewBox="0 0 55 55" fill="none" xmlns="http://www.w3.org/2000/svg">
<g clip-path="url(#clip0_1086_148)">
<mask id="mask0_1086_148" style="mask-type:luminance" maskUnits="userSpaceOnUse" x="0" y="0" width="55" height="55">
<path d="M55 0H0V55H55V0Z" fill="white"/>
</mask>
<g mask="url(#mask0_1086_148)">
<path d="M26.7008 0.0301633C26.0176 0.249304 25.4375 0.713369 25.0766 1.30634L24.7285 1.91219V6.87509V11.838L25.0895 12.4438C25.6051 13.3333 26.4043 13.7716 27.5 13.7716C28.4153 13.7587 28.8922 13.5782 29.4852 12.9853C30.2844 12.1731 30.2715 12.3149 30.2715 6.87509V1.91219L29.9106 1.30634C29.4594 0.532898 28.6602 0.0430539 27.7321 -0.0213992C27.3582 -0.0600711 26.8941 -0.0213992 26.7008 0.0301633Z" fill="#112B3C"/>
<path d="M8.53774 7.42889C7.68695 7.88005 7.22291 8.62773 7.15845 9.63318C7.0682 11.0641 7.10686 11.1156 10.6518 14.7121C14.158 18.2441 14.6479 18.6051 15.7952 18.6051C17.935 18.6051 19.2369 16.4524 18.283 14.5316C17.8705 13.7066 11.7991 7.62227 11.0901 7.32576C10.3682 7.02926 9.22095 7.06798 8.53774 7.42889Z" fill="#112B3C"/>
<path d="M43.871 7.33906C43.1878 7.63551 37.1034 13.7457 36.7167 14.532C35.7628 16.4398 37.0648 18.5926 39.1788 18.6054C40.3648 18.6054 40.8159 18.2703 44.348 14.7125C47.8929 11.116 47.9315 11.0644 47.8413 9.63355C47.7511 8.11247 46.6682 7.13281 45.1085 7.13281C44.6702 7.14568 44.1159 7.23588 43.871 7.33906Z" fill="#112B3C"/>
<path d="M1.95078 24.7929C1.28047 24.9992 0.6875 25.4633 0.326563 26.0562C0.0429688 26.546 -0.0214844 26.8167 -0.0214844 27.5C-0.0214844 28.5957 0.416797 29.3949 1.30625 29.9105L1.91211 30.2714H6.875C12.3148 30.2714 12.173 30.2843 12.9852 29.4851C13.5781 28.8921 13.7586 28.4152 13.7715 27.5C13.7715 26.4042 13.3332 25.605 12.4438 25.0894L11.8379 24.7285L7.06838 24.7027C4.45156 24.6898 2.14414 24.7285 1.95078 24.7929Z" fill="#112B3C"/>
<path d="M43.2008 24.7929C42.5305 24.9992 41.9375 25.4633 41.5766 26.0562C41.293 26.546 41.2285 26.8167 41.2285 27.5C41.2285 28.5957 41.6668 29.3949 42.5563 29.9105L43.1622 30.2714H48.125C53.5649 30.2714 53.4231 30.2843 54.2352 29.4851C54.8281 28.8921 55.0088 28.4152 55.0215 27.5C55.0215 26.4042 54.5832 25.605 53.6938 25.0894L53.0879 24.7285L48.3184 24.7027C45.7016 24.6898 43.3941 24.7285 43.2008 24.7929Z" fill="#112B3C" fill-opacity="0.5"/>
<path d="M14.5319 36.7166C14.0678 36.9486 13.0108 37.9154 10.6518 40.2873C7.10686 43.8837 7.0682 43.9353 7.15845 45.3662C7.22291 46.3717 7.68695 47.1193 8.53774 47.5705C9.23382 47.9314 10.4069 47.9701 11.1029 47.6478C11.8377 47.3127 17.8963 41.2541 18.283 40.4677C19.5205 37.9927 16.994 35.492 14.5319 36.7166Z" fill="#112B3C"/>
<path d="M38.0056 36.6395C36.5618 37.3098 35.9817 38.9984 36.7165 40.468C37.129 41.293 43.2005 47.3774 43.9095 47.6739C44.6314 47.9703 45.7786 47.9317 46.4618 47.5707C47.3126 47.1195 47.7767 46.3719 47.8411 45.3664C47.9314 43.9356 47.8927 43.884 44.3478 40.2875C40.8158 36.7297 40.3646 36.3945 39.1786 36.3945C38.8177 36.3945 38.2892 36.5106 38.0056 36.6395Z" fill="#112B3C" fill-opacity="0.3"/>
<path d="M26.7008 41.2802C26.0176 41.4993 25.4375 41.9634 25.0766 42.5564L24.7285 43.1622V48.1251V53.088L25.0895 53.6939C25.6051 54.5833 26.4043 55.0216 27.5 55.0216C28.4153 55.0089 28.8922 54.8282 29.4852 54.2353C30.2844 53.4231 30.2715 53.5649 30.2715 48.1251V43.1622L29.9106 42.5564C29.4594 41.7829 28.6602 41.2931 27.7321 41.2286C27.3582 41.1899 26.8941 41.2286 26.7008 41.2802Z" fill="#112B3C" fill-opacity="0.1"/>
</g>
</g>
<defs>
<clipPath id="clip0_1086_148">
<rect width="55" height="55" fill="white"/>
</clipPath>
</defs>
</svg>
