<svg width="23" height="23" viewBox="0 0 23 23" fill="none" xmlns="http://www.w3.org/2000/svg">
<g clip-path="url(#clip0_627_2)">
<path d="M10.04 0.0676155C7.96463 0.337147 6.06443 1.13226 4.40232 2.41703C3.87674 2.82582 2.98279 3.70629 2.54705 4.24535C1.3072 5.78168 0.485135 7.59652 0.134744 9.57308C0.00896268 10.2739 -0.0404514 11.9584 0.040408 12.7266C0.233572 14.519 0.857986 16.2754 1.8283 17.7668C2.26853 18.4407 2.65486 18.9213 3.25681 19.5368C5.13904 21.4684 7.51541 22.6364 10.2197 22.9508C10.8217 23.0227 12.2861 23.0092 12.9375 22.9328C16.2976 22.5151 19.2984 20.6328 21.1717 17.7668C22.3262 15.9969 23 13.8047 23 11.8147C23 11.1858 22.9506 11.0375 22.6765 10.8713C22.4654 10.7411 22.0746 10.75 21.8769 10.8848C21.6029 11.0645 21.558 11.1993 21.5131 11.9809C21.4681 12.812 21.3873 13.351 21.1986 14.0608C20.8572 15.35 20.2867 16.5045 19.4377 17.6321C19.0873 18.0948 18.0945 19.0875 17.6318 19.4379C15.7765 20.835 13.7595 21.5223 11.5 21.5223C8.85408 21.5223 6.44177 20.543 4.5326 18.7012C2.54705 16.783 1.4824 14.2674 1.4824 11.5002C1.4824 9.86058 1.81033 8.46801 2.52459 7.03051C3.81385 4.4475 6.17224 2.52933 8.9574 1.79261C10.2961 1.44222 11.8863 1.37484 13.2744 1.62191C15.1881 1.95433 17.1916 2.99652 18.5303 4.35316L18.8402 4.67211H17.8744C16.94 4.67211 16.8996 4.6766 16.7558 4.77094C16.4998 4.94613 16.4189 5.09437 16.4189 5.39086C16.4189 5.68734 16.4998 5.83558 16.7558 6.00629C16.9041 6.10961 16.9086 6.10961 18.7728 6.10961H20.6416L20.8033 6.00179C21.1133 5.79066 21.1133 5.79066 21.1133 3.77367C21.1133 1.75668 21.1133 1.75668 20.8033 1.54554C20.5832 1.3973 20.2013 1.39281 19.9902 1.53656C19.6758 1.75219 19.6533 1.81507 19.6398 2.61019L19.6219 3.32894L19.3029 3.02347C17.6363 1.44222 15.3094 0.3641 12.9375 0.0676155C12.2547 -0.0132446 10.6869 -0.0132446 10.04 0.0676155Z" fill="white"/>
<path d="M5.06719 7.9916C4.41582 8.20273 3.85879 8.77324 3.66562 9.4291C3.60723 9.63574 3.59375 9.96816 3.59375 11.5045C3.59375 13.1756 3.60273 13.3598 3.6791 13.6068C3.88574 14.2672 4.45176 14.8287 5.1166 15.0219C5.33223 15.0848 5.77246 15.0938 8.55312 15.0938C11.6617 15.0938 11.7516 15.0893 11.8953 15.0039C12.1109 14.8691 12.2188 14.667 12.2188 14.375C12.2188 14.083 12.1109 13.8809 11.8953 13.7461C11.7516 13.6607 11.6617 13.6562 8.78223 13.6562C7.15156 13.6562 5.73652 13.6338 5.64219 13.6113C5.42207 13.5619 5.26035 13.4451 5.14355 13.2475C5.0582 13.1037 5.05371 13.0139 5.05371 11.5C5.05371 9.98613 5.0582 9.89629 5.14355 9.75254C5.26035 9.55488 5.42207 9.43809 5.64219 9.38867C5.87578 9.33476 17.1242 9.33476 17.3578 9.38867C17.5779 9.43809 17.7396 9.55488 17.8564 9.75254C17.9418 9.90078 17.9463 10.0086 17.9688 12.2861C17.9912 14.4873 17.9957 14.6805 18.0721 14.7928C18.2023 14.9949 18.409 15.0938 18.6875 15.0938C18.9795 15.0938 19.1816 14.9859 19.3164 14.7703C19.4018 14.6266 19.4062 14.5367 19.4062 12.1424C19.4062 9.83789 19.4018 9.64922 19.3209 9.39316C19.1143 8.73281 18.5482 8.17129 17.8834 7.97812C17.6633 7.91523 16.9715 7.90625 11.482 7.91074C5.6377 7.91074 5.30977 7.91523 5.06719 7.9916Z" fill="white"/>
<path d="M6.61246 10.1565C5.69605 10.5114 5.44449 11.8186 6.15425 12.5328C6.873 13.2471 8.18472 12.991 8.53062 12.0612C8.81812 11.293 8.45875 10.4215 7.74898 10.1565C7.41656 10.0307 6.94039 10.0307 6.61246 10.1565Z" fill="white"/>
<path d="M10.925 10.1565C10.0086 10.5114 9.75699 11.8186 10.4668 12.5328C11.1855 13.2471 12.4972 12.991 12.8431 12.0612C13.0543 11.5041 12.9285 10.8662 12.5332 10.4664C12.1334 10.0711 11.4775 9.94534 10.925 10.1565Z" fill="white"/>
<path d="M15.2375 10.1565C14.3211 10.5114 14.0695 11.8186 14.7793 12.5328C15.498 13.2471 16.8097 12.991 17.1556 12.0612C17.3668 11.5041 17.241 10.8662 16.8457 10.4664C16.4459 10.0711 15.79 9.94534 15.2375 10.1565Z" fill="white"/>
<path d="M16.1854 14.4329C16.1314 14.4643 15.6598 14.8686 15.1387 15.3403C14.6176 15.8075 14.1684 16.1983 14.1459 16.2073C14.1234 16.2163 13.9437 16.077 13.7416 15.8929C13.2924 15.4841 13.243 15.4571 12.9375 15.4526C12.4928 15.4526 12.2188 15.7222 12.2188 16.1624C12.2188 16.2927 12.2457 16.4544 12.2816 16.5218C12.349 16.652 13.4496 17.6673 13.7281 17.8559C13.9348 17.9952 14.3346 18.0132 14.5098 17.8919C14.7793 17.7077 17.1467 15.538 17.1961 15.4302C17.2275 15.3673 17.25 15.21 17.25 15.0798C17.25 14.644 16.976 14.3745 16.5312 14.3745C16.3965 14.379 16.2393 14.4014 16.1854 14.4329Z" fill="white"/>
</g>
<defs>
<clipPath id="clip0_627_2">
<rect width="23" height="23" fill="white"/>
</clipPath>
</defs>
</svg>
