<svg width="113" height="113" viewBox="0 0 113 113" fill="none" xmlns="http://www.w3.org/2000/svg">
<path d="M69.6319 4.34592C67.5573 5.44943 11.4767 37.8928 10.9028 38.3121C10.5276 38.599 9.8876 39.3053 9.51241 39.8791C8.05577 42.0641 8.14405 40.0778 8.29854 72.8963C8.45303 102.603 8.45303 102.669 8.91651 103.331C9.22549 103.773 10.8366 104.854 13.6837 106.509C18.4288 109.268 18.9144 109.401 20.5696 108.562C21.4083 108.143 53.1233 89.8463 54.6683 88.9194L55.3745 88.4779L56.2573 90.1994C58.6851 95.0328 62.3267 99.3365 66.1669 101.941C68.2194 103.309 74.1784 106.752 76.4517 107.834C80.8437 109.952 81.7927 109.533 85.4564 103.729C95.4542 87.9041 101.678 71.8149 104.172 55.1959C104.746 51.3778 104.834 49.4797 104.437 48.7293C104.15 48.1996 101.413 46.4561 98.0585 44.6463L96.5577 43.8518L93.8431 44.4477C90.8856 45.1098 86.8026 46.3899 83.9997 47.5817C83.0286 48.001 82.1458 48.3321 82.0575 48.3321C81.9692 48.3321 81.8589 43.9842 81.8589 38.6653C81.8368 33.3684 81.7706 24.7168 81.6823 19.4862L81.5499 9.9297L80.9761 9.37794C80.6671 9.06896 78.5483 7.72267 76.253 6.37639C71.7507 3.77209 71.0665 3.57346 69.6319 4.34592ZM74.1343 7.34748C75.6351 8.20822 76.871 9.02483 76.8489 9.13518C76.8489 9.24553 64.0481 16.7053 48.4444 25.71L20.0399 42.1082L17.0825 40.4088C15.4714 39.4819 14.1472 38.6873 14.1472 38.6211C14.1472 38.4666 70.912 5.73634 71.1769 5.73634C71.2872 5.73634 72.6335 6.46467 74.1343 7.34748ZM79.6298 10.636C79.8064 10.8125 79.8946 11.9822 79.8946 14.4321V17.9854L48.9962 35.7961C32.0241 45.6174 18.0536 53.6289 17.9653 53.6289C17.8991 53.6289 17.8771 52.2164 17.9212 50.4729C17.9874 47.4934 18.0315 47.2727 18.6495 46.1471C19.0247 45.4408 19.6868 44.6684 20.1944 44.3153C21.7173 43.2559 78.6587 10.4153 79.0339 10.3932C79.2104 10.3711 79.4753 10.4815 79.6298 10.636ZM79.8946 34.8692V49.4356L78.1511 50.3184C71.3755 53.7172 63.1874 59.5879 54.9993 66.9373C52.9689 68.7471 52.395 69.4092 51.8212 70.5569C51.1812 71.859 51.1591 72.0797 51.2694 73.6688C51.4019 75.7654 52.6378 80.9299 53.8075 84.2625L54.6683 86.7344L53.8737 87.1979C50.3646 89.2725 19.7972 106.863 19.3116 107.083C18.0315 107.657 18.0978 108.915 18.1419 81.1506L18.2081 55.7918L48.8858 38.0473C65.7696 28.3143 79.6298 20.3248 79.7401 20.3248C79.8284 20.3027 79.8946 26.8576 79.8946 34.8692ZM93.512 49.899C86.0522 52.5254 78.8353 56.4981 71.2651 62.1701C66.1448 66.0104 59.612 71.6383 58.6189 73.0287C58.3761 73.4039 58.0892 73.7129 58.0009 73.7129C57.6919 73.7129 53.631 71.241 53.631 71.0424C53.631 70.4906 60.6493 64.3551 65.3503 60.7797C73.8253 54.3572 82.4106 49.7004 90.1353 47.361L92.5409 46.6326L94.461 47.7582L96.4032 48.8838L93.512 49.899ZM102.804 50.3625C102.958 52.2164 101.325 61.4639 99.9565 66.6504C97.6392 75.302 94.4169 83.5121 90.069 91.9209C86.8247 98.1889 82.1017 105.825 80.8437 106.796C80.0933 107.414 79.7843 107.326 76.8931 105.936C71.3093 103.243 66.829 98.4758 63.673 91.9209C61.7087 87.8379 59.9651 82.3203 59.3472 78.1932C59.1044 76.6041 59.1265 76.2731 59.4575 75.4123C59.8769 74.2867 61.797 72.3445 66.211 68.6147C77.511 59.0361 88.3476 52.9447 98.9854 50.186C102.517 49.2811 102.715 49.2811 102.804 50.3625ZM13.1981 54.1807L16.0452 55.836L16.1997 80.6871C16.288 94.3486 16.3321 105.582 16.2659 105.649C16.1114 105.781 10.7704 102.669 10.4173 102.228C10.2187 101.963 10.1524 96.5998 10.1524 77.2C10.1524 63.6268 10.1966 52.5254 10.2407 52.5254C10.2849 52.5254 11.6312 53.2758 13.1981 54.1807ZM57.4271 77.2442C57.6698 80.9078 59.8106 88.3014 61.8853 92.6051L63.0771 95.099L61.7308 94.2604C60.5831 93.5762 60.1638 93.1348 59.2368 91.634C57.2946 88.5442 55.3745 83.799 54.2048 79.1201C53.6972 77.1559 52.9688 73.6467 52.9688 73.2274C52.9688 73.1391 53.9399 73.6467 55.1538 74.3309L57.3388 75.5889L57.4271 77.2442Z" fill="#112B3C"/>
<path d="M38.0934 36.1916C36.8133 37.3172 36.2395 39.2373 36.8574 40.407C37.3871 41.3781 39.2852 40.6057 40.1459 39.0387C40.7418 37.9793 40.8742 36.4564 40.4108 35.9047C39.9473 35.3309 38.9541 35.4412 38.0934 36.1916Z" fill="#112B3C"/>
<path d="M31.2074 40.2102C30.2363 41.0709 29.7949 42.0199 29.7949 43.3221C29.7949 44.4256 30.0818 44.8008 30.9426 44.8008C31.6488 44.8008 32.951 43.7414 33.4586 42.7482C33.8779 41.9537 33.9441 40.2984 33.5469 39.835C33.0834 39.2832 32.0902 39.4377 31.2074 40.2102Z" fill="#112B3C"/>
<path d="M24.0568 44.0516C22.556 45.3317 21.9822 47.7595 23.0636 48.4657C23.7037 48.885 24.3658 48.7306 25.2486 47.914C26.4183 46.8325 27.0142 44.9124 26.4845 43.8972C26.1314 43.2571 24.9175 43.3454 24.0568 44.0516Z" fill="#112B3C"/>
<path d="M48.6209 45.7509C34.2752 54.0272 22.3352 61.0014 22.0703 61.2442C21.0551 62.1712 20.9668 62.6126 20.9668 67.3577C20.9668 71.0655 21.033 71.9263 21.3199 72.3456C22.1365 73.5374 21.4965 73.8684 48.5547 58.2427C62.459 50.2311 74.3328 43.3673 74.9729 42.9921C76.915 41.8223 77.0254 41.4251 77.0254 36.1503C77.0254 32.4425 76.9592 31.5817 76.6723 31.1624C75.8557 29.9927 76.5178 29.6395 48.6209 45.7509ZM75.2598 36.3931C75.2598 39.9684 75.2377 40.1671 74.7742 40.6968C74.377 41.1161 23.1738 70.8448 22.8207 70.8448C22.7766 70.8448 22.7324 69.2337 22.7324 67.2473C22.7324 64.8196 22.8207 63.4954 23.0193 63.1202C23.218 62.7229 30.3908 58.4634 49.1064 47.6268C63.3197 39.4167 74.9949 32.6852 75.1053 32.6852C75.1936 32.6632 75.2598 34.3405 75.2598 36.3931Z" fill="#112B3C"/>
<path d="M36.107 73.1623C29.6625 76.8701 24.2774 80.0261 24.1229 80.1585C23.9463 80.291 23.836 80.6662 23.8801 80.9751C24.0346 82.2773 24.5201 82.0345 37.0781 74.7955C48.9961 67.9095 49.0182 67.8874 48.952 67.2253C48.9078 66.6736 48.7754 66.5191 48.334 66.4749C47.9367 66.4308 44.3613 68.3951 36.107 73.1623Z" fill="#112B3C"/>
<path d="M34.5401 84.9266C25.9989 89.8703 23.9243 91.1504 23.8801 91.5697C23.7919 92.1215 24.1671 92.6953 24.6305 92.6953C25.0719 92.6953 46.1932 80.4463 46.4581 80.027C46.7671 79.5414 46.3477 78.9234 45.6635 78.8572C45.3104 78.8131 41.6026 80.8436 34.5401 84.9266Z" fill="#112B3C"/>
<path d="M99.3605 53.033C99.0736 53.342 98.875 53.8275 98.875 54.2469C98.875 54.8428 98.9633 54.9531 99.3826 54.9531C100.288 54.9531 101.038 53.673 100.596 52.8785C100.31 52.393 99.9123 52.4371 99.3605 53.033Z" fill="#112B3C"/>
<path d="M91.7024 59.5663C87.7518 60.6477 84.2205 62.1927 80.0934 64.6425C75.0393 67.5999 66.785 74.3534 66.0787 76.0749C65.6594 77.046 65.7035 78.3261 66.2112 80.6655C68.1533 89.4716 72.5895 95.6513 78.6367 98.0128C81.1528 98.9839 81.7707 98.5866 84.3088 94.5477C90.7754 84.1526 94.726 73.581 96.0723 63.0093C96.6241 58.7718 96.1164 58.3524 91.7024 59.5663ZM94.8143 61.7292C93.7991 70.5573 90.5989 80.3124 85.92 88.8315C83.9116 92.4731 81.2631 96.6224 80.7776 96.8872C80.0272 97.2845 77.0698 95.8278 74.642 93.8415C73.4061 92.8263 71.2432 89.9351 70.25 87.9929C69.2789 86.0286 67.9326 81.9456 67.4471 79.4075C66.9616 76.9136 67.094 76.6046 69.919 74.1327C77.9305 67.1143 84.7723 63.0313 91.901 61.0009C92.8721 60.736 93.9756 60.4933 94.3287 60.4933L94.9467 60.4712L94.8143 61.7292Z" fill="#112B3C"/>
<path d="M89.385 63.8494C87.8621 64.4232 87.4869 64.6439 87.4428 65.0633C87.3324 65.8137 87.9725 65.902 89.4733 65.3723C90.2016 65.1074 90.8195 64.9088 90.8416 64.9529C90.8858 64.975 90.8195 65.3943 90.7092 65.8799C90.4444 67.0275 90.5988 67.5352 91.261 67.5352C91.7024 67.5352 91.8348 67.3586 92.0555 66.5861C92.1879 66.0785 92.3203 65.1074 92.3424 64.4453C92.3645 63.2977 92.3424 63.2314 91.8127 63.1873C91.5037 63.1432 90.4223 63.4521 89.385 63.8494Z" fill="#112B3C"/>
<path d="M89.9365 69.563C89.6717 70.4017 89.3848 71.6817 89.3848 72.079C89.3848 72.5866 89.8482 72.8956 90.3559 72.697C90.709 72.5645 91.3932 70.0706 91.2166 69.6071C91.0842 69.2319 90.0689 69.2099 89.9365 69.563Z" fill="#112B3C"/>
<path d="M80.5566 60.252C80.2918 60.5168 80.1152 60.9803 80.1152 61.4658C80.1152 62.1279 80.1814 62.2383 80.6449 62.2383C81.3291 62.2383 81.8809 61.4879 81.8809 60.5389C81.8809 59.965 81.7926 59.8105 81.4395 59.8105C81.1967 59.8105 80.7994 60.0092 80.5566 60.252Z" fill="#112B3C"/>
<path d="M95.2997 72.3225C94.5493 73.1832 94.5934 74.375 95.3659 74.375C95.9839 74.375 96.6681 73.4922 96.6681 72.6756C96.6681 72.0576 96.5798 71.9473 96.1604 71.9473C95.8735 71.9473 95.4763 72.1238 95.2997 72.3225Z" fill="#112B3C"/>
<path d="M61.8189 74.7281C61.5541 75.0592 61.3555 75.6109 61.3555 75.942C61.3555 76.4717 61.4438 76.582 61.8631 76.582C62.79 76.582 63.6508 75.1254 63.1211 74.4854C62.7238 73.9998 62.3266 74.0881 61.8189 74.7281Z" fill="#112B3C"/>
<path d="M65.9463 89.3176C65.549 89.8032 65.3063 90.6418 65.4828 91.0612C65.8139 91.966 67.3147 90.8184 67.3147 89.6487C67.3147 89.0528 67.2264 88.9424 66.807 88.9424C66.5201 88.9424 66.1229 89.119 65.9463 89.3176Z" fill="#112B3C"/>
<path d="M80.623 102.006C79.9609 102.713 79.7843 103.573 80.2037 103.927C80.932 104.522 82.0576 103.198 81.8369 102.029C81.7265 101.455 81.1527 101.433 80.623 102.006Z" fill="#112B3C"/>
</svg>
