<svg width="234" height="50" viewBox="0 0 234 50" fill="none" xmlns="http://www.w3.org/2000/svg">
<path d="M78.6689 36H72.8535V27.2695H66.1299V36H60.3145V14.584H66.1299V22.5234H72.8535V14.584H78.6689V36ZM92.7607 36H86.9746V19.3154H81.7451V14.584H97.9756V19.3154H92.7607V36ZM110.485 36H104.699V19.3154H99.4697V14.584H115.7V19.3154H110.485V36ZM126.174 14.584C128.889 14.584 130.92 15.1748 132.268 16.3564C133.625 17.5381 134.304 19.2178 134.304 21.3955C134.304 22.3721 134.162 23.3096 133.879 24.208C133.605 25.1064 133.151 25.9072 132.517 26.6104C131.892 27.3135 131.057 27.8701 130.012 28.2803C128.977 28.6904 127.697 28.8955 126.174 28.8955H124.548V36H118.762V14.584H126.174ZM126.042 19.2568H124.548V24.1787H125.69C126.188 24.1787 126.652 24.0957 127.082 23.9297C127.512 23.7539 127.854 23.4756 128.107 23.0947C128.371 22.7041 128.503 22.1865 128.503 21.542C128.503 20.8682 128.303 20.3213 127.902 19.9014C127.502 19.4717 126.882 19.2568 126.042 19.2568Z" fill="#112B3C"/>
<path d="M152.825 21H151.185V12.4004H148.341C148.282 12.8698 148.218 13.3711 148.149 13.9043C148.081 14.4329 148.01 14.9639 147.938 15.4971C147.865 16.0303 147.789 16.5361 147.712 17.0146C147.639 17.4932 147.564 17.9147 147.486 18.2793C147.368 18.89 147.213 19.4095 147.021 19.8379C146.835 20.2617 146.582 20.5853 146.263 20.8086C145.944 21.0319 145.527 21.1436 145.012 21.1436C144.839 21.1436 144.67 21.1276 144.506 21.0957C144.342 21.0684 144.194 21.0319 144.062 20.9863V19.6328C144.171 19.6738 144.287 19.7103 144.41 19.7422C144.538 19.7695 144.672 19.7832 144.813 19.7832C145.05 19.7832 145.24 19.6966 145.381 19.5234C145.527 19.3457 145.647 19.0951 145.743 18.7715C145.839 18.4434 145.93 18.056 146.017 17.6094C146.067 17.3405 146.128 16.985 146.201 16.543C146.274 16.0964 146.354 15.5814 146.44 14.998C146.527 14.4147 146.616 13.7858 146.707 13.1113C146.803 12.4323 146.894 11.7305 146.98 11.0059H152.825V21ZM161.992 17.1992C161.992 17.8281 161.91 18.3864 161.746 18.874C161.582 19.3617 161.343 19.7741 161.028 20.1113C160.714 20.444 160.336 20.6992 159.894 20.877C159.451 21.0501 158.952 21.1367 158.396 21.1367C157.877 21.1367 157.401 21.0501 156.968 20.877C156.535 20.6992 156.159 20.444 155.84 20.1113C155.525 19.7741 155.282 19.3617 155.108 18.874C154.935 18.3864 154.849 17.8281 154.849 17.1992C154.849 16.3652 154.992 15.6589 155.279 15.0801C155.571 14.4967 155.986 14.0524 156.523 13.7471C157.061 13.4417 157.701 13.2891 158.444 13.2891C159.142 13.2891 159.757 13.4417 160.29 13.7471C160.823 14.0524 161.24 14.4967 161.541 15.0801C161.842 15.6634 161.992 16.3698 161.992 17.1992ZM156.503 17.1992C156.503 17.7507 156.569 18.2223 156.701 18.6143C156.838 19.0062 157.048 19.307 157.33 19.5166C157.613 19.7217 157.977 19.8242 158.424 19.8242C158.87 19.8242 159.235 19.7217 159.518 19.5166C159.8 19.307 160.007 19.0062 160.14 18.6143C160.272 18.2223 160.338 17.7507 160.338 17.1992C160.338 16.6478 160.272 16.1807 160.14 15.7979C160.007 15.4105 159.8 15.1165 159.518 14.916C159.235 14.7109 158.868 14.6084 158.417 14.6084C157.752 14.6084 157.266 14.8317 156.961 15.2783C156.656 15.7249 156.503 16.3652 156.503 17.1992ZM168.746 13.4326V14.6973H165.451V21H163.838V13.4326H168.746ZM171.815 13.4326V21H170.209V13.4326H171.815ZM171.022 10.5342C171.269 10.5342 171.48 10.6003 171.658 10.7324C171.84 10.8646 171.932 11.0924 171.932 11.416C171.932 11.735 171.84 11.9629 171.658 12.0996C171.48 12.2318 171.269 12.2979 171.022 12.2979C170.767 12.2979 170.551 12.2318 170.373 12.0996C170.2 11.9629 170.113 11.735 170.113 11.416C170.113 11.0924 170.2 10.8646 170.373 10.7324C170.551 10.6003 170.767 10.5342 171.022 10.5342ZM177.168 21.1367C176.452 21.1367 175.833 20.9977 175.309 20.7197C174.785 20.4417 174.381 20.0156 174.099 19.4414C173.816 18.8672 173.675 18.138 173.675 17.2539C173.675 16.3333 173.83 15.5814 174.14 14.998C174.45 14.4147 174.878 13.984 175.425 13.7061C175.976 13.4281 176.607 13.2891 177.318 13.2891C177.77 13.2891 178.177 13.3346 178.542 13.4258C178.911 13.5124 179.223 13.6195 179.479 13.7471L179 15.0322C178.722 14.9183 178.437 14.8226 178.146 14.7451C177.854 14.6676 177.574 14.6289 177.305 14.6289C176.863 14.6289 176.493 14.7269 176.197 14.9229C175.906 15.1188 175.687 15.4105 175.541 15.7979C175.4 16.1852 175.329 16.666 175.329 17.2402C175.329 17.7962 175.402 18.2656 175.548 18.6484C175.694 19.0267 175.91 19.3138 176.197 19.5098C176.484 19.7012 176.838 19.7969 177.257 19.7969C177.672 19.7969 178.043 19.7467 178.371 19.6465C178.699 19.5462 179.009 19.4163 179.301 19.2568V20.6514C179.014 20.8154 178.706 20.9362 178.378 21.0137C178.05 21.0957 177.646 21.1367 177.168 21.1367ZM186.793 14.6973H184.305V21H182.705V14.6973H180.23V13.4326H186.793V14.6973ZM189.801 13.4326V17.2949C189.801 17.418 189.796 17.5752 189.787 17.7666C189.783 17.9535 189.773 18.1494 189.76 18.3545C189.746 18.555 189.732 18.7396 189.719 18.9082C189.705 19.0768 189.694 19.2021 189.685 19.2842L193.492 13.4326H195.447V21H193.909V17.1787C193.909 16.9782 193.914 16.7458 193.923 16.4814C193.937 16.2171 193.95 15.9619 193.964 15.7158C193.982 15.4697 193.993 15.2829 193.998 15.1553L190.204 21H188.256V13.4326H189.801ZM199.166 13.4326V16.1738C199.166 16.5749 199.271 16.8734 199.48 17.0693C199.69 17.2653 199.991 17.3633 200.383 17.3633C200.82 17.3633 201.221 17.304 201.586 17.1855C201.955 17.0671 202.326 16.9076 202.7 16.707V13.4326H204.307V21H202.7V17.8008C202.322 18.0241 201.928 18.2109 201.518 18.3613C201.107 18.5117 200.627 18.5869 200.075 18.5869C199.291 18.5869 198.676 18.3841 198.229 17.9785C197.783 17.5729 197.56 16.9941 197.56 16.2422V13.4326H199.166ZM208.217 13.4326V16.4746H211.758V13.4326H213.371V21H211.758V17.7324H208.217V21H206.604V13.4326H208.217ZM217.213 13.4326V17.2949C217.213 17.418 217.208 17.5752 217.199 17.7666C217.195 17.9535 217.186 18.1494 217.172 18.3545C217.158 18.555 217.145 18.7396 217.131 18.9082C217.117 19.0768 217.106 19.2021 217.097 19.2842L220.904 13.4326H222.859V21H221.321V17.1787C221.321 16.9782 221.326 16.7458 221.335 16.4814C221.349 16.2171 221.362 15.9619 221.376 15.7158C221.394 15.4697 221.406 15.2829 221.41 15.1553L217.616 21H215.668V13.4326H217.213ZM226.715 13.4326V17.2949C226.715 17.418 226.71 17.5752 226.701 17.7666C226.697 17.9535 226.688 18.1494 226.674 18.3545C226.66 18.555 226.646 18.7396 226.633 18.9082C226.619 19.0768 226.608 19.2021 226.599 19.2842L230.406 13.4326H232.361V21H230.823V17.1787C230.823 16.9782 230.828 16.7458 230.837 16.4814C230.851 16.2171 230.864 15.9619 230.878 15.7158C230.896 15.4697 230.908 15.2829 230.912 15.1553L227.118 21H225.17V13.4326H226.715ZM231.794 10.2471C231.748 10.7165 231.621 11.1221 231.411 11.4639C231.206 11.8011 230.894 12.0609 230.475 12.2432C230.055 12.4255 229.504 12.5166 228.82 12.5166C228.114 12.5166 227.556 12.43 227.146 12.2568C226.735 12.0791 226.439 11.8216 226.257 11.4844C226.075 11.1426 225.965 10.7301 225.929 10.2471H227.392C227.437 10.7529 227.569 11.0947 227.788 11.2725C228.007 11.4456 228.36 11.5322 228.848 11.5322C229.267 11.5322 229.602 11.4388 229.853 11.252C230.108 11.0651 230.26 10.7301 230.311 10.2471H231.794Z" fill="#112B3C"/>
<path d="M145.312 40V30.0059H152.989V40H151.362V31.4004H146.953V40H145.312ZM162.17 36.1992C162.17 36.8281 162.088 37.3864 161.924 37.874C161.76 38.3617 161.521 38.7741 161.206 39.1113C160.892 39.444 160.513 39.6992 160.071 39.877C159.629 40.0501 159.13 40.1367 158.574 40.1367C158.055 40.1367 157.578 40.0501 157.146 39.877C156.713 39.6992 156.337 39.444 156.018 39.1113C155.703 38.7741 155.459 38.3617 155.286 37.874C155.113 37.3864 155.026 36.8281 155.026 36.1992C155.026 35.3652 155.17 34.6589 155.457 34.0801C155.749 33.4967 156.163 33.0524 156.701 32.7471C157.239 32.4417 157.879 32.2891 158.622 32.2891C159.319 32.2891 159.935 32.4417 160.468 32.7471C161.001 33.0524 161.418 33.4967 161.719 34.0801C162.02 34.6634 162.17 35.3698 162.17 36.1992ZM156.681 36.1992C156.681 36.7507 156.747 37.2223 156.879 37.6143C157.016 38.0062 157.225 38.307 157.508 38.5166C157.79 38.7217 158.155 38.8242 158.602 38.8242C159.048 38.8242 159.413 38.7217 159.695 38.5166C159.978 38.307 160.185 38.0062 160.317 37.6143C160.45 37.2223 160.516 36.7507 160.516 36.1992C160.516 35.6478 160.45 35.1807 160.317 34.7979C160.185 34.4105 159.978 34.1165 159.695 33.916C159.413 33.7109 159.046 33.6084 158.595 33.6084C157.929 33.6084 157.444 33.8317 157.139 34.2783C156.833 34.7249 156.681 35.3652 156.681 36.1992ZM172.786 32.4326V40H171.296V35.6797C171.296 35.3971 171.303 35.1146 171.316 34.832C171.33 34.5495 171.348 34.2806 171.371 34.0254H171.33L169.026 40H167.762L165.479 34.0186H165.431C165.453 34.2783 165.469 34.5472 165.479 34.8252C165.492 35.1032 165.499 35.404 165.499 35.7275V40H164.009V32.4326H166.251L168.411 38.0859L170.605 32.4326H172.786ZM176.669 32.4326V40H175.062V32.4326H176.669ZM175.876 29.5342C176.122 29.5342 176.334 29.6003 176.512 29.7324C176.694 29.8646 176.785 30.0924 176.785 30.416C176.785 30.735 176.694 30.9629 176.512 31.0996C176.334 31.2318 176.122 31.2979 175.876 31.2979C175.621 31.2979 175.404 31.2318 175.227 31.0996C175.053 30.9629 174.967 30.735 174.967 30.416C174.967 30.0924 175.053 29.8646 175.227 29.7324C175.404 29.6003 175.621 29.5342 175.876 29.5342ZM180.381 32.4326V35.1738C180.381 35.5749 180.486 35.8734 180.695 36.0693C180.905 36.2653 181.206 36.3633 181.598 36.3633C182.035 36.3633 182.436 36.304 182.801 36.1855C183.17 36.0671 183.541 35.9076 183.915 35.707V32.4326H185.521V40H183.915V36.8008C183.537 37.0241 183.143 37.2109 182.732 37.3613C182.322 37.5117 181.841 37.5869 181.29 37.5869C180.506 37.5869 179.891 37.3841 179.444 36.9785C178.998 36.5729 178.774 35.9941 178.774 35.2422V32.4326H180.381ZM189.432 32.4326V35.4746H192.973V32.4326H194.586V40H192.973V36.7324H189.432V40H187.818V32.4326H189.432ZM198.428 32.4326V36.2949C198.428 36.418 198.423 36.5752 198.414 36.7666C198.41 36.9535 198.4 37.1494 198.387 37.3545C198.373 37.555 198.359 37.7396 198.346 37.9082C198.332 38.0768 198.321 38.2021 198.312 38.2842L202.119 32.4326H204.074V40H202.536V36.1787C202.536 35.9782 202.541 35.7458 202.55 35.4814C202.563 35.2171 202.577 34.9619 202.591 34.7158C202.609 34.4697 202.62 34.2829 202.625 34.1553L198.831 40H196.883V32.4326H198.428ZM211.074 32.4326H212.845L209.714 36.0693L213.111 40H211.259L207.998 36.1582V40H206.385V32.4326H207.998V36.1035L211.074 32.4326Z" fill="#112B3C"/>
<path fill-rule="evenodd" clip-rule="evenodd" d="M12.5397 5.97332C5.84197 9.25602 0.280656 12.0031 0.181109 12.078C0.0168554 12.2014 0 13.4022 0 24.9942C0 37.039 0.0114253 37.7832 0.197964 37.928C0.596154 38.2371 24.769 50 25.0059 50C25.2446 50 49.4098 38.2365 49.802 37.9295C49.9886 37.7834 50 37.0386 50 24.9976C50 12.9566 49.9886 12.2118 49.802 12.0657C49.3764 11.7325 25.2344 -0.00450733 24.9838 1.29862e-06C24.8372 0.00256302 19.2373 2.69053 12.5397 5.97332ZM28.7917 3.08247C30.8795 4.10419 32.5697 4.95642 32.5476 4.9764C32.5257 4.99638 27.3696 7.5289 21.0898 10.6043C10.1831 15.9456 9.65848 16.19 9.37104 16.0625C8.11504 15.5056 2.16018 12.5318 2.18032 12.4716C2.1983 12.4183 24.7081 1.31775 24.9696 1.23332C24.984 1.2286 26.704 2.06075 28.7917 3.08247ZM37.4669 7.33165C38.2576 7.7199 38.8657 8.0725 38.8186 8.11523C38.6713 8.24864 16.1377 19.2593 16.0123 19.2591C15.8908 19.2589 11.3195 17.0494 11.1767 16.9219C11.1331 16.8831 16.2491 14.329 22.5455 11.2462L33.9932 5.64112L35.0113 6.13348C35.5713 6.40431 36.6762 6.9435 37.4669 7.33165ZM44.1653 10.6112C46.1922 11.6032 47.8498 12.4447 47.8488 12.4812C47.8455 12.5975 25.1069 23.6796 24.94 23.6462C24.6071 23.5796 17.4419 20.0248 17.5145 19.9622C17.5562 19.9261 19.2449 19.0872 21.267 18.0979C23.289 17.1085 28.3795 14.6149 32.5792 12.5564C36.7788 10.4978 40.2745 8.81222 40.3474 8.81058C40.4202 8.80884 42.1382 9.61916 44.1653 10.6112ZM6.3914 15.9652L8.88009 17.1907L8.93665 22.1033C8.99785 27.4151 8.99005 27.3544 9.60622 27.3544C9.77262 27.3544 10.5009 27.1742 11.2245 26.9539C12.4378 26.5847 12.5528 26.5668 12.6997 26.7234C12.7872 26.8168 13.4596 27.6695 14.1939 28.6182C14.9282 29.567 15.6472 30.3921 15.7915 30.4516C15.9954 30.5357 16.1181 30.522 16.3404 30.39L16.6267 30.2201L16.6561 25.6135L16.6855 21.0068L20.5033 22.8741L24.321 24.7414L24.3212 36.551C24.3213 43.0463 24.283 48.359 24.2364 48.357C24.1898 48.3552 19.0356 45.8463 12.7828 42.782L1.41403 37.2103L1.38529 25.3586L1.35656 13.5068L2.62964 14.1232C3.32986 14.4622 5.02262 15.291 6.3914 15.9652ZM48.5581 37.2029C48.455 37.2921 26.1424 48.2212 25.8701 48.3159C25.6909 48.3781 25.6788 47.6249 25.6807 36.5619L25.6825 24.7414L37.1343 19.1379L48.586 13.5344L48.6147 25.3317C48.6305 31.8203 48.6051 37.1623 48.5581 37.2029ZM12.8492 19.1235C14.1937 19.7813 15.3148 20.3695 15.3406 20.4304C15.3664 20.4912 15.3741 22.224 15.3578 24.2807L15.3281 28.0204L14.2842 26.6752C13.6764 25.8919 13.1426 25.3069 13.0064 25.2747C12.8777 25.2442 12.2557 25.3769 11.6242 25.5696C10.9926 25.7622 10.435 25.9198 10.3851 25.9198C10.3351 25.9198 10.2941 24.1215 10.2941 21.9235C10.2941 19.7256 10.319 17.9272 10.3494 17.9272C10.3799 17.9272 11.5049 18.4655 12.8492 19.1235ZM2.7526 33.7705C2.58066 34.0082 2.57715 34.0672 2.72161 34.2925C2.92217 34.6052 11.4442 38.8204 11.8886 38.8267C12.2064 38.8312 12.5566 38.5532 12.5566 38.2962C12.5566 38.2083 12.4675 38.0421 12.3586 37.9269C12.0688 37.6203 3.57828 33.5025 3.23597 33.5025C3.04853 33.5025 2.87805 33.597 2.7526 33.7705ZM2.76844 35.7599C2.60373 35.9248 2.58303 36.0259 2.66866 36.2466C2.75407 36.4666 3.13394 36.7024 4.47104 37.3652C5.40283 37.8271 6.27602 38.2076 6.41165 38.2105C6.75249 38.2182 7.01357 37.9513 7.01357 37.5952C7.01357 37.248 6.86697 37.1521 4.85362 36.1831C3.44615 35.5057 3.09389 35.4342 2.76844 35.7599Z" fill="#112B3C"/>
</svg>
