<svg width="113" height="113" viewBox="0 0 113 113" fill="none" xmlns="http://www.w3.org/2000/svg">
<path d="M50.6293 4.30371C41.6908 6.2459 32.7744 16.5748 29.9715 28.25C29.5963 29.817 29.4859 31.1633 29.3756 36.3719L29.2432 42.6398L21.8055 46.9436L14.3457 51.2473V75.4363C14.3457 88.7668 14.434 99.7578 14.5223 99.8902C14.765 100.265 29.9494 109.027 30.3467 109.027C30.5453 109.027 37.4754 106.379 45.7518 103.135L60.8037 97.2639L71.0664 88.524L81.3291 79.7842L81.3953 55.4627L81.4395 31.1412L80.8436 30.7219C80.4904 30.5012 77.0695 28.4928 73.2293 26.2416L66.2109 22.1807V20.3047C66.1889 14.0809 64.9529 10.2186 62.0176 7.26113C60.4727 5.71621 58.9939 4.85547 56.8311 4.30371C55.2641 3.90644 52.4832 3.90644 50.6293 4.30371ZM55.6393 5.95898C58.7291 6.55488 61.3113 8.56328 62.7459 11.4766C64.1584 14.3236 64.2246 14.9416 64.2246 26.9699V37.7402L63.6287 37.8947C62.8121 38.1154 60.3402 38.1154 59.325 37.8947L58.5084 37.7182L58.4422 26.8596C58.3539 16.2658 58.3539 15.9789 57.8684 14.765C57.0518 12.6904 55.6834 11.6973 53.6529 11.6973C51.0045 11.6973 47.7602 13.5732 44.5379 16.9721C41.426 20.2826 38.932 24.6305 37.6961 29.0225C37.2326 30.7219 37.2105 31.1633 37.1223 42.0881C37.0561 52.4391 37.0119 53.3881 36.6809 53.5205C35.8643 53.8295 33.3482 53.8957 32.2447 53.6309L31.0971 53.366L31.1854 42.066C31.2516 32.333 31.3178 30.5674 31.6488 29.1328C33.9441 19.2895 40.8301 10.1965 48.4002 6.99628C51.1148 5.8707 53.3881 5.53965 55.6393 5.95898ZM55.4406 14.3236C56.3896 15.383 56.5221 16.2879 56.4559 21.8496L56.3896 26.9699L47.6719 32.002L38.9541 37.034L38.8879 35.3346C38.6451 29.5742 41.3598 22.9973 45.9945 18.1418C49.8789 14.0809 53.8074 12.4918 55.4406 14.3236ZM72.5451 28.0514C75.9219 30.0156 78.7027 31.6488 78.7469 31.6709C78.791 31.715 74.5094 35.4008 69.2346 39.9031L59.6561 48.0471L45.2221 53.6971C37.2768 56.809 30.6777 59.3691 30.5232 59.4133C30.2584 59.4795 17.2369 52.0859 17.2148 51.8652C17.2148 51.799 19.9295 50.1879 23.24 48.2898L29.2432 44.8248L29.3094 45.8621C29.3756 46.6566 29.2873 46.9436 29.0004 47.1201C28.2279 47.5836 27.1023 48.643 26.7934 49.2389C26.352 50.1217 26.3961 51.8432 26.9037 52.6598C27.4775 53.6088 28.6252 54.4475 30.148 55.0213C31.2295 55.4186 31.9137 55.5068 34.209 55.5068C37.5857 55.5068 39.0203 55.0434 40.6535 53.4322C41.757 52.3287 42.0881 51.3576 41.8453 49.9672C41.6688 49.0623 40.4328 47.6277 39.5059 47.2305L38.8438 46.9436L38.8879 43.0812L38.9541 39.2189L46.458 34.8932C50.5852 32.5096 54.5357 30.2143 55.242 29.817L56.5 29.1107V30.1922C56.5 31.2074 56.4559 31.3178 55.6172 31.8916C54.3813 32.7303 53.8074 33.7676 53.8074 35.0697C53.8074 36.4602 54.293 37.365 55.573 38.2699C56.9193 39.2631 58.4201 39.7486 60.6271 39.8811C64.6881 40.168 68.0648 38.6893 68.9918 36.2615C69.6539 34.54 68.9697 32.8848 67.0717 31.6268L66.2109 31.0529V27.7865C66.2109 25.9768 66.2551 24.498 66.2992 24.498C66.3654 24.498 69.1684 26.1092 72.5451 28.0514ZM67.3145 35.0477C67.3145 35.6877 66.7848 36.6367 66.4096 36.6367C66.2992 36.6367 66.2109 35.8643 66.2109 34.9152L66.233 33.2158L66.7627 33.8338C67.0717 34.1648 67.3145 34.7166 67.3145 35.0477ZM79.6738 56.1248V78.7027L69.7201 87.1557L59.7664 95.6307L45.5973 101.17L31.4502 106.732L31.3178 96.4473C31.2516 90.7973 31.1633 80.5787 31.1633 73.7148L31.1191 61.2451L45.9725 55.4406L60.8037 49.6141L70.1836 41.6025C75.348 37.1885 79.5855 33.5689 79.6297 33.5689C79.6518 33.5469 79.6738 43.6992 79.6738 56.1248ZM56.3896 36.3719C56.191 36.5705 55.6393 35.6656 55.6172 35.1139C55.6172 34.8049 55.7938 34.3855 56.0145 34.1428C56.3676 33.7234 56.3896 33.7676 56.4559 34.9814C56.5 35.6656 56.4779 36.3057 56.3896 36.3719ZM29.2432 52.2846C29.0225 52.4832 28.25 51.3797 28.25 50.85C28.25 50.5852 28.4707 50.0996 28.7576 49.7465L29.2432 49.1064L29.3094 50.6293C29.3535 51.468 29.3094 52.1963 29.2432 52.2846ZM39.7266 49.923C40.2342 50.7617 40.1459 51.2914 39.3734 52.0859L38.8438 52.6377V50.9162C38.8438 49.0402 39.0424 48.8195 39.7266 49.923ZM22.8648 57.4049L29.3535 61.1789V83.7789C29.3535 96.2045 29.3094 106.379 29.2873 106.379C29.2432 106.379 26.3299 104.702 22.8207 102.671L16.4424 98.9633L16.31 96.4252C16.1334 93.2691 16.0672 53.6309 16.2437 53.6309C16.31 53.6309 19.2895 55.3303 22.8648 57.4049Z" fill="#112B3C"/>
<path d="M62.5032 58.8411C58.5967 59.9888 54.7565 62.4386 50.9604 66.2126C48.312 68.839 45.6194 72.2378 44.251 74.7097C43.5889 75.9015 43.5006 76.1884 43.6993 76.5856C43.8758 76.9167 44.1186 77.0271 44.5159 76.9829C44.9573 76.9388 45.3325 76.5194 46.2153 75.1069C50.3866 68.3755 56.4559 63.0124 62.3266 60.8274C63.9157 60.2315 64.4012 60.1653 66.6524 60.1653C68.9698 60.1433 69.3008 60.1874 70.4706 60.7392C71.9934 61.4454 72.6776 61.313 72.5672 60.2978C72.3465 58.4659 66.5862 57.6273 62.5032 58.8411Z" fill="#112B3C"/>
<path d="M61.6204 65.6365C59.9872 66.0559 57.1181 67.5346 55.3745 68.8588C53.2778 70.4258 50.5632 73.3832 48.8858 75.8992C47.4071 78.1283 47.2526 78.5035 47.7161 78.967C48.4003 79.6512 48.93 79.276 50.4528 76.9586C52.1522 74.3984 55.22 71.1983 57.3608 69.7637C59.7444 68.1305 62.5253 67.0932 64.4454 67.0932C64.7985 67.0932 65.7475 67.3139 66.5641 67.5787C68.1974 68.1084 68.7491 67.976 68.7491 67.0711C68.7491 66.6518 68.5063 66.4311 67.6677 65.9897C66.3214 65.3496 63.4522 65.1731 61.6204 65.6365Z" fill="#112B3C"/>
<path d="M60.1637 72.635C57.8021 73.1867 54.5357 75.7469 52.5053 78.6602C51.3797 80.2272 51.2252 80.7127 51.6887 81.1762C52.3066 81.7942 52.8805 81.4631 53.9398 79.8961C56.1248 76.718 59.3691 74.3785 61.6424 74.3785C62.2603 74.3785 63.099 74.4889 63.4963 74.6434C64.1142 74.8641 64.2908 74.8641 64.5777 74.5551C64.8205 74.3123 64.8867 74.0033 64.7984 73.6281C64.5556 72.657 62.1941 72.1494 60.1637 72.635Z" fill="#112B3C"/>
<path d="M57.4711 80.2469C56.0365 81.196 55.1537 82.5643 54.7344 84.4182C54.4475 85.7204 54.624 86.7797 55.2861 87.486C56.3455 88.6337 57.9125 88.5012 59.4574 87.1329C61.7527 85.1245 62.5031 81.7477 60.9803 80.2469C60.1857 79.4524 58.6629 79.4524 57.4711 80.2469ZM59.7885 81.836C60.2961 82.785 59.1043 85.2569 57.7801 86.0735C55.86 87.2432 56.1689 83.8665 58.1332 82.145C59.0602 81.3504 59.4795 81.2622 59.7885 81.836Z" fill="#112B3C"/>
<path d="M18.1417 84.5726C17.8548 84.8596 17.7665 87.9494 18.0093 88.5894C18.1638 89.0088 18.7818 89.0529 19.157 88.6777C19.488 88.3467 19.5101 85.323 19.2011 84.7271C18.9363 84.2416 18.539 84.1754 18.1417 84.5726Z" fill="#112B3C"/>
<path d="M18.1198 91.9024C17.9433 92.101 17.8771 93.0721 17.9212 94.8157L17.9874 97.42L20.7462 99.0311C23.6374 100.731 24.5423 100.973 24.6747 100.068C24.7189 99.6932 24.2775 99.3401 22.0925 98.0821L19.422 96.5592V94.3301C19.422 92.1672 19.2675 91.5934 18.6275 91.5934C18.495 91.5934 18.2523 91.7258 18.1198 91.9024Z" fill="#112B3C"/>
<path d="M93.0264 12.9111C90.8414 14.1912 88.833 15.4713 88.5682 15.7803C88.0826 16.3541 88.0605 16.4865 88.0605 21.6289C88.0605 26.6168 88.0826 26.9258 88.4799 27.1465C88.7227 27.2568 89.0758 27.3672 89.2744 27.3672C89.8262 27.3672 97.3521 22.9752 98.0584 22.2689L98.6543 21.6289V16.4645C98.6543 10.8807 98.5881 10.5938 97.4846 10.5938C97.2197 10.5938 95.2113 11.6311 93.0264 12.9111ZM96.8445 21.3199C96.5576 21.5848 94.7699 22.6883 92.8719 23.7918L89.3848 25.8002V21.4523C89.3848 19.0687 89.473 16.9941 89.5613 16.8396C89.6496 16.6852 91.4152 15.6037 93.4678 14.3898L97.2197 12.227L97.2859 16.5307C97.3301 20.7682 97.3301 20.8564 96.8445 21.3199Z" fill="#112B3C"/>
<path d="M93.578 26.7062C93.0483 27.6772 94.4167 28.538 95.1229 27.6993C95.3437 27.4345 95.3437 27.2358 95.1671 26.8165C94.8581 26.1323 93.9311 26.0661 93.578 26.7062Z" fill="#112B3C"/>
<path d="M93.7326 29.7288C93.6443 29.795 93.5781 30.1481 93.5781 30.4792C93.5781 30.9647 93.7105 31.1413 94.1299 31.2517C95.0789 31.4944 95.741 30.5013 95.0789 29.8392C94.792 29.5522 93.9754 29.486 93.7326 29.7288Z" fill="#112B3C"/>
<path d="M93.843 32.9299C93.1588 33.6141 93.9092 34.85 94.7699 34.519C95.3437 34.2982 95.4762 33.3051 95.0127 32.952C94.5051 32.5988 94.1961 32.5768 93.843 32.9299Z" fill="#112B3C"/>
<path d="M93.843 36.1723C93.6665 36.2605 93.5782 36.6357 93.6223 36.9889C93.6665 37.5406 93.7768 37.6289 94.3286 37.6289C95.1231 37.6289 95.5645 37.033 95.2114 36.4592C94.9245 36.0398 94.2624 35.8854 93.843 36.1723Z" fill="#112B3C"/>
<path d="M93.6665 39.5957C93.4679 40.1033 93.6444 40.6551 94.0858 40.9199C94.6376 41.273 95.2335 40.8316 95.2335 40.0371C95.2335 39.4853 95.1452 39.3971 94.5052 39.3308C94.0196 39.2867 93.7548 39.375 93.6665 39.5957Z" fill="#112B3C"/>
<path d="M93.7989 42.685C93.6665 42.8615 93.5782 43.2367 93.6223 43.5236C93.6665 43.943 93.821 44.0312 94.461 44.0312C95.101 44.0312 95.2555 43.943 95.2997 43.5236C95.3879 42.9057 94.9907 42.376 94.461 42.376C94.2403 42.376 93.9534 42.5305 93.7989 42.685Z" fill="#112B3C"/>
<path d="M93.8431 45.9488C93.203 46.5889 93.7769 47.5379 94.7259 47.4055C95.1452 47.3613 95.2335 47.2068 95.2335 46.5668C95.2335 45.9047 95.1452 45.7943 94.6818 45.7281C94.3728 45.684 93.9976 45.7943 93.8431 45.9488Z" fill="#112B3C"/>
<path d="M90.8857 47.7838C90.7091 48.2031 90.7091 48.4017 90.9298 48.6666C91.3271 49.13 92.1878 49.0859 92.4747 48.5783C92.7616 48.0265 92.7616 47.9824 92.3423 47.5851C91.8347 47.0554 91.1726 47.1437 90.8857 47.7838Z" fill="#112B3C"/>
<path d="M88.4579 49.0166C87.9724 49.2814 87.9503 50.1642 88.3917 50.5394C88.6565 50.7601 88.8552 50.7601 89.2745 50.5836C89.9587 50.2746 90.0249 49.3476 89.4069 48.9945C88.8993 48.7297 88.9214 48.7297 88.4579 49.0166Z" fill="#112B3C"/>
<path d="M85.2797 51.0942C85.1915 51.4914 85.2356 51.8004 85.4784 52.0211C85.6991 52.2639 86.0081 52.308 86.4053 52.2198C86.8909 52.0873 86.9792 51.977 86.9129 51.359C86.8467 50.7411 86.7585 50.6528 86.1405 50.5866C85.5225 50.5204 85.4122 50.6086 85.2797 51.0942Z" fill="#112B3C"/>
<path d="M82.4988 52.6377C82.1898 53.3219 82.565 53.8516 83.3595 53.8516C83.9775 53.8516 84.3748 53.0791 84.0437 52.4611C83.7568 51.8873 82.8078 51.9756 82.4988 52.6377Z" fill="#112B3C"/>
</svg>
