<svg width="23" height="23" viewBox="0 0 23 23" fill="none" xmlns="http://www.w3.org/2000/svg">
<g clip-path="url(#clip0_626_3)">
<path d="M9.52339 0.768162C8.29253 0.907419 6.85952 1.35215 5.74995 1.94062C2.59194 3.60723 0.426709 6.77871 0.0493652 10.2961C-0.0135254 10.8576 -0.0135254 12.1424 0.0493652 12.7039C0.547998 17.3129 4.04292 21.1492 8.59351 22.0746C9.36167 22.2318 9.89175 22.2812 10.7812 22.2812C12.066 22.2812 13.0273 22.1285 14.1953 21.7467C15.6238 21.275 16.8501 20.5562 18.0451 19.5006C18.6335 18.975 18.7503 18.692 18.5437 18.2832C18.4224 18.0496 18.2742 17.9328 18.0496 17.8969C17.7261 17.843 17.5869 17.9059 17.1017 18.3326C16.0281 19.285 15.0443 19.8734 13.8179 20.3002C12.2097 20.8617 10.332 20.9605 8.6564 20.5697C4.94585 19.7027 2.09331 16.5582 1.54976 12.7488C1.4644 12.1469 1.4644 10.8531 1.54976 10.2512C1.74741 8.87207 2.25054 7.5334 3.00522 6.40137C4.51011 4.1373 6.85952 2.65039 9.53237 2.26855C10.1433 2.1832 11.3607 2.1832 12.0031 2.27304C13.0273 2.4123 13.8449 2.65937 14.8017 3.11758C16.2841 3.83183 17.497 4.87402 18.4808 6.28008C18.966 6.97637 19.5769 8.30156 19.7656 9.07422C19.7925 9.18652 19.8285 9.3168 19.8419 9.36621C19.8554 9.41562 19.532 9.12812 19.1277 8.73281C18.7279 8.33301 18.3505 7.98262 18.2966 7.95566C18.2427 7.92871 18.09 7.90625 17.9597 7.90625C17.524 7.90625 17.25 8.18027 17.25 8.61601C17.25 8.74629 17.2769 8.90801 17.3128 8.97539C17.3847 9.10566 20.3001 12.0256 20.4843 12.1469C20.7044 12.2906 21.239 12.1963 21.4232 11.9762C21.4546 11.9402 21.8185 11.0553 22.2408 10.0086C22.8697 8.43184 23 8.07246 23 7.88379C23 7.46152 22.7214 7.1875 22.2902 7.1875C21.8455 7.1875 21.7197 7.30879 21.4232 8.05449L21.1896 8.63848L21.0458 8.19375C20.5427 6.62598 19.7207 5.25137 18.5886 4.06094C16.8277 2.22363 14.6894 1.14101 12.1109 0.786131C11.5763 0.714256 10.1074 0.700779 9.52339 0.768162Z" fill="white"/>
<path d="M10.0715 5.09863C9.93672 5.13008 9.6582 5.24238 9.44258 5.3457C8.89004 5.61973 8.48125 6.0375 8.20723 6.60801C8.09492 6.8416 7.98262 7.13809 7.95566 7.26836C7.92871 7.39863 7.90625 7.91973 7.90625 8.42285V9.34375H7.42559C6.87754 9.34375 6.72031 9.40215 6.55859 9.66719C6.47324 9.81094 6.46875 9.90078 6.46875 12.9375C6.46875 15.9742 6.47324 16.0641 6.55859 16.2078C6.60801 16.2887 6.71133 16.392 6.79219 16.4414C6.93594 16.5268 7.02578 16.5312 10.7812 16.5312C14.5367 16.5312 14.6266 16.5268 14.7703 16.4414C14.8512 16.392 14.9545 16.2887 15.0039 16.2078C15.0893 16.0641 15.0938 15.9742 15.0938 12.9375C15.0938 9.90078 15.0893 9.81094 15.0039 9.66719C14.8422 9.40215 14.685 9.34375 14.1414 9.34375H13.6562V8.42285C13.6562 7.91973 13.6338 7.39863 13.6068 7.26836C13.5799 7.13809 13.4676 6.8416 13.3598 6.6125C13.0812 6.02851 12.659 5.60625 12.075 5.32773C11.8459 5.21992 11.5494 5.10762 11.4191 5.08066C11.1047 5.01328 10.368 5.02226 10.0715 5.09863ZM11.2979 6.60801C11.6258 6.7293 11.9582 7.06621 12.084 7.39414C12.1604 7.60977 12.1738 7.74453 12.1738 8.49023V9.34375H10.7543H9.33477L9.35273 8.49922C9.3707 7.76699 9.38867 7.62773 9.47402 7.39863C9.75254 6.68887 10.5656 6.33398 11.2979 6.60801ZM13.6113 12.9375V15.0937H10.7588H7.90625V12.9375V10.7812H10.7588H13.6113V12.9375Z" fill="white"/>
</g>
<defs>
<clipPath id="clip0_626_3">
<rect width="23" height="23" fill="white"/>
</clipPath>
</defs>
</svg>
