<svg width="21" height="29" viewBox="0 0 21 29" fill="none" xmlns="http://www.w3.org/2000/svg">
<g clip-path="url(#clip0_226_1033)">
<path d="M9.11156 0.717175C8.48542 0.798357 7.63606 0.987785 7.01537 1.18804C6.24767 1.437 4.98451 2.07023 4.32027 2.53568C3.71047 2.96865 2.67598 3.96991 2.21319 4.58149C0.0843324 7.39043 -0.307682 10.7298 1.02626 14.7565C2.24041 18.4368 4.79395 22.4689 8.95911 27.2857C9.81391 28.2762 9.9337 28.3682 10.3584 28.3682C10.892 28.3682 11.235 28.0218 11.235 27.4751C11.235 27.145 11.1533 27.0043 10.5925 26.3494C7.3856 22.6312 4.94096 19.097 3.64513 16.3098C1.47272 11.6444 1.60883 8.0399 4.06981 5.2472C6.47635 2.50862 10.794 1.67514 14.2132 3.28798C16.4999 4.36501 18.264 6.62731 18.8139 9.17105C18.9664 9.88546 18.9773 11.2872 18.8357 12.0991C18.6234 13.3439 18.1932 14.6211 17.5126 16.0283C16.5326 18.0633 15.2912 19.9035 12.656 23.2482C12.0462 24.0167 11.5181 24.7312 11.4745 24.8286C11.1969 25.4889 11.774 26.187 12.4927 26.068C12.6125 26.0463 12.7812 25.9706 12.8738 25.8948C13.0426 25.7541 14.8829 23.4322 15.8738 22.1116C18.7214 18.3123 20.2295 15.2219 20.6869 12.2398C20.8012 11.4983 20.8175 10.0045 20.7141 9.32259C20.4201 7.33631 19.4509 5.35003 18.0353 3.83461C16.4509 2.13517 14.3765 1.06897 12.0027 0.744236C11.3493 0.652227 9.73769 0.635992 9.11156 0.717175Z" fill="#112B3C"/>
<path d="M9.7649 7.11979C8.45818 7.39581 7.46726 8.18058 6.9119 9.38209C6.11154 11.1032 6.71589 13.241 8.2894 14.2639C10.5925 15.7577 13.6034 14.659 14.3493 12.0503C14.5181 11.4441 14.5181 10.5457 14.3493 9.93955C13.9736 8.62979 12.9119 7.569 11.6161 7.20638C11.0879 7.06025 10.2386 7.02237 9.7649 7.11979ZM11.3057 9.04654C11.9428 9.28467 12.4709 9.94496 12.607 10.6594C12.7758 11.5524 12.264 12.5049 11.3983 12.9109C11.0825 13.0624 10.9899 13.0786 10.5271 13.0786C10.0589 13.0786 9.97724 13.0624 9.64511 12.9054C9.18232 12.689 8.82297 12.3317 8.60519 11.8717C8.44729 11.5416 8.43096 11.4604 8.43096 10.9949C8.43096 10.5349 8.44729 10.4429 8.59974 10.129C9.08976 9.10066 10.2386 8.64062 11.3057 9.04654Z" fill="#112B3C"/>
</g>
<defs>
<clipPath id="clip0_226_1033">
<rect width="20.5263" height="27.7105" fill="white" transform="translate(0.236816 0.657715)"/>
</clipPath>
</defs>
</svg>
