<svg width="100" height="100" viewBox="0 0 100 100" fill="none" xmlns="http://www.w3.org/2000/svg">
<g clip-path="url(#clip0_1076_175)">
<path d="M48.5469 0.0546875C47.3047 0.453125 46.25 1.29688 45.5938 2.375L44.9609 3.47656V12.5V21.5234L45.6172 22.625C46.5547 24.2422 48.0078 25.0391 50 25.0391C51.6641 25.0156 52.5312 24.6875 53.6094 23.6094C55.0625 22.1328 55.0391 22.3906 55.0391 12.5V3.47656L54.3828 2.375C53.5625 0.96875 52.1094 0.078125 50.4219 -0.0390625C49.7422 -0.109375 48.8984 -0.0390625 48.5469 0.0546875Z" fill="#112B3C"/>
<path d="M15.523 13.5078C13.9761 14.3281 13.1324 15.6875 13.0152 17.5156C12.8511 20.1172 12.9214 20.2109 19.3667 26.75C25.7417 33.1719 26.6324 33.8281 28.7183 33.8281C32.6089 33.8281 34.9761 29.9141 33.2417 26.4219C32.4917 24.9219 21.4527 13.8594 20.1636 13.3203C18.8511 12.7812 16.7652 12.8516 15.523 13.5078Z" fill="#112B3C"/>
<path d="M79.7653 13.3438C78.5231 13.8828 67.4606 24.9922 66.7575 26.4219C65.0231 29.8906 67.3903 33.8047 71.234 33.8281C73.3903 33.8281 74.2106 33.2188 80.6325 26.75C87.0778 20.2109 87.1481 20.1172 86.984 17.5156C86.82 14.75 84.8512 12.9688 82.0153 12.9688C81.2184 12.9922 80.2106 13.1562 79.7653 13.3438Z" fill="#112B3C"/>
<path d="M3.54688 45.0781C2.32812 45.4531 1.25 46.2969 0.59375 47.375C0.078125 48.2656 -0.0390625 48.7578 -0.0390625 50C-0.0390625 51.9922 0.757812 53.4453 2.375 54.3828L3.47656 55.039H12.5C22.3906 55.039 22.1328 55.0625 23.6094 53.6094C24.6875 52.5312 25.0156 51.664 25.0391 50C25.0391 48.0078 24.2422 46.5547 22.625 45.6172L21.5234 44.9609L12.8516 44.914C8.09375 44.8906 3.89844 44.9609 3.54688 45.0781Z" fill="#112B3C"/>
<path d="M78.5469 45.0781C77.3281 45.4531 76.25 46.2969 75.5938 47.375C75.0781 48.2656 74.9609 48.7578 74.9609 50C74.9609 51.9922 75.7578 53.4453 77.375 54.3828L78.4766 55.039H87.5C97.3906 55.039 97.1328 55.0625 98.6094 53.6094C99.6875 52.5312 100.016 51.664 100.039 50C100.039 48.0078 99.2422 46.5547 97.625 45.6172L96.5234 44.9609L87.8516 44.914C83.0938 44.8906 78.8984 44.9609 78.5469 45.0781Z" fill="#112B3C"/>
<path d="M26.4214 66.7574C25.5777 67.1793 23.6558 68.9371 19.3667 73.2496C12.9214 79.7886 12.8511 79.8824 13.0152 82.484C13.1324 84.3121 13.9761 85.6715 15.523 86.4918C16.7886 87.148 18.9214 87.2183 20.187 86.6324C21.523 86.023 32.5386 75.0074 33.2417 73.5777C35.4917 69.0777 30.898 64.5308 26.4214 66.7574Z" fill="#112B3C"/>
<path d="M69.1007 66.6169C66.4757 67.8356 65.421 70.9059 66.757 73.5778C67.507 75.0778 78.546 86.1403 79.8351 86.6794C81.1476 87.2184 83.2335 87.1481 84.4757 86.4919C86.0226 85.6715 86.8663 84.3122 86.9835 82.484C87.1476 79.8825 87.0773 79.7887 80.632 73.2497C74.2101 66.7809 73.3898 66.1715 71.2335 66.1715C70.5773 66.1715 69.6163 66.3825 69.1007 66.6169Z" fill="#112B3C"/>
<path d="M48.5469 75.0547C47.3047 75.4531 46.25 76.2969 45.5938 77.375L44.9609 78.4766V87.5V96.5234L45.6172 97.625C46.5547 99.2422 48.0078 100.039 50 100.039C51.6641 100.016 52.5312 99.6875 53.6094 98.6094C55.0625 97.1328 55.0391 97.3906 55.0391 87.5V78.4766L54.3828 77.375C53.5625 75.9688 52.1094 75.0781 50.4219 74.9609C49.7422 74.8906 48.8984 74.9609 48.5469 75.0547Z" fill="#112B3C"/>
</g>
<defs>
<clipPath id="clip0_1076_175">
<rect width="100" height="100" fill="white"/>
</clipPath>
</defs>
</svg>
