<svg width="33" height="33" viewBox="0 0 33 33" fill="none" xmlns="http://www.w3.org/2000/svg">
<path d="M16.1648 2.77148C14.3021 3.00352 12.5941 3.84141 11.1182 5.23359C10.0934 6.20684 9.19746 7.37988 8.58516 8.55293C8.28223 9.13301 8.25 9.3457 8.44336 9.53906C8.56582 9.66152 8.65605 9.66797 9.8291 9.66797C11.2986 9.66797 11.1117 9.75176 11.7949 8.76562C12.3621 7.94707 13.2902 7.01895 14.0443 6.52266C15.0949 5.83301 16.0746 5.54297 17.3701 5.53652C18.5238 5.53008 19.2586 5.81367 20.0578 6.56133C20.4832 6.96094 20.4896 6.97383 20.6186 7.53457C20.8635 8.57871 20.7604 9.68086 20.335 10.6283C20.2447 10.8281 19.9611 11.2986 19.7098 11.6789L19.2457 12.375H12.4652C5.9877 12.375 5.68477 12.3814 5.58809 12.491C5.49141 12.5941 5.47852 12.7811 5.47852 13.7736C5.47852 14.8113 5.49141 14.9467 5.59453 15.0369C5.7041 15.1336 6.20039 15.1465 11.1246 15.1594L16.5322 15.1787L16.1777 15.443C15.9844 15.5848 15.3721 16.023 14.8242 16.4033C14.2764 16.79 13.5996 17.2734 13.3289 17.4797L12.8326 17.8535H9.26191C5.88457 17.8535 5.68477 17.86 5.58809 17.9695C5.49141 18.0727 5.47852 18.2596 5.47852 19.2521C5.47852 20.2963 5.49141 20.4252 5.59453 20.5154C5.7041 20.6121 5.96836 20.625 8.07598 20.625H10.4414L10.2158 21.0246C9.2877 22.7197 9.16523 25.1174 9.9 26.9994C10.3125 28.0371 11.4211 29.107 12.723 29.7129C13.6963 30.1705 14.1668 30.2607 15.5977 30.2607C16.9898 30.2543 17.5764 30.1705 18.5625 29.8225C20.8764 29.0168 23.0098 27.0574 24.3891 24.4922C24.7113 23.8863 24.75 23.6543 24.5566 23.4609C24.4342 23.3385 24.3439 23.332 23.1709 23.332C21.7014 23.332 21.8883 23.2482 21.2051 24.2344C20.6379 25.0529 19.7098 25.9811 18.9557 26.4773C17.8986 27.167 16.9254 27.457 15.6299 27.4635C14.4697 27.4635 13.7414 27.1863 12.9422 26.4387C12.5168 26.0391 12.5104 26.0262 12.3814 25.4654C12.1236 24.3762 12.2396 23.2805 12.723 22.2686C12.9551 21.7787 13.6641 20.7926 13.8574 20.6895C13.9348 20.6508 16.3582 20.625 20.6443 20.625C27.0187 20.625 27.3152 20.6186 27.4119 20.509C27.5086 20.4059 27.5215 20.2189 27.5215 19.2264C27.5215 18.1887 27.5086 18.0533 27.4055 17.9631C27.2959 17.8664 26.8447 17.8535 22.507 17.8406L17.7246 17.8213L18.324 17.3701C18.6463 17.1188 19.3166 16.5193 19.8064 16.0295L20.7023 15.1465H24.0023C27.1219 15.1465 27.3152 15.14 27.4119 15.0305C27.5086 14.9273 27.5215 14.7404 27.5215 13.7479C27.5215 12.7037 27.5086 12.5748 27.4055 12.4846C27.2959 12.3879 27.0316 12.375 24.9305 12.375H22.5779L22.8551 11.8078C23.7252 10.0289 23.8219 7.8375 23.1 6.00059C22.6875 4.96289 21.5789 3.89297 20.277 3.28066C19.3939 2.86816 18.8719 2.75859 17.6602 2.73926C17.0736 2.72637 16.4033 2.73926 16.1648 2.77148Z" fill="#5BB318"/>
</svg>
