<svg width="25" height="25" viewBox="0 0 25 25" fill="none" xmlns="http://www.w3.org/2000/svg">
<g clip-path="url(#clip0_698_806)">
<path d="M8.13965 0.0732479C7.33398 0.292974 6.59668 1.00098 6.36719 1.7627L6.2793 2.05079H5.43457C4.27246 2.05079 4.15039 2.11914 4.15039 2.76856V3.125H3.16406C2.49512 3.125 2.09473 3.14942 1.92871 3.19336C1.04004 3.42774 0.302734 4.16504 0.0683594 5.05371C-0.0292969 5.41504 -0.0292969 19.585 0.0683594 19.9463C0.244141 20.6201 0.800781 21.3184 1.3916 21.6016C1.96777 21.8799 1.84082 21.875 6.15723 21.875H10.1367L10.2734 21.7383C10.4395 21.5576 10.4834 21.3037 10.3809 21.1035C10.2197 20.7861 10.4053 20.8008 6.18164 20.8008C2.37793 20.8008 2.34375 20.8008 2.06543 20.6934C1.68945 20.5518 1.32324 20.1855 1.18164 19.8096L1.07422 19.5264V12.5V5.47364L1.18164 5.19043C1.32324 4.81446 1.68945 4.44825 2.06543 4.30664C2.31445 4.20899 2.44629 4.19922 3.24219 4.19922H4.14062L4.16016 4.67286C4.18457 5.24903 4.30664 5.53223 4.67773 5.86426C5.12695 6.26953 4.94629 6.25 8.83789 6.25C10.9375 6.25 12.3486 6.23047 12.4512 6.20117C13.125 6.01563 13.5742 5.3418 13.5742 4.52637V4.19922H14.4678C15.4834 4.19922 15.6445 4.2334 16.04 4.53125C16.2158 4.66309 16.333 4.80469 16.4551 5.04883L16.626 5.38575L16.6504 8.78418C16.6748 12.3535 16.6748 12.334 16.8945 12.4512C17.0117 12.5147 17.3633 12.5147 17.4854 12.4512C17.7246 12.3193 17.7246 12.3535 17.7246 8.76953C17.7246 6.54297 17.7051 5.33692 17.6709 5.16602C17.5293 4.48243 16.9873 3.75489 16.3818 3.43262C15.8545 3.15918 15.6592 3.125 14.5654 3.125H13.5742V2.80762C13.5742 2.61719 13.5449 2.42676 13.501 2.34375C13.3643 2.08496 13.2324 2.05079 12.2852 2.05079H11.4307L11.3721 1.84083C11.1621 1.04981 10.4248 0.327154 9.5752 0.0781307C9.25293 -0.0146427 8.47656 -0.0195255 8.13965 0.0732479ZM9.33105 1.14747C9.8584 1.32813 10.3027 1.875 10.376 2.42676C10.4248 2.81739 10.4492 2.88575 10.5713 3.00782C10.6885 3.125 10.7031 3.125 11.5967 3.125H12.5V3.86719C12.5 4.70215 12.4561 4.93164 12.2705 5.07813C12.1484 5.17579 12.0947 5.17579 8.85742 5.17579H5.56641L5.41016 5.03418L5.24902 4.89258L5.23438 4.00879L5.21973 3.125H6.11328H7.01172L7.14844 2.9834C7.25586 2.8711 7.29004 2.77344 7.32422 2.51954C7.40234 1.88965 7.77832 1.38184 8.32031 1.17676C8.62305 1.05958 9.03809 1.04981 9.33105 1.14747Z" fill="#112B3C"/>
<path d="M3.4668 8.33496C3.42773 8.34961 3.33496 8.41797 3.26172 8.48633C3.14941 8.58887 3.125 8.65234 3.125 8.85254C3.125 9.04785 3.14941 9.11133 3.2666 9.2334L3.4082 9.375H8.83789C12.4658 9.375 14.2969 9.36035 14.3604 9.32617C14.5752 9.20898 14.6729 8.76953 14.5215 8.55469C14.3359 8.29102 14.6045 8.30078 8.85254 8.30566C5.93262 8.30566 3.50586 8.32031 3.4668 8.33496Z" fill="#112B3C"/>
<path d="M3.4668 11.46C3.42773 11.4746 3.33496 11.543 3.26172 11.6113C3.14941 11.7139 3.125 11.7773 3.125 11.9775C3.125 12.1729 3.14941 12.2363 3.2666 12.3584L3.4082 12.5H8.83789C12.4658 12.5 14.2969 12.4854 14.3604 12.4512C14.5752 12.334 14.6729 11.8945 14.5215 11.6797C14.3359 11.416 14.6045 11.4258 8.85254 11.4307C5.93262 11.4307 3.50586 11.4453 3.4668 11.46Z" fill="#112B3C"/>
<path d="M21.3379 11.9727C21.0889 12.0654 20.7666 12.373 16.8408 16.3037L12.6123 20.5322L12.2363 22.4121C12.0312 23.4473 11.8652 24.3848 11.8652 24.502C11.8652 24.7998 12.0654 25 12.3633 25C12.4805 25 13.418 24.834 14.4531 24.6289L16.333 24.2529L20.5176 20.0781C23.5693 17.0264 24.7363 15.835 24.834 15.6543C25.0146 15.3271 25.0537 14.7412 24.9268 14.3506C24.8486 14.1113 24.7461 13.9893 23.8086 13.0615C22.9199 12.1729 22.7441 12.0215 22.5342 11.9482C22.1973 11.8359 21.6797 11.8457 21.3379 11.9727ZM23.042 13.8379L23.9404 14.7363L23.9111 14.9463C23.8867 15.1465 23.7256 15.3125 19.8389 19.1992L15.7959 23.2422L14.458 23.5107C13.7207 23.6572 13.1104 23.7744 13.1055 23.7646C13.1006 23.7598 13.2129 23.1494 13.3643 22.4121L13.6279 21.0693L17.5928 17.0996C19.7754 14.9121 21.626 13.0811 21.7041 13.0322C22.0166 12.832 22.0605 12.8613 23.042 13.8379Z" fill="#112B3C"/>
<path d="M3.4668 14.585C3.42773 14.5996 3.33496 14.668 3.26172 14.7363C3.14941 14.8389 3.125 14.9023 3.125 15.1025C3.125 15.2979 3.14941 15.3613 3.2666 15.4834L3.4082 15.625H8.83789C12.4658 15.625 14.2969 15.6104 14.3604 15.5762C14.5752 15.459 14.6729 15.0195 14.5215 14.8047C14.3359 14.541 14.6045 14.5508 8.85254 14.5557C5.93262 14.5557 3.50586 14.5703 3.4668 14.585Z" fill="#112B3C"/>
</g>
<defs>
<clipPath id="clip0_698_806">
<rect width="25" height="25" fill="white"/>
</clipPath>
</defs>
</svg>
