<svg width="474" height="345" viewBox="0 0 474 345" fill="none" xmlns="http://www.w3.org/2000/svg">
<g clip-path="url(#clip0_982_166)">
<path d="M276.104 60.8194C284.988 60.8194 292.189 53.6125 292.189 44.7222C292.189 35.832 284.988 28.625 276.104 28.625C267.221 28.625 260.019 35.832 260.019 44.7222C260.019 53.6125 267.221 60.8194 276.104 60.8194Z" fill="#F2F2F2"/>
<path d="M400.882 299.722C424.791 281.498 436.211 250.874 429.061 221.661C428.884 220.935 428.696 220.211 428.499 219.488C423.759 202.147 412.034 185.666 394.944 180.126C380.594 175.473 364.931 179.051 349.961 177.201C320.574 173.569 297.791 149.773 281.76 124.859C265.729 99.9454 253.409 72.0577 232.107 51.475C196.995 17.548 139.718 10.2435 96.184 32.3274C52.6499 54.4115 24.9192 103.407 26.1018 152.236C27.2845 201.066 56.251 247.751 98.3175 272.52C113.771 281.62 131.644 288.066 149.432 285.81C164.866 283.853 178.89 275.553 194.252 273.09C218.404 269.216 242.402 280.144 263.291 292.878C284.181 305.613 304.359 320.707 328.097 326.61C351.146 332.343 379.703 315.866 400.882 299.722Z" fill="#F2F2F2"/>
<path d="M366.531 33.3511C366.007 33.0014 365.477 32.6698 364.953 32.3322C349.802 22.6354 333.564 14.7578 316.572 8.86226L312.632 63.2537H287.656V0.922398C286.083 0.596846 284.499 0.28938 282.914 0V63.2537H253.233C236.893 63.2537 221.222 56.7578 209.668 45.195C198.114 33.6323 191.623 17.9499 191.623 1.59769V1.59763C190.033 1.94127 188.454 2.30903 186.876 2.7009V63.2537H162.701L158.947 11.3883C141.486 18.0901 124.909 26.9032 109.585 37.6315C109.32 37.8123 109.055 37.9992 108.796 38.1801C107.464 39.1146 106.151 40.0671 104.844 41.0317V248.535H176.092L174.833 231.082L167.905 135.255H307.421L300.493 231.082L299.234 248.535H369.694V35.4491C368.646 34.7377 367.591 34.0384 366.531 33.3511ZM186.876 119.43H166.761L163.044 68.0043H186.876V119.43ZM282.914 119.43H249.13V118.411C249.131 117.921 249.034 117.436 248.847 116.984C248.659 116.531 248.384 116.12 248.038 115.774C247.692 115.428 247.28 115.154 246.828 114.967C246.376 114.78 245.891 114.684 245.401 114.685H230.714C230.225 114.685 229.741 114.781 229.289 114.968C228.838 115.155 228.427 115.43 228.081 115.776C227.736 116.122 227.461 116.533 227.274 116.985C227.087 117.437 226.991 117.921 226.991 118.411V119.43H191.623V68.0043H282.914V119.43ZM287.656 119.43V68.0043H312.289L308.572 119.43H287.656Z" fill="#112B3C"/>
<path d="M0 261.824C5.23342 268.03 10.894 273.862 16.9402 279.277L457.06 279.88C463.106 274.465 468.767 268.633 474 262.427L0 261.824Z" fill="#112B3C"/>
<path d="M298.459 205.938V257.606C298.46 258.265 298.722 258.896 299.187 259.362C299.652 259.827 300.283 260.089 300.941 260.09H377.452C378.11 260.089 378.74 259.827 379.206 259.362C379.671 258.896 379.932 258.265 379.933 257.606V205.938C379.931 205.28 379.669 204.649 379.204 204.184C378.739 203.719 378.109 203.458 377.452 203.457H300.941C300.283 203.458 299.653 203.719 299.188 204.184C298.723 204.649 298.461 205.28 298.459 205.938Z" fill="#112B3C"/>
<path d="M300.254 206.58V256.968C300.255 257.32 300.395 257.658 300.643 257.906C300.892 258.155 301.229 258.295 301.58 258.296H376.814C377.166 258.295 377.503 258.155 377.752 257.906C378 257.658 378.14 257.32 378.141 256.968V206.58C378.141 206.228 378.001 205.89 377.752 205.641C377.504 205.391 377.166 205.251 376.814 205.25H301.58C301.228 205.251 300.891 205.391 300.642 205.641C300.394 205.89 300.254 206.228 300.254 206.58Z" fill="#6C63FF"/>
<path d="M296.859 267.683C296.999 267.859 297.178 268.001 297.38 268.098C297.583 268.195 297.805 268.245 298.03 268.244H379.955C380.179 268.243 380.4 268.193 380.602 268.097C380.805 268 380.983 267.86 381.124 267.685C381.265 267.511 381.366 267.308 381.418 267.09C381.471 266.872 381.475 266.645 381.429 266.426L380.157 260.381C380.104 260.134 379.991 259.905 379.827 259.713C379.663 259.522 379.454 259.374 379.218 259.285C379.048 259.218 378.866 259.183 378.683 259.184H299.297C299.114 259.183 298.932 259.218 298.762 259.285C298.526 259.374 298.317 259.522 298.153 259.713C297.989 259.905 297.876 260.134 297.823 260.381L296.551 266.426C296.506 266.645 296.51 266.872 296.564 267.089C296.617 267.307 296.718 267.51 296.859 267.683Z" fill="#2F2E41"/>
<path d="M375.872 261.785H377.807C377.97 261.785 378.101 261.653 378.101 261.491V260.564C378.101 260.402 377.97 260.27 377.807 260.27H375.872C375.71 260.27 375.578 260.402 375.578 260.564V261.491C375.578 261.653 375.71 261.785 375.872 261.785Z" fill="#112B3C"/>
<path d="M370.826 261.785H372.761C372.923 261.785 373.055 261.653 373.055 261.491V260.564C373.055 260.402 372.923 260.27 372.761 260.27H370.826C370.663 260.27 370.532 260.402 370.532 260.564V261.491C370.532 261.653 370.663 261.785 370.826 261.785Z" fill="#112B3C"/>
<path d="M365.779 261.785H367.714C367.877 261.785 368.008 261.653 368.008 261.491V260.564C368.008 260.402 367.877 260.27 367.714 260.27H365.779C365.617 260.27 365.485 260.402 365.485 260.564V261.491C365.485 261.653 365.617 261.785 365.779 261.785Z" fill="#112B3C"/>
<path d="M360.733 261.785H362.668C362.83 261.785 362.962 261.653 362.962 261.491V260.564C362.962 260.402 362.83 260.27 362.668 260.27H360.733C360.57 260.27 360.439 260.402 360.439 260.564V261.491C360.439 261.653 360.57 261.785 360.733 261.785Z" fill="#112B3C"/>
<path d="M355.686 261.785H357.621C357.784 261.785 357.915 261.653 357.915 261.491V260.564C357.915 260.402 357.784 260.27 357.621 260.27H355.686C355.524 260.27 355.392 260.402 355.392 260.564V261.491C355.392 261.653 355.524 261.785 355.686 261.785Z" fill="#112B3C"/>
<path d="M350.64 261.785H352.575C352.737 261.785 352.869 261.653 352.869 261.491V260.564C352.869 260.402 352.737 260.27 352.575 260.27H350.64C350.477 260.27 350.346 260.402 350.346 260.564V261.491C350.346 261.653 350.477 261.785 350.64 261.785Z" fill="#112B3C"/>
<path d="M345.593 261.785H347.528C347.691 261.785 347.822 261.653 347.822 261.491V260.564C347.822 260.402 347.691 260.27 347.528 260.27H345.593C345.431 260.27 345.299 260.402 345.299 260.564V261.491C345.299 261.653 345.431 261.785 345.593 261.785Z" fill="#112B3C"/>
<path d="M340.547 261.785H342.482C342.644 261.785 342.776 261.653 342.776 261.491V260.564C342.776 260.402 342.644 260.27 342.482 260.27H340.547C340.384 260.27 340.253 260.402 340.253 260.564V261.491C340.253 261.653 340.384 261.785 340.547 261.785Z" fill="#112B3C"/>
<path d="M335.5 261.785H337.435C337.598 261.785 337.729 261.653 337.729 261.491V260.564C337.729 260.402 337.598 260.27 337.435 260.27H335.5C335.338 260.27 335.206 260.402 335.206 260.564V261.491C335.206 261.653 335.338 261.785 335.5 261.785Z" fill="#112B3C"/>
<path d="M330.454 261.785H332.389C332.551 261.785 332.683 261.653 332.683 261.491V260.564C332.683 260.402 332.551 260.27 332.389 260.27H330.454C330.291 260.27 330.16 260.402 330.16 260.564V261.491C330.16 261.653 330.291 261.785 330.454 261.785Z" fill="#112B3C"/>
<path d="M325.407 261.785H327.342C327.505 261.785 327.636 261.653 327.636 261.491V260.564C327.636 260.402 327.505 260.27 327.342 260.27H325.407C325.245 260.27 325.113 260.402 325.113 260.564V261.491C325.113 261.653 325.245 261.785 325.407 261.785Z" fill="#112B3C"/>
<path d="M320.361 261.785H322.296C322.458 261.785 322.59 261.653 322.59 261.491V260.564C322.59 260.402 322.458 260.27 322.296 260.27H320.361C320.198 260.27 320.067 260.402 320.067 260.564V261.491C320.067 261.653 320.198 261.785 320.361 261.785Z" fill="#112B3C"/>
<path d="M315.314 261.785H317.249C317.412 261.785 317.543 261.653 317.543 261.491V260.564C317.543 260.402 317.412 260.27 317.249 260.27H315.314C315.152 260.27 315.02 260.402 315.02 260.564V261.491C315.02 261.653 315.152 261.785 315.314 261.785Z" fill="#112B3C"/>
<path d="M310.268 261.785H312.203C312.365 261.785 312.497 261.653 312.497 261.491V260.564C312.497 260.402 312.365 260.27 312.203 260.27H310.268C310.105 260.27 309.974 260.402 309.974 260.564V261.491C309.974 261.653 310.105 261.785 310.268 261.785Z" fill="#112B3C"/>
<path d="M305.221 261.785H307.156C307.319 261.785 307.45 261.653 307.45 261.491V260.564C307.45 260.402 307.319 260.27 307.156 260.27H305.221C305.059 260.27 304.927 260.402 304.927 260.564V261.491C304.927 261.653 305.059 261.785 305.221 261.785Z" fill="#112B3C"/>
<path d="M300.175 261.785H302.11C302.272 261.785 302.404 261.653 302.404 261.491V260.564C302.404 260.402 302.272 260.27 302.11 260.27H300.175C300.012 260.27 299.881 260.402 299.881 260.564V261.491C299.881 261.653 300.012 261.785 300.175 261.785Z" fill="#112B3C"/>
<path d="M375.932 264.312H377.867C378.029 264.312 378.161 264.181 378.161 264.018V263.092C378.161 262.929 378.029 262.797 377.867 262.797H375.932C375.769 262.797 375.638 262.929 375.638 263.092V264.018C375.638 264.181 375.769 264.312 375.932 264.312Z" fill="#112B3C"/>
<path d="M370.885 264.312H372.82C372.983 264.312 373.115 264.181 373.115 264.018V263.092C373.115 262.929 372.983 262.797 372.82 262.797H370.885C370.723 262.797 370.591 262.929 370.591 263.092V264.018C370.591 264.181 370.723 264.312 370.885 264.312Z" fill="#112B3C"/>
<path d="M365.839 264.312H367.774C367.936 264.312 368.068 264.181 368.068 264.018V263.092C368.068 262.929 367.936 262.797 367.774 262.797H365.839C365.676 262.797 365.545 262.929 365.545 263.092V264.018C365.545 264.181 365.676 264.312 365.839 264.312Z" fill="#112B3C"/>
<path d="M360.792 264.312H362.727C362.89 264.312 363.021 264.181 363.021 264.018V263.092C363.021 262.929 362.89 262.797 362.727 262.797H360.792C360.63 262.797 360.498 262.929 360.498 263.092V264.018C360.498 264.181 360.63 264.312 360.792 264.312Z" fill="#112B3C"/>
<path d="M355.746 264.312H357.681C357.843 264.312 357.975 264.181 357.975 264.018V263.092C357.975 262.929 357.843 262.797 357.681 262.797H355.746C355.583 262.797 355.452 262.929 355.452 263.092V264.018C355.452 264.181 355.583 264.312 355.746 264.312Z" fill="#112B3C"/>
<path d="M350.699 264.312H352.634C352.797 264.312 352.928 264.181 352.928 264.018V263.092C352.928 262.929 352.797 262.797 352.634 262.797H350.699C350.537 262.797 350.405 262.929 350.405 263.092V264.018C350.405 264.181 350.537 264.312 350.699 264.312Z" fill="#112B3C"/>
<path d="M345.653 264.312H347.588C347.75 264.312 347.882 264.181 347.882 264.018V263.092C347.882 262.929 347.75 262.797 347.588 262.797H345.653C345.49 262.797 345.359 262.929 345.359 263.092V264.018C345.359 264.181 345.49 264.312 345.653 264.312Z" fill="#112B3C"/>
<path d="M340.606 264.312H342.541C342.704 264.312 342.835 264.181 342.835 264.018V263.092C342.835 262.929 342.704 262.797 342.541 262.797H340.606C340.444 262.797 340.312 262.929 340.312 263.092V264.018C340.312 264.181 340.444 264.312 340.606 264.312Z" fill="#112B3C"/>
<path d="M335.56 264.312H337.495C337.657 264.312 337.789 264.181 337.789 264.018V263.092C337.789 262.929 337.657 262.797 337.495 262.797H335.56C335.397 262.797 335.266 262.929 335.266 263.092V264.018C335.266 264.181 335.397 264.312 335.56 264.312Z" fill="#112B3C"/>
<path d="M330.513 264.312H332.448C332.611 264.312 332.742 264.181 332.742 264.018V263.092C332.742 262.929 332.611 262.797 332.448 262.797H330.513C330.351 262.797 330.219 262.929 330.219 263.092V264.018C330.219 264.181 330.351 264.312 330.513 264.312Z" fill="#112B3C"/>
<path d="M325.467 264.312H327.402C327.564 264.312 327.696 264.181 327.696 264.018V263.092C327.696 262.929 327.564 262.797 327.402 262.797H325.467C325.304 262.797 325.173 262.929 325.173 263.092V264.018C325.173 264.181 325.304 264.312 325.467 264.312Z" fill="#112B3C"/>
<path d="M320.42 264.312H322.355C322.518 264.312 322.65 264.181 322.65 264.018V263.092C322.65 262.929 322.518 262.797 322.355 262.797H320.42C320.258 262.797 320.126 262.929 320.126 263.092V264.018C320.126 264.181 320.258 264.312 320.42 264.312Z" fill="#112B3C"/>
<path d="M315.374 264.312H317.309C317.471 264.312 317.603 264.181 317.603 264.018V263.092C317.603 262.929 317.471 262.797 317.309 262.797H315.374C315.211 262.797 315.08 262.929 315.08 263.092V264.018C315.08 264.181 315.211 264.312 315.374 264.312Z" fill="#112B3C"/>
<path d="M310.327 264.312H312.262C312.425 264.312 312.556 264.181 312.556 264.018V263.092C312.556 262.929 312.425 262.797 312.262 262.797H310.327C310.165 262.797 310.033 262.929 310.033 263.092V264.018C310.033 264.181 310.165 264.312 310.327 264.312Z" fill="#112B3C"/>
<path d="M305.281 264.312H307.216C307.378 264.312 307.51 264.181 307.51 264.018V263.092C307.51 262.929 307.378 262.797 307.216 262.797H305.281C305.118 262.797 304.987 262.929 304.987 263.092V264.018C304.987 264.181 305.118 264.312 305.281 264.312Z" fill="#112B3C"/>
<path d="M300.234 264.312H302.169C302.332 264.312 302.463 264.181 302.463 264.018V263.092C302.463 262.929 302.332 262.797 302.169 262.797H300.234C300.072 262.797 299.94 262.929 299.94 263.092V264.018C299.94 264.181 300.072 264.312 300.234 264.312Z" fill="#112B3C"/>
<path d="M334.046 267.344H353.644C353.806 267.344 353.938 267.212 353.938 267.049V266.123C353.938 265.96 353.806 265.829 353.644 265.829H334.046C333.883 265.829 333.752 265.96 333.752 266.123V267.049C333.752 267.212 333.883 267.344 334.046 267.344Z" fill="#112B3C"/>
<path d="M313.283 216.273H311.569C311.05 216.273 310.629 216.695 310.629 217.215C310.629 217.734 311.05 218.156 311.569 218.156H313.283C313.802 218.156 314.223 217.734 314.223 217.215C314.223 216.695 313.802 216.273 313.283 216.273Z" fill="white"/>
<path d="M332.875 216.273H331.162C330.643 216.273 330.222 216.695 330.222 217.215C330.222 217.734 330.643 218.156 331.162 218.156H332.875C333.395 218.156 333.816 217.734 333.816 217.215C333.816 216.695 333.395 216.273 332.875 216.273Z" fill="white"/>
<path d="M338.427 216.273H336.713C336.194 216.273 335.773 216.695 335.773 217.215C335.773 217.734 336.194 218.156 336.713 218.156H338.427C338.946 218.156 339.367 217.734 339.367 217.215C339.367 216.695 338.946 216.273 338.427 216.273Z" fill="white"/>
<path d="M327.546 216.117H316.899C316.379 216.117 315.958 216.539 315.958 217.058C315.958 217.578 316.379 217.999 316.899 217.999H327.546C328.065 217.999 328.486 217.578 328.486 217.058C328.486 216.539 328.065 216.117 327.546 216.117Z" fill="white"/>
<path d="M353.67 216.117H343.022C342.503 216.117 342.082 216.539 342.082 217.058C342.082 217.578 342.503 217.999 343.022 217.999H353.67C354.189 217.999 354.61 217.578 354.61 217.058C354.61 216.539 354.189 216.117 353.67 216.117Z" fill="white"/>
<path d="M318.507 220.523H316.794C316.275 220.523 315.854 220.945 315.854 221.465C315.854 221.984 316.275 222.406 316.794 222.406H318.507C319.027 222.406 319.448 221.984 319.448 221.465C319.448 220.945 319.027 220.523 318.507 220.523Z" fill="white"/>
<path d="M338.1 220.523H336.387C335.867 220.523 335.446 220.945 335.446 221.465C335.446 221.984 335.867 222.406 336.387 222.406H338.1C338.619 222.406 339.04 221.984 339.04 221.465C339.04 220.945 338.619 220.523 338.1 220.523Z" fill="white"/>
<path d="M343.651 220.523H341.938C341.419 220.523 340.998 220.945 340.998 221.465C340.998 221.984 341.419 222.406 341.938 222.406H343.651C344.171 222.406 344.592 221.984 344.592 221.465C344.592 220.945 344.171 220.523 343.651 220.523Z" fill="white"/>
<path d="M332.771 220.363H322.123C321.604 220.363 321.183 220.785 321.183 221.304C321.183 221.824 321.604 222.246 322.123 222.246H332.771C333.29 222.246 333.711 221.824 333.711 221.304C333.711 220.785 333.29 220.363 332.771 220.363Z" fill="white"/>
<path d="M358.894 220.363H348.247C347.728 220.363 347.307 220.785 347.307 221.304C347.307 221.824 347.728 222.246 348.247 222.246H358.894C359.414 222.246 359.835 221.824 359.835 221.304C359.835 220.785 359.414 220.363 358.894 220.363Z" fill="white"/>
<path d="M323.732 224.77H322.019C321.5 224.77 321.078 225.191 321.078 225.711C321.078 226.23 321.5 226.652 322.019 226.652H323.732C324.251 226.652 324.672 226.23 324.672 225.711C324.672 225.191 324.251 224.77 323.732 224.77Z" fill="white"/>
<path d="M343.325 224.77H341.612C341.092 224.77 340.671 225.191 340.671 225.711C340.671 226.23 341.092 226.652 341.612 226.652H343.325C343.844 226.652 344.265 226.23 344.265 225.711C344.265 225.191 343.844 224.77 343.325 224.77Z" fill="white"/>
<path d="M348.876 224.77H347.163C346.643 224.77 346.222 225.191 346.222 225.711C346.222 226.23 346.643 226.652 347.163 226.652H348.876C349.395 226.652 349.816 226.23 349.816 225.711C349.816 225.191 349.395 224.77 348.876 224.77Z" fill="white"/>
<path d="M337.995 224.613H327.348C326.829 224.613 326.408 225.035 326.408 225.554C326.408 226.074 326.829 226.496 327.348 226.496H337.995C338.515 226.496 338.936 226.074 338.936 225.554C338.936 225.035 338.515 224.613 337.995 224.613Z" fill="white"/>
<path d="M364.119 224.613H353.472C352.952 224.613 352.531 225.035 352.531 225.554C352.531 226.074 352.952 226.496 353.472 226.496H364.119C364.638 226.496 365.059 226.074 365.059 225.554C365.059 225.035 364.638 224.613 364.119 224.613Z" fill="white"/>
<path d="M328.957 229.02H327.244C326.724 229.02 326.303 229.441 326.303 229.961C326.303 230.48 326.724 230.902 327.244 230.902H328.957C329.476 230.902 329.897 230.48 329.897 229.961C329.897 229.441 329.476 229.02 328.957 229.02Z" fill="white"/>
<path d="M348.549 229.02H346.836C346.317 229.02 345.896 229.441 345.896 229.961C345.896 230.48 346.317 230.902 346.836 230.902H348.549C349.069 230.902 349.49 230.48 349.49 229.961C349.49 229.441 349.069 229.02 348.549 229.02Z" fill="white"/>
<path d="M354.101 229.02H352.387C351.868 229.02 351.447 229.441 351.447 229.961C351.447 230.48 351.868 230.902 352.387 230.902H354.101C354.62 230.902 355.041 230.48 355.041 229.961C355.041 229.441 354.62 229.02 354.101 229.02Z" fill="white"/>
<path d="M343.22 228.863H332.573C332.053 228.863 331.632 229.285 331.632 229.804C331.632 230.324 332.053 230.746 332.573 230.746H343.22C343.74 230.746 344.161 230.324 344.161 229.804C344.161 229.285 343.74 228.863 343.22 228.863Z" fill="white"/>
<path d="M332.875 245.91H331.162C330.643 245.91 330.222 246.332 330.222 246.851C330.222 247.371 330.643 247.792 331.162 247.792H332.875C333.395 247.792 333.816 247.371 333.816 246.851C333.816 246.332 333.395 245.91 332.875 245.91Z" fill="white"/>
<path d="M338.427 245.91H336.713C336.194 245.91 335.773 246.332 335.773 246.851C335.773 247.371 336.194 247.792 336.713 247.792H338.427C338.946 247.792 339.367 247.371 339.367 246.851C339.367 246.332 338.946 245.91 338.427 245.91Z" fill="white"/>
<path d="M353.67 246.066H343.022C342.503 246.066 342.082 246.488 342.082 247.008C342.082 247.527 342.503 247.949 343.022 247.949H353.67C354.189 247.949 354.61 247.527 354.61 247.008C354.61 246.488 354.189 246.066 353.67 246.066Z" fill="white"/>
<path d="M313.283 245.91H311.569C311.05 245.91 310.629 246.332 310.629 246.851C310.629 247.371 311.05 247.792 311.569 247.792H313.283C313.802 247.792 314.223 247.371 314.223 246.851C314.223 246.332 313.802 245.91 313.283 245.91Z" fill="white"/>
<path d="M327.546 246.066H316.899C316.379 246.066 315.958 246.488 315.958 247.008C315.958 247.527 316.379 247.949 316.899 247.949H327.546C328.065 247.949 328.486 247.527 328.486 247.008C328.486 246.488 328.065 246.066 327.546 246.066Z" fill="white"/>
<path d="M318.507 241.664H316.794C316.275 241.664 315.854 242.085 315.854 242.605C315.854 243.125 316.275 243.546 316.794 243.546H318.507C319.027 243.546 319.448 243.125 319.448 242.605C319.448 242.085 319.027 241.664 318.507 241.664Z" fill="white"/>
<path d="M338.1 241.664H336.387C335.867 241.664 335.446 242.085 335.446 242.605C335.446 243.125 335.867 243.546 336.387 243.546H338.1C338.619 243.546 339.04 243.125 339.04 242.605C339.04 242.085 338.619 241.664 338.1 241.664Z" fill="white"/>
<path d="M343.651 241.664H341.938C341.419 241.664 340.998 242.085 340.998 242.605C340.998 243.125 341.419 243.546 341.938 243.546H343.651C344.171 243.546 344.592 243.125 344.592 242.605C344.592 242.085 344.171 241.664 343.651 241.664Z" fill="white"/>
<path d="M332.771 241.82H322.123C321.604 241.82 321.183 242.242 321.183 242.761C321.183 243.281 321.604 243.703 322.123 243.703H332.771C333.29 243.703 333.711 243.281 333.711 242.761C333.711 242.242 333.29 241.82 332.771 241.82Z" fill="white"/>
<path d="M323.732 237.414H322.019C321.5 237.414 321.078 237.835 321.078 238.355C321.078 238.875 321.5 239.296 322.019 239.296H323.732C324.251 239.296 324.672 238.875 324.672 238.355C324.672 237.835 324.251 237.414 323.732 237.414Z" fill="white"/>
<path d="M343.325 237.414H341.612C341.092 237.414 340.671 237.835 340.671 238.355C340.671 238.875 341.092 239.296 341.612 239.296H343.325C343.844 239.296 344.265 238.875 344.265 238.355C344.265 237.835 343.844 237.414 343.325 237.414Z" fill="white"/>
<path d="M348.876 237.414H347.163C346.643 237.414 346.222 237.835 346.222 238.355C346.222 238.875 346.643 239.296 347.163 239.296H348.876C349.395 239.296 349.816 238.875 349.816 238.355C349.816 237.835 349.395 237.414 348.876 237.414Z" fill="white"/>
<path d="M337.995 237.57H327.348C326.829 237.57 326.408 237.992 326.408 238.511C326.408 239.031 326.829 239.453 327.348 239.453H337.995C338.515 239.453 338.936 239.031 338.936 238.511C338.936 237.992 338.515 237.57 337.995 237.57Z" fill="white"/>
<path d="M328.957 233.168H327.244C326.724 233.168 326.303 233.589 326.303 234.109C326.303 234.629 326.724 235.05 327.244 235.05H328.957C329.476 235.05 329.897 234.629 329.897 234.109C329.897 233.589 329.476 233.168 328.957 233.168Z" fill="white"/>
<path d="M348.549 233.168H346.836C346.317 233.168 345.896 233.589 345.896 234.109C345.896 234.629 346.317 235.05 346.836 235.05H348.549C349.069 235.05 349.49 234.629 349.49 234.109C349.49 233.589 349.069 233.168 348.549 233.168Z" fill="white"/>
<path d="M354.101 233.168H352.387C351.868 233.168 351.447 233.589 351.447 234.109C351.447 234.629 351.868 235.05 352.387 235.05H354.101C354.62 235.05 355.041 234.629 355.041 234.109C355.041 233.589 354.62 233.168 354.101 233.168Z" fill="white"/>
<path d="M343.22 233.324H332.573C332.053 233.324 331.632 233.746 331.632 234.265C331.632 234.785 332.053 235.206 332.573 235.206H343.22C343.74 235.206 344.161 234.785 344.161 234.265C344.161 233.746 343.74 233.324 343.22 233.324Z" fill="white"/>
<path d="M304.175 295.699L296.133 282.978L321.376 262.84L331.795 251.288C333.148 249.787 334.872 248.668 336.793 248.043C338.714 247.418 340.766 247.308 342.743 247.725C344.719 248.141 346.552 249.07 348.058 250.418C349.564 251.765 350.69 253.485 351.324 255.405C352.263 258.249 352.061 261.348 350.761 264.046C349.46 266.745 347.163 268.832 344.354 269.868L327.878 275.942L304.175 295.699Z" fill="#FFB6B6"/>
<path d="M115.479 203.457V265.288H158.763V203.457C158.764 203.012 158.622 202.579 158.359 202.221C158.095 201.863 157.724 201.599 157.299 201.468C157.099 201.402 156.889 201.369 156.679 201.371H117.569C117.295 201.371 117.024 201.424 116.77 201.529C116.517 201.633 116.286 201.787 116.092 201.981C115.898 202.174 115.744 202.404 115.639 202.658C115.533 202.911 115.479 203.183 115.479 203.457ZM132.371 224.702C132.382 223.484 132.874 222.318 133.739 221.46C134.605 220.602 135.773 220.121 136.991 220.121C138.21 220.121 139.378 220.602 140.244 221.46C141.109 222.318 141.601 223.484 141.612 224.702V231.877C141.606 233.099 141.116 234.269 140.25 235.131C139.385 235.993 138.213 236.477 136.991 236.477C135.77 236.477 134.598 235.993 133.733 235.131C132.867 234.269 132.377 233.099 132.371 231.877V224.702Z" fill="#2F2E41"/>
<path d="M115.346 263.312V269.275C115.347 269.584 115.47 269.88 115.688 270.099C115.905 270.318 116.2 270.442 116.509 270.444H157.733C158.042 270.443 158.338 270.319 158.555 270.1C158.773 269.881 158.896 269.584 158.896 269.275V263.312H115.346Z" fill="#112B3C"/>
<path d="M47.3867 110.303V223.197C47.3879 224.636 47.9594 226.015 48.976 227.032C49.9925 228.05 51.3709 228.622 52.8085 228.623H219.981C221.419 228.622 222.798 228.05 223.814 227.032C224.831 226.015 225.402 224.636 225.403 223.197V110.303C225.4 108.865 224.827 107.488 223.811 106.472C222.795 105.456 221.418 104.885 219.981 104.883H52.8085C51.3722 104.885 49.9951 105.456 48.9789 106.472C47.9627 107.488 47.3901 108.865 47.3867 110.303Z" fill="#112B3C"/>
<path d="M51.3085 111.707V221.804C51.3098 222.572 51.6155 223.309 52.1586 223.853C52.7018 224.396 53.438 224.702 54.2061 224.704H218.59C219.358 224.702 220.094 224.396 220.637 223.853C221.18 223.309 221.486 222.572 221.488 221.804V111.707C221.487 110.937 221.182 110.199 220.639 109.654C220.096 109.109 219.359 108.802 218.59 108.801H54.2061C53.4371 108.802 52.7001 109.109 52.1569 109.654C51.6137 110.199 51.3086 110.937 51.3085 111.707Z" fill="white"/>
<path d="M81.8153 270.041C81.9826 270.251 82.1953 270.42 82.4373 270.536C82.6794 270.652 82.9445 270.711 83.2129 270.71H181.011C181.278 270.71 181.542 270.65 181.783 270.534C182.025 270.419 182.237 270.252 182.406 270.044C182.574 269.836 182.695 269.593 182.757 269.333C182.82 269.073 182.825 268.802 182.77 268.54L181.252 261.323C181.189 261.029 181.053 260.755 180.857 260.527C180.662 260.298 180.412 260.122 180.131 260.015C179.928 259.935 179.711 259.894 179.492 259.895H84.725C84.5065 259.894 84.2898 259.935 84.0864 260.015C83.8054 260.122 83.5557 260.298 83.36 260.527C83.1643 260.755 83.0288 261.029 82.9659 261.323L81.4478 268.54C81.3938 268.802 81.3987 269.072 81.4623 269.332C81.5259 269.591 81.6464 269.834 81.8153 270.041Z" fill="#2F2E41"/>
<path d="M213.255 123.966H59.442C59.2821 123.963 59.13 123.897 59.0182 123.782C58.9063 123.668 58.8438 123.514 58.8438 123.354C58.8438 123.194 58.9063 123.041 59.0182 122.926C59.13 122.812 59.2821 122.746 59.442 122.742H213.255C213.415 122.746 213.567 122.812 213.679 122.926C213.791 123.041 213.853 123.194 213.853 123.354C213.853 123.514 213.791 123.668 213.679 123.782C213.567 123.897 213.415 123.963 213.255 123.966Z" fill="#112B3C"/>
<path d="M69.9122 119.62C71.892 119.62 73.4969 117.978 73.4969 115.952C73.4969 113.927 71.892 112.285 69.9122 112.285C67.9324 112.285 66.3275 113.927 66.3275 115.952C66.3275 117.978 67.9324 119.62 69.9122 119.62Z" fill="#112B3C"/>
<path d="M82.2956 119.62C84.2754 119.62 85.8803 117.978 85.8803 115.952C85.8803 113.927 84.2754 112.285 82.2956 112.285C80.3159 112.285 78.7109 113.927 78.7109 115.952C78.7109 117.978 80.3159 119.62 82.2956 119.62Z" fill="#112B3C"/>
<path d="M94.6792 119.62C96.6589 119.62 98.2639 117.978 98.2639 115.952C98.2639 113.927 96.6589 112.285 94.6792 112.285C92.6994 112.285 91.0945 113.927 91.0945 115.952C91.0945 117.978 92.6994 119.62 94.6792 119.62Z" fill="#112B3C"/>
<path d="M205.798 113.191H197.003C196.829 113.195 196.664 113.267 196.542 113.392C196.42 113.516 196.352 113.684 196.352 113.858C196.352 114.032 196.42 114.199 196.542 114.323C196.664 114.448 196.829 114.52 197.003 114.524H205.798C205.973 114.521 206.14 114.45 206.263 114.325C206.386 114.201 206.455 114.033 206.455 113.858C206.455 113.683 206.386 113.514 206.263 113.39C206.14 113.265 205.973 113.194 205.798 113.191Z" fill="#112B3C"/>
<path d="M205.798 115.691H197.003C196.829 115.695 196.663 115.767 196.542 115.892C196.42 116.016 196.352 116.183 196.352 116.358C196.352 116.532 196.42 116.699 196.542 116.824C196.663 116.948 196.829 117.02 197.003 117.024H205.798C205.973 117.022 206.141 116.951 206.264 116.826C206.387 116.701 206.456 116.533 206.456 116.358C206.456 116.182 206.387 116.014 206.264 115.889C206.141 115.765 205.973 115.694 205.798 115.691Z" fill="#112B3C"/>
<path d="M205.798 118.195H197.003C196.829 118.199 196.664 118.271 196.542 118.396C196.42 118.52 196.352 118.687 196.352 118.861C196.352 119.036 196.42 119.203 196.542 119.327C196.664 119.452 196.829 119.524 197.003 119.528H205.798C205.973 119.525 206.14 119.454 206.263 119.329C206.386 119.205 206.455 119.037 206.455 118.861C206.455 118.686 206.386 118.518 206.263 118.394C206.14 118.269 205.973 118.198 205.798 118.195Z" fill="#112B3C"/>
<path d="M417.839 265.93C418.105 266.703 418.608 267.372 419.278 267.842C419.947 268.311 420.747 268.556 421.564 268.541L437.524 268.13C438.347 268.114 439.142 267.832 439.792 267.326C440.441 266.82 440.909 266.117 441.127 265.322L443.385 241.155C444.186 241.518 445.059 241.697 445.938 241.68C446.702 241.66 447.455 241.491 448.154 241.181C448.852 240.87 449.483 240.425 450.01 239.871C450.536 239.317 450.949 238.664 451.223 237.95C451.498 237.236 451.63 236.475 451.61 235.711C451.591 234.946 451.422 234.193 451.112 233.494C450.801 232.795 450.357 232.163 449.803 231.636C449.249 231.109 448.597 230.696 447.884 230.422C447.17 230.147 446.41 230.015 445.646 230.034C445.294 230.033 444.944 230.07 444.6 230.143C444.226 229.738 443.772 229.416 443.266 229.198C442.76 228.98 442.215 228.87 441.664 228.875L417.115 229.51C416.911 229.517 416.708 229.542 416.509 229.585C415.971 229.685 415.46 229.9 415.012 230.214C414.563 230.529 414.187 230.936 413.909 231.408C413.631 231.88 413.457 232.406 413.399 232.951C413.341 233.496 413.401 234.047 413.573 234.567L417.839 265.93ZM443.848 239.514L445.455 233.755C445.638 233.089 445.642 232.388 445.467 231.72C445.545 231.72 445.614 231.683 445.692 231.683C446.794 231.66 447.86 232.075 448.656 232.838C449.453 233.6 449.914 234.648 449.94 235.751C449.966 236.853 449.554 237.921 448.794 238.72C448.034 239.519 446.989 239.984 445.887 240.013C445.175 240.035 444.47 239.863 443.848 239.514Z" fill="#2F2E41"/>
<path d="M416.509 229.586C417.032 232.578 422.912 234.682 429.983 234.316C436.485 234.017 441.801 231.732 442.775 229.024C442.414 228.917 442.039 228.867 441.664 228.876L417.115 229.51C416.911 229.518 416.708 229.543 416.509 229.586Z" fill="#112B3C"/>
<path d="M431.279 252.648C431.311 252.639 431.342 252.626 431.37 252.608L434.835 250.337C434.877 250.31 434.912 250.273 434.936 250.229C434.959 250.185 434.972 250.135 434.972 250.085C434.972 250.035 434.96 249.986 434.936 249.942C434.912 249.898 434.878 249.861 434.836 249.833L431.233 247.472C431.2 247.45 431.163 247.435 431.124 247.427C431.085 247.42 431.045 247.42 431.006 247.428C430.968 247.436 430.931 247.452 430.898 247.474C430.865 247.496 430.837 247.525 430.815 247.558C430.794 247.591 430.779 247.628 430.771 247.667C430.764 247.706 430.764 247.746 430.773 247.785C430.781 247.824 430.796 247.861 430.819 247.894C430.841 247.926 430.87 247.954 430.903 247.976L434.121 250.085L431.04 252.103C430.98 252.142 430.936 252.201 430.916 252.27C430.896 252.338 430.9 252.411 430.929 252.477C430.958 252.542 431.008 252.595 431.073 252.626C431.137 252.658 431.21 252.665 431.279 252.648H431.279Z" fill="#6C63FF"/>
<path d="M425.805 252.901C425.863 252.886 425.915 252.854 425.955 252.809C425.995 252.765 426.021 252.709 426.029 252.649C426.037 252.59 426.027 252.529 426.001 252.476C425.974 252.422 425.933 252.377 425.88 252.347L422.686 250.514L425.774 248.219C425.805 248.195 425.832 248.166 425.852 248.132C425.873 248.098 425.886 248.06 425.892 248.021C425.898 247.982 425.896 247.942 425.886 247.904C425.876 247.865 425.859 247.829 425.836 247.797C425.812 247.766 425.782 247.739 425.749 247.719C425.715 247.698 425.677 247.685 425.638 247.679C425.599 247.673 425.559 247.675 425.521 247.685C425.482 247.695 425.446 247.712 425.415 247.735L421.957 250.305C421.917 250.335 421.885 250.374 421.864 250.42C421.843 250.465 421.833 250.515 421.836 250.565C421.839 250.615 421.855 250.663 421.881 250.706C421.907 250.748 421.944 250.783 421.987 250.808L425.581 252.87C425.649 252.909 425.729 252.92 425.805 252.901Z" fill="#6C63FF"/>
<path d="M430.934 254.638C430.963 254.631 430.991 254.619 431.017 254.603C431.05 254.582 431.08 254.555 431.103 254.523C431.127 254.491 431.143 254.455 431.153 254.417C431.162 254.378 431.164 254.338 431.158 254.299C431.152 254.26 431.138 254.223 431.118 254.189L426.204 246.105C426.163 246.037 426.096 245.988 426.018 245.969C425.941 245.951 425.859 245.963 425.791 246.005C425.722 246.047 425.673 246.113 425.655 246.191C425.636 246.269 425.648 246.351 425.69 246.419L430.603 254.503C430.636 254.558 430.687 254.6 430.746 254.625C430.806 254.649 430.872 254.654 430.934 254.638Z" fill="#6C63FF"/>
<path d="M154.727 157.246H128.105C127.019 157.246 126.138 158.127 126.138 159.214V161.817C126.138 162.904 127.019 163.785 128.105 163.785H154.727C155.813 163.785 156.693 162.904 156.693 161.817V159.214C156.693 158.127 155.813 157.246 154.727 157.246Z" fill="#6C63FF"/>
<path d="M170.244 170.324H112.587C111.501 170.324 110.621 171.205 110.621 172.292V174.895C110.621 175.982 111.501 176.863 112.587 176.863H170.244C171.33 176.863 172.211 175.982 172.211 174.895V172.292C172.211 171.205 171.33 170.324 170.244 170.324Z" fill="#E6E6E6"/>
<path d="M170.244 183.402H112.587C111.501 183.402 110.621 184.283 110.621 185.37V187.973C110.621 189.06 111.501 189.941 112.587 189.941H170.244C171.33 189.941 172.211 189.06 172.211 187.973V185.37C172.211 184.283 171.33 183.402 170.244 183.402Z" fill="#E6E6E6"/>
<path d="M175.132 227.192L175.262 227.605L175.269 227.619L179.2 239.578L183.722 253.361L192.23 279.261L192.312 283.284V283.298L192.945 315.663L191.192 320.051L193.165 327.245C193.165 327.245 192.257 316.371 187.392 322.615C184.636 326.164 181.413 329.795 178.767 333.2C182.623 334.761 186.54 336.173 190.519 337.436C191.378 337.711 192.244 337.973 193.11 338.234C193.295 338.289 193.481 338.344 193.666 338.399C206.856 342.302 220.492 344.496 234.24 344.926C234.955 344.946 235.656 344.96 236.336 344.974C236.577 344.981 236.81 344.987 237.044 344.987C237.814 344.994 238.576 345.001 239.346 345.001C240.899 345.001 242.446 344.978 243.985 344.932C255.379 344.611 266.706 343.078 277.776 340.359C277.7 335.785 277.494 330.442 277.199 324.734C277.061 321.934 273.976 318.901 273.79 315.972C273.659 313.771 276.429 311.701 276.285 309.466C275.35 295.704 274.182 300.987 273.316 291.241C273.226 290.285 273.144 289.371 273.068 288.497C272.512 282.239 272.127 278.326 272.127 278.326L275.824 255.004L281.631 218.389L281.185 217.653L280.683 217.406L250.053 202.234L248.39 197.97C247.905 196.742 247.065 195.686 245.976 194.94C244.887 194.194 243.6 193.79 242.281 193.782L222.104 193.699C221.057 193.695 220.023 193.94 219.09 194.415C218.156 194.889 217.35 195.58 216.736 196.43L211.273 204.002L175.132 227.192Z" fill="#112B3C"/>
<path d="M196.882 273.497L192.312 283.283L189.192 289.968L183.825 318.09L181.138 320.944L178.836 310.84L154.74 316.194C153.95 311.8 154.529 316.343 154.041 311.522C154.178 311.384 154.323 311.247 154.467 311.109C154.852 310.752 155.175 310.415 155.168 310.092C154.893 293.462 155.718 265.161 162.604 248.016C163.682 245.217 165.104 242.562 166.837 240.114C166.974 239.928 167.105 239.743 167.236 239.557C170.411 235.107 172.417 230.726 175.262 227.611V227.604C175.28 227.59 175.296 227.574 175.31 227.556C175.321 227.551 175.33 227.544 175.338 227.535L194.883 217.164L195.721 240.74L196.319 257.686L196.882 273.497Z" fill="#112B3C"/>
<path d="M267.357 276.274L273.066 288.498L275.058 292.755L280.424 320.874L283.102 323.721L285.41 313.62L286.494 313.397L306.048 309.344L311.747 327.458C313.031 325.316 313.537 322.796 313.18 320.324C312.822 317.852 311.621 315.579 309.782 313.89C309.393 313.538 309.069 313.195 309.078 312.87C309.402 293.311 308.207 257.596 297.411 242.897C293.982 238.232 291.924 233.586 288.931 230.34C288.922 230.331 288.922 230.321 288.913 230.321L281.629 218.385L281.184 217.653L280.683 217.402L267.357 276.274Z" fill="#112B3C"/>
<path d="M232.775 187.953C247.6 187.953 259.618 175.926 259.618 161.09C259.618 146.254 247.6 134.227 232.775 134.227C217.95 134.227 205.932 146.254 205.932 161.09C205.932 175.926 217.95 187.953 232.775 187.953Z" fill="#FFB6B6"/>
<path d="M269.056 142.324C268.848 142.102 268.598 141.923 268.319 141.8C268.041 141.677 267.74 141.611 267.436 141.607L267.839 140.485C267.971 140.132 268.007 139.75 267.942 139.379C267.878 139.007 267.716 138.66 267.474 138.371C267.231 138.083 266.916 137.864 266.561 137.738C266.206 137.611 265.824 137.582 265.454 137.652L263.984 137.935L264.123 136.952C264.176 136.586 264.133 136.213 263.998 135.869C263.863 135.524 263.641 135.221 263.353 134.989C263.066 134.756 262.723 134.603 262.358 134.543C261.993 134.484 261.619 134.52 261.273 134.649C260.958 134.774 260.619 134.826 260.281 134.802C259.944 134.778 259.616 134.678 259.321 134.511C259.026 134.349 258.769 134.124 258.569 133.852C258.369 133.58 258.231 133.268 258.165 132.937L257.652 130.465L257.598 130.333C255.104 126.173 250.309 123.147 244.441 122.037C239.218 121.043 233.863 121.549 228.7 122.025C226.652 122.218 224.338 122.435 222.411 123.617C220.772 124.63 219.386 126.655 219.67 128.699C214.579 127.138 209.121 130.254 206.416 134.185C203.211 138.864 202.687 144.723 202.603 149.305C202.374 160.145 204.609 169.013 209.23 175.669C209.567 176.151 209.651 177.158 210.32 177.496L210.181 177.273C210.928 177.646 211.687 178.249 211.404 178.894C210.591 180.751 215.995 184.857 219.802 186.213C226.748 188.691 235.983 188.48 242.477 187.588L242.706 186.051C245.05 185.731 246.7 185.122 247.164 184.17C247.984 183.47 248.682 182.843 249.291 182.265L249.297 182.258C249.309 182.246 249.333 182.228 249.345 182.216C252.279 179.401 252.96 177.797 253.267 175.356C253.562 172.962 253.038 170.533 252.502 168.344C263.791 170.092 248.056 156.311 258.574 153.646C258.695 153.609 258.817 153.579 258.942 153.556C259.249 153.483 259.556 153.411 259.851 153.327C261.274 152.94 262.637 152.358 263.9 151.596C266.839 149.806 267.809 147.43 269.327 144.754C269.547 144.373 269.638 143.931 269.59 143.494C269.541 143.057 269.354 142.647 269.056 142.324Z" fill="#2F2E41"/>
<path d="M327.714 278.188C327.708 279.243 327.696 280.72 327.648 282.546C327.642 282.8 327.636 283.059 327.63 283.324C327.552 286.682 327.474 289.498 327.347 292.626C327.341 292.843 327.335 293.054 327.323 293.272C327.154 297.636 326.889 302.719 326.431 310.767C325.582 325.634 324.1 312.811 322.612 318.026C322.54 318.285 322.461 318.592 322.389 318.954C322.164 320.266 321.784 321.547 321.256 322.77C320.467 323.24 319.654 323.693 318.853 324.145C316.57 325.417 314.25 326.641 311.913 327.804C310.6 328.455 309.28 329.094 307.955 329.709C307.744 329.806 307.539 329.902 307.334 329.993C300.548 333.134 293.553 335.805 286.4 337.987C285.003 338.409 283.611 338.819 282.201 339.199C280.731 339.609 279.261 339.994 277.773 340.356C266.704 343.076 255.377 344.61 243.983 344.932C242.447 344.98 240.899 344.998 239.345 344.998C238.574 344.998 237.815 344.992 237.044 344.986C236.809 344.986 236.574 344.98 236.339 344.974C235.658 344.956 234.953 344.944 234.242 344.926C220.494 344.497 206.858 342.302 193.669 338.397L193.109 338.234C192.241 337.969 191.38 337.709 190.518 337.432C186.542 336.172 182.624 334.761 178.765 333.2C175.819 332.012 172.907 330.738 170.03 329.378C170.004 329.371 169.979 329.358 169.958 329.342C169.355 329.064 168.747 328.775 168.144 328.479C168.066 328.437 167.982 328.395 167.897 328.353C165.65 327.256 163.427 326.106 161.228 324.904C159.379 320.654 156.776 319.84 155.162 316.102C154.692 314.992 154.352 313.831 154.15 312.642C154.15 312.63 154.144 312.618 154.144 312.6C154.313 314.842 153.427 308.621 154.138 312.576C154.132 312.503 154.126 312.425 154.12 312.334C154.102 312.117 154.078 311.852 154.041 311.521C151.975 291.33 152.108 268.24 151.21 249.213C151.15 247.984 151.088 246.806 151.023 245.681C151.005 245.307 150.981 244.939 150.957 244.577C150.999 244.469 151.047 244.354 151.102 244.246C151.113 244.214 151.127 244.184 151.144 244.155C151.162 244.118 151.182 244.082 151.204 244.047C151.216 244.029 151.234 244.005 151.246 243.986C151.255 243.966 151.265 243.946 151.276 243.926C151.331 243.842 151.391 243.751 151.457 243.667C151.487 243.631 151.511 243.601 151.541 243.57C151.562 243.54 151.586 243.511 151.614 243.486C151.632 243.457 151.654 243.431 151.68 243.408C151.704 243.384 151.728 243.353 151.758 243.323C151.771 243.304 151.787 243.288 151.806 243.275C151.854 243.22 151.907 243.17 151.963 243.124C152.178 242.926 152.408 242.745 152.65 242.582C152.734 242.528 152.825 242.473 152.909 242.413C153.516 242.05 154.155 241.743 154.819 241.497C155.047 241.412 155.276 241.334 155.523 241.249C155.614 241.225 155.698 241.195 155.788 241.165C155.921 241.123 156.054 241.081 156.192 241.051C156.879 240.846 157.62 240.671 158.421 240.508C158.517 240.49 158.62 240.472 158.722 240.448C158.867 240.417 159.017 240.393 159.168 240.369C159.373 240.333 159.584 240.297 159.795 240.261C161.584 239.977 163.614 239.766 165.855 239.628C166.066 239.616 166.277 239.604 166.488 239.592C166.735 239.58 166.982 239.567 167.235 239.555C167.445 239.543 167.662 239.537 167.879 239.531C168.09 239.519 168.307 239.513 168.53 239.507C169.138 239.489 169.765 239.471 170.403 239.459C172.223 239.423 174.138 239.435 176.15 239.477C177.084 239.501 178.036 239.525 179.012 239.567C179.078 239.567 179.138 239.573 179.199 239.573C180.048 239.604 180.904 239.64 181.783 239.688C182.398 239.718 183.018 239.748 183.639 239.784C184.223 239.821 184.813 239.857 185.41 239.899C185.874 239.923 186.337 239.959 186.807 239.989C187.205 240.02 187.603 240.05 188 240.074L188.542 240.11C188.837 240.134 189.133 240.152 189.434 240.182C190.097 240.237 190.759 240.291 191.434 240.345C192.103 240.405 192.783 240.466 193.464 240.526C194.145 240.586 194.832 240.653 195.518 240.719C195.591 240.725 195.657 240.731 195.723 240.737C196.35 240.803 196.976 240.864 197.609 240.93C197.753 240.942 197.904 240.954 198.049 240.972C198.652 241.033 199.266 241.104 199.875 241.168C200.062 241.189 200.248 241.208 200.435 241.229C200.912 241.281 201.382 241.326 201.862 241.382C202.494 241.454 203.139 241.521 203.766 241.605C204.253 241.659 204.741 241.714 205.229 241.774C205.994 241.864 206.772 241.961 207.549 242.063C207.844 242.1 208.139 242.136 208.434 242.178C210.651 242.455 212.892 242.763 215.169 243.082C218.621 243.571 222.127 244.101 225.658 244.674C229.194 245.247 232.75 245.851 236.327 246.488C237.23 246.651 238.134 246.814 239.044 246.983C239.453 247.061 239.863 247.139 240.272 247.218C240.971 247.344 241.67 247.477 242.369 247.61C243.068 247.742 243.767 247.875 244.465 248.014C245.297 248.176 246.134 248.339 246.965 248.502C252.441 249.587 257.887 250.745 263.201 251.957C264.074 252.155 264.948 252.36 265.815 252.559C267.55 252.963 269.269 253.373 270.972 253.789C271.442 253.898 271.906 254.012 272.37 254.127C273.526 254.416 274.683 254.706 275.822 255.001L276.02 255.055C276.858 255.26 277.677 255.471 278.496 255.688C280.43 256.195 282.332 256.707 284.201 257.226C285.442 257.569 286.669 257.917 287.882 258.269C289.695 258.793 291.473 259.324 293.202 259.86C293.629 259.993 294.057 260.125 294.479 260.252C295.744 260.644 296.991 261.042 298.202 261.44C299.166 261.753 300.105 262.073 301.033 262.392C301.961 262.712 302.87 263.031 303.762 263.351C304.334 263.556 304.901 263.773 305.467 263.978C306.28 264.279 307.081 264.581 307.865 264.882C308.106 264.973 308.34 265.069 308.575 265.159C308.726 265.226 308.871 265.28 309.015 265.34C309.298 265.455 309.587 265.563 309.865 265.678C310.148 265.786 310.425 265.901 310.702 266.022C310.973 266.13 311.25 266.245 311.515 266.359C311.786 266.468 312.051 266.582 312.316 266.703C312.539 266.793 312.756 266.89 312.967 266.986C313.395 267.173 313.823 267.36 314.238 267.553C314.443 267.649 314.648 267.74 314.853 267.836L315.323 268.053C315.389 268.089 315.455 268.12 315.521 268.15C315.672 268.222 315.829 268.3 315.979 268.373C316.329 268.536 316.672 268.71 317.009 268.873C317.461 269.102 317.901 269.331 318.323 269.554C318.75 269.783 319.166 270.013 319.564 270.236C319.63 270.272 319.69 270.308 319.756 270.344C319.847 270.392 319.937 270.447 320.028 270.495C320.335 270.67 320.63 270.851 320.925 271.025C321.503 271.381 322.052 271.731 322.564 272.08C322.678 272.159 322.787 272.237 322.901 272.309C323.281 272.581 323.642 272.846 323.979 273.117C323.979 273.123 323.979 273.123 323.985 273.123C324.1 273.208 324.208 273.298 324.317 273.383C324.407 273.467 324.503 273.539 324.594 273.624C324.907 273.895 325.196 274.154 325.461 274.42C325.55 274.501 325.635 274.588 325.714 274.679C325.749 274.708 325.782 274.74 325.811 274.775C325.931 274.896 326.04 275.016 326.142 275.137C326.158 275.154 326.172 275.172 326.184 275.191C326.329 275.36 326.461 275.529 326.588 275.698C326.648 275.782 326.714 275.866 326.769 275.951C326.841 276.053 326.913 276.162 326.973 276.264C327.028 276.349 327.076 276.439 327.124 276.524C327.252 276.741 327.361 276.969 327.449 277.205C327.517 277.365 327.571 277.53 327.612 277.699C327.658 277.859 327.692 278.023 327.714 278.188Z" fill="#2F2E41"/>
<path opacity="0.2" d="M327.714 278.187C327.708 279.242 327.696 280.719 327.648 282.546C327.642 282.799 327.63 283.058 327.624 283.323C327.564 285.886 327.474 289.051 327.347 292.626C327.341 292.843 327.335 293.054 327.323 293.271C327.154 297.636 326.889 302.718 326.431 310.766C325.582 325.633 324.1 312.81 322.612 318.025C318.479 315.481 313.949 312.816 309.106 310.079C308.232 309.585 307.35 309.088 306.461 308.59C296.774 303.182 285.954 297.515 274.659 291.902C274.213 291.679 273.761 291.456 273.316 291.239C247.441 278.44 219.2 265.991 196.32 257.683C191.904 256.079 187.687 254.633 183.723 253.36C175.373 250.69 168.156 248.821 162.602 248.013C156.819 247.169 152.824 247.47 151.21 249.213C151.15 247.983 151.087 246.805 151.023 245.68C150.999 245.306 150.975 244.938 150.951 244.577C150.988 244.477 151.036 244.383 151.083 244.287C151.09 244.273 151.095 244.259 151.102 244.245C151.113 244.214 151.127 244.183 151.144 244.155C151.161 244.117 151.182 244.081 151.204 244.046C151.224 244.003 151.248 243.963 151.276 243.925C151.33 243.841 151.391 243.751 151.457 243.666C151.506 243.603 151.558 243.543 151.614 243.485C151.632 243.456 151.654 243.43 151.68 243.407C151.704 243.383 151.728 243.353 151.758 243.323C151.771 243.304 151.787 243.287 151.806 243.274C151.854 243.22 151.906 243.169 151.963 243.124C152.178 242.926 152.408 242.744 152.65 242.581C152.734 242.527 152.824 242.473 152.909 242.412C153.516 242.049 154.155 241.742 154.819 241.496C155.047 241.411 155.276 241.333 155.523 241.249C155.614 241.225 155.698 241.194 155.788 241.164C155.921 241.122 156.053 241.08 156.192 241.05C156.879 240.845 157.62 240.67 158.421 240.507C158.662 240.459 158.915 240.411 159.168 240.369C159.373 240.332 159.584 240.296 159.795 240.26C161.584 239.977 163.614 239.766 165.855 239.627C166.066 239.615 166.277 239.603 166.487 239.591C166.734 239.579 166.981 239.567 167.234 239.555C167.445 239.543 167.662 239.537 167.879 239.53C168.09 239.518 168.307 239.512 168.53 239.506C169.138 239.488 169.765 239.47 170.403 239.458C172.223 239.428 174.138 239.44 176.15 239.482C177.084 239.5 178.036 239.531 179.012 239.573C179.072 239.573 179.138 239.579 179.199 239.579C180.048 239.603 180.91 239.645 181.783 239.687C182.398 239.717 183.018 239.748 183.638 239.784C184.223 239.82 184.813 239.856 185.41 239.898C185.873 239.922 186.337 239.959 186.807 239.989C187.205 240.019 187.602 240.049 188 240.073C188.476 240.109 188.952 240.145 189.434 240.182C190.096 240.236 190.759 240.29 191.434 240.344C192.103 240.405 192.783 240.465 193.464 240.525C194.145 240.586 194.832 240.652 195.518 240.718C195.591 240.724 195.657 240.73 195.723 240.736C196.35 240.803 196.976 240.863 197.609 240.929C201.115 241.285 204.723 241.701 208.434 242.177C210.651 242.46 212.896 242.764 215.169 243.087C218.621 243.576 222.127 244.106 225.658 244.673C229.194 245.246 232.75 245.851 236.327 246.488C237.23 246.65 238.134 246.813 239.044 246.982C240.152 247.187 241.26 247.396 242.369 247.609C243.068 247.742 243.767 247.874 244.465 248.013C245.297 248.176 246.134 248.339 246.965 248.501C252.441 249.586 257.887 250.744 263.201 251.956C264.074 252.155 264.948 252.36 265.815 252.559C267.55 252.963 269.269 253.372 270.972 253.788C271.442 253.903 271.906 254.018 272.37 254.132C273.532 254.421 274.683 254.711 275.822 255V255.006C275.888 255.018 275.954 255.036 276.02 255.055C276.852 255.266 277.677 255.477 278.496 255.694C280.43 256.2 282.332 256.71 284.201 257.225C285.442 257.575 286.671 257.918 287.882 258.268C289.695 258.798 291.473 259.329 293.202 259.859C293.629 259.992 294.057 260.125 294.479 260.251C295.744 260.649 296.985 261.045 298.202 261.439C299.166 261.752 300.105 262.072 301.033 262.392C301.961 262.711 302.87 263.031 303.762 263.35C304.34 263.555 304.907 263.766 305.467 263.971C306.286 264.272 307.081 264.574 307.865 264.881C308.105 264.972 308.34 265.068 308.575 265.159C309.015 265.328 309.443 265.502 309.865 265.677C310.148 265.786 310.425 265.9 310.702 266.021C310.973 266.129 311.25 266.244 311.515 266.358C311.786 266.467 312.051 266.582 312.316 266.702C312.539 266.793 312.756 266.889 312.967 266.985C313.395 267.172 313.823 267.359 314.238 267.552C314.443 267.649 314.648 267.739 314.853 267.835L315.323 268.053C315.389 268.089 315.455 268.119 315.521 268.149C316.033 268.39 316.527 268.631 317.009 268.872C317.461 269.102 317.901 269.331 318.323 269.554C318.823 269.819 319.299 270.078 319.756 270.343C319.847 270.392 319.937 270.446 320.027 270.494C320.335 270.669 320.63 270.85 320.925 271.025C321.503 271.38 322.052 271.73 322.564 272.08C323.07 272.429 323.54 272.773 323.979 273.117C323.979 273.123 323.979 273.123 323.985 273.123C324.196 273.291 324.401 273.46 324.594 273.623C324.907 273.894 325.196 274.154 325.461 274.419C325.55 274.501 325.635 274.587 325.714 274.678C325.749 274.707 325.782 274.739 325.811 274.775C325.937 274.913 326.064 275.052 326.184 275.191C326.329 275.359 326.461 275.528 326.588 275.697C326.648 275.781 326.714 275.866 326.769 275.95C326.841 276.053 326.913 276.161 326.973 276.264C327.028 276.348 327.076 276.438 327.124 276.523C327.252 276.74 327.361 276.968 327.449 277.204C327.515 277.365 327.57 277.53 327.612 277.698C327.658 277.859 327.692 278.022 327.714 278.187Z" fill="black"/>
</g>
<defs>
<clipPath id="clip0_982_166">
<rect width="474" height="345" fill="white"/>
</clipPath>
</defs>
</svg>
