<svg width="120" height="26" viewBox="0 0 120 26" fill="none" xmlns="http://www.w3.org/2000/svg">
<g clip-path="url(#clip0_585_3)">
<path d="M40.3429 18.7203H37.3607V14.1804H33.9127V18.7203H30.9304V7.58398H33.9127V11.7125H37.3607V7.58398H40.3429V18.7203ZM47.5695 18.7203H44.6023V10.0443H41.9205V7.58398H50.2438V10.0443H47.5695V18.7203ZM56.6589 18.7203H53.6917V10.0443H51.01V7.58398H59.3332V10.0443H56.6589V18.7203ZM64.7045 7.58398C66.0968 7.58398 67.1384 7.8912 67.8297 8.50563C68.5256 9.12012 68.8738 9.99356 68.8738 11.126C68.8738 11.6338 68.8009 12.1213 68.6558 12.5885C68.5153 13.0556 68.2825 13.472 67.9573 13.8377C67.6368 14.2033 67.2086 14.4928 66.6727 14.7061C66.142 14.9193 65.4856 15.026 64.7045 15.026H63.8707V18.7203H60.9035V7.58398H64.7045ZM64.6368 10.0138H63.8707V12.5732H64.4563C64.7117 12.5732 64.9497 12.5301 65.1702 12.4437C65.3907 12.3523 65.5661 12.2076 65.6958 12.0095C65.8312 11.8064 65.8989 11.5373 65.8989 11.2021C65.8989 10.8518 65.7963 10.5674 65.5907 10.349C65.3856 10.1256 65.0676 10.0138 64.6368 10.0138Z" fill="#112B3C"/>
<path d="M78.3718 10.9196H77.5308V6.44784H76.0723C76.042 6.69193 76.0092 6.95261 75.9738 7.22987C75.939 7.50474 75.9025 7.78086 75.8656 8.05813C75.8282 8.33539 75.7892 8.59841 75.7497 8.84723C75.7123 9.0961 75.6738 9.31528 75.6338 9.50487C75.5733 9.82243 75.4938 10.0926 75.3954 10.3153C75.3 10.5357 75.1702 10.704 75.0066 10.8201C74.8431 10.9362 74.6292 10.9943 74.3651 10.9943C74.2764 10.9943 74.1897 10.986 74.1056 10.9694C74.0215 10.9552 73.9456 10.9362 73.8779 10.9125V10.2087C73.9338 10.23 73.9933 10.249 74.0564 10.2656C74.122 10.2798 74.1908 10.2869 74.2631 10.2869C74.3846 10.2869 74.482 10.2419 74.5543 10.1518C74.6292 10.0594 74.6908 9.92909 74.74 9.76081C74.7892 9.5902 74.8359 9.38875 74.8805 9.15652C74.9061 9.01669 74.9374 8.83183 74.9749 8.60199C75.0123 8.36976 75.0533 8.10196 75.0974 7.79859C75.142 7.49528 75.1877 7.16825 75.2343 6.81751C75.2836 6.46443 75.3302 6.09949 75.3743 5.7227H78.3718V10.9196ZM83.0728 8.94322C83.0728 9.27025 83.0308 9.56056 82.9467 9.81411C82.8625 10.0677 82.74 10.2822 82.5784 10.4575C82.4174 10.6305 82.2236 10.7632 81.9969 10.8557C81.7697 10.9457 81.5138 10.9907 81.2287 10.9907C80.9625 10.9907 80.7184 10.9457 80.4964 10.8557C80.2743 10.7632 80.0815 10.6305 79.9179 10.4575C79.7564 10.2822 79.6318 10.0677 79.5425 9.81411C79.4538 9.56056 79.4097 9.27025 79.4097 8.94322C79.4097 8.50954 79.4831 8.14226 79.6302 7.84129C79.78 7.53792 79.9928 7.30688 80.2682 7.14813C80.5441 6.98932 80.8723 6.90997 81.2533 6.90997C81.6113 6.90997 81.9266 6.98932 82.2 7.14813C82.4733 7.30688 82.6872 7.53792 82.8415 7.84129C82.9959 8.1446 83.0728 8.51193 83.0728 8.94322ZM80.2579 8.94322C80.2579 9.23 80.2918 9.47523 80.3595 9.67907C80.4297 9.88286 80.5374 10.0393 80.682 10.1483C80.8272 10.2549 81.0138 10.3082 81.2431 10.3082C81.4718 10.3082 81.659 10.2549 81.8041 10.1483C81.9487 10.0393 82.0549 9.88286 82.1231 9.67907C82.1908 9.47523 82.2246 9.23 82.2246 8.94322C82.2246 8.65649 82.1908 8.4136 82.1231 8.21454C82.0549 8.01309 81.9487 7.86021 81.8041 7.75595C81.659 7.6493 81.4708 7.596 81.2395 7.596C80.8984 7.596 80.6492 7.71212 80.4928 7.94435C80.3364 8.17658 80.2579 8.50954 80.2579 8.94322ZM86.5364 6.98459V7.64223H84.8467V10.9196H84.0195V6.98459H86.5364ZM88.1102 6.98459V10.9196H87.2866V6.98459H88.1102ZM87.7036 5.47742C87.8302 5.47742 87.9384 5.51179 88.0297 5.58048C88.1231 5.64923 88.1702 5.76768 88.1702 5.93595C88.1702 6.10183 88.1231 6.22034 88.0297 6.29143C87.9384 6.36017 87.8302 6.39454 87.7036 6.39454C87.5728 6.39454 87.462 6.36017 87.3708 6.29143C87.282 6.22034 87.2374 6.10183 87.2374 5.93595C87.2374 5.76768 87.282 5.64923 87.3708 5.58048C87.462 5.51179 87.5728 5.47742 87.7036 5.47742ZM90.8554 10.9907C90.4882 10.9907 90.1708 10.9184 89.902 10.7739C89.6333 10.6293 89.4261 10.4077 89.2815 10.1092C89.1364 9.81058 89.0641 9.43139 89.0641 8.97166C89.0641 8.49295 89.1436 8.10196 89.3025 7.79859C89.4615 7.49528 89.681 7.27131 89.9615 7.12681C90.2441 6.98225 90.5677 6.90997 90.9323 6.90997C91.1641 6.90997 91.3728 6.93363 91.56 6.98105C91.7492 7.02608 91.9092 7.08177 92.0405 7.14813L91.7949 7.81638C91.6523 7.75715 91.5061 7.70739 91.3569 7.66709C91.2072 7.62679 91.0636 7.60666 90.9256 7.60666C90.699 7.60666 90.5092 7.65762 90.3574 7.75954C90.2082 7.86141 90.0959 8.01309 90.021 8.21454C89.9487 8.41594 89.9123 8.66595 89.9123 8.96454C89.9123 9.25366 89.9497 9.49775 90.0246 9.6968C90.0995 9.89352 90.2102 10.0428 90.3574 10.1447C90.5046 10.2443 90.6861 10.294 90.901 10.294C91.1138 10.294 91.3041 10.2679 91.4723 10.2158C91.6405 10.1637 91.7995 10.0961 91.9492 10.0132V10.7384C91.802 10.8236 91.6441 10.8865 91.4759 10.9268C91.3077 10.9694 91.1005 10.9907 90.8554 10.9907ZM95.7913 7.64223H94.5154V10.9196H93.6949V7.64223H92.4256V6.98459H95.7913V7.64223ZM97.3338 6.98459V8.99298C97.3338 9.05699 97.3313 9.13874 97.3266 9.23827C97.3246 9.33545 97.3195 9.43732 97.3128 9.54397C97.3056 9.64823 97.2984 9.74423 97.2918 9.8319C97.2846 9.91957 97.279 9.98473 97.2743 10.0274L99.2267 6.98459H100.229V10.9196H99.4405V8.93256C99.4405 8.8283 99.4431 8.70745 99.4477 8.56996C99.4549 8.43253 99.4615 8.29982 99.4687 8.17185C99.4779 8.04388 99.4836 7.94674 99.4861 7.88039L97.5405 10.9196H96.5415V6.98459H97.3338ZM102.136 6.98459V8.41001C102.136 8.61858 102.19 8.7738 102.297 8.87567C102.405 8.97759 102.559 9.02855 102.76 9.02855C102.985 9.02855 103.19 8.99771 103.377 8.93609C103.567 8.87452 103.757 8.79159 103.949 8.68727V6.98459H104.773V10.9196H103.949V9.25605C103.755 9.37217 103.553 9.4693 103.343 9.54751C103.132 9.62572 102.886 9.66482 102.603 9.66482C102.2 9.66482 101.885 9.55937 101.656 9.34845C101.427 9.13754 101.313 8.83657 101.313 8.44558V6.98459H102.136ZM106.778 6.98459V8.56643H108.594V6.98459H109.421V10.9196H108.594V9.22048H106.778V10.9196H105.951V6.98459H106.778ZM111.391 6.98459V8.99298C111.391 9.05699 111.389 9.13874 111.384 9.23827C111.382 9.33545 111.377 9.43732 111.37 9.54397C111.363 9.64823 111.356 9.74423 111.349 9.8319C111.342 9.91957 111.336 9.98473 111.332 10.0274L113.284 6.98459H114.287V10.9196H113.498V8.93256C113.498 8.8283 113.5 8.70745 113.505 8.56996C113.512 8.43253 113.519 8.29982 113.526 8.17185C113.535 8.04388 113.542 7.94674 113.544 7.88039L111.598 10.9196H110.599V6.98459H111.391ZM116.264 6.98459V8.99298C116.264 9.05699 116.262 9.13874 116.257 9.23827C116.255 9.33545 116.25 9.43732 116.243 9.54397C116.236 9.64823 116.229 9.74423 116.222 9.8319C116.215 9.91957 116.209 9.98473 116.205 10.0274L118.157 6.98459H119.159V10.9196H118.371V8.93256C118.371 8.8283 118.373 8.70745 118.378 8.56996C118.385 8.43253 118.392 8.29982 118.399 8.17185C118.408 8.04388 118.414 7.94674 118.416 7.88039L116.471 10.9196H115.472V6.98459H116.264ZM118.869 5.32812C118.845 5.57221 118.78 5.78312 118.672 5.96086C118.567 6.1362 118.407 6.2713 118.192 6.3661C117.977 6.46089 117.694 6.50827 117.344 6.50827C116.982 6.50827 116.695 6.46323 116.485 6.37317C116.274 6.28076 116.123 6.14687 116.029 5.97152C115.936 5.79379 115.879 5.57929 115.861 5.32812H116.611C116.634 5.59114 116.702 5.76888 116.814 5.86133C116.927 5.95135 117.108 5.99638 117.358 5.99638C117.573 5.99638 117.745 5.94781 117.873 5.85067C118.004 5.75349 118.082 5.57929 118.108 5.32812H118.869Z" fill="#112B3C"/>
<path d="M74.5189 20.7996V15.6027H78.4558V20.7996H77.6215V16.3278H75.3605V20.7996H74.5189ZM83.164 18.8232C83.164 19.1502 83.122 19.4406 83.0379 19.6941C82.9538 19.9477 82.8312 20.1622 82.6697 20.3375C82.5087 20.5105 82.3143 20.6432 82.0876 20.7357C81.861 20.8257 81.6051 20.8707 81.32 20.8707C81.0538 20.8707 80.8092 20.8257 80.5876 20.7357C80.3656 20.6432 80.1728 20.5105 80.0092 20.3375C79.8476 20.1622 79.7225 19.9477 79.6338 19.6941C79.5451 19.4406 79.5005 19.1502 79.5005 18.8232C79.5005 18.3895 79.5743 18.0223 79.7215 17.7213C79.8712 17.4179 80.0835 17.1869 80.3594 17.0281C80.6353 16.8693 80.9635 16.79 81.3446 16.79C81.702 16.79 82.0179 16.8693 82.2912 17.0281C82.5646 17.1869 82.7784 17.4179 82.9328 17.7213C83.0871 18.0246 83.164 18.3919 83.164 18.8232ZM80.3492 18.8232C80.3492 19.11 80.383 19.3552 80.4507 19.5591C80.521 19.7629 80.6282 19.9193 80.7733 20.0283C80.9179 20.1349 81.1051 20.1882 81.3343 20.1882C81.563 20.1882 81.7502 20.1349 81.8948 20.0283C82.04 19.9193 82.1461 19.7629 82.2138 19.5591C82.282 19.3552 82.3158 19.11 82.3158 18.8232C82.3158 18.5365 82.282 18.2936 82.2138 18.0945C82.1461 17.8931 82.04 17.7402 81.8948 17.636C81.7502 17.5293 81.562 17.476 81.3307 17.476C80.9892 17.476 80.7405 17.5921 80.5841 17.8244C80.4271 18.0566 80.3492 18.3895 80.3492 18.8232ZM88.6082 16.8646V20.7996H87.8441V18.5531C87.8441 18.4061 87.8476 18.2592 87.8543 18.1123C87.8615 17.9654 87.8707 17.8255 87.8825 17.6928H87.8615L86.6799 20.7996H86.0317L84.861 17.6893H84.8364C84.8476 17.8244 84.8558 17.9642 84.861 18.1087C84.8676 18.2533 84.8712 18.4097 84.8712 18.5779V20.7996H84.1071V16.8646H85.2569L86.3646 19.8043L87.4897 16.8646H88.6082ZM90.5994 16.8646V20.7996H89.7753V16.8646H90.5994ZM90.1928 15.3574C90.3189 15.3574 90.4276 15.3918 90.5189 15.4605C90.6123 15.5292 90.6589 15.6477 90.6589 15.816C90.6589 15.9818 90.6123 16.1003 90.5189 16.1714C90.4276 16.2402 90.3189 16.2745 90.1928 16.2745C90.062 16.2745 89.9507 16.2402 89.86 16.1714C89.7707 16.1003 89.7266 15.9818 89.7266 15.816C89.7266 15.6477 89.7707 15.5292 89.86 15.4605C89.9507 15.3918 90.062 15.3574 90.1928 15.3574ZM92.503 16.8646V18.29C92.503 18.4986 92.5569 18.6538 92.6641 18.7557C92.7717 18.8576 92.9261 18.9086 93.1271 18.9086C93.3512 18.9086 93.5569 18.8777 93.744 18.8161C93.9333 18.7545 94.1235 18.6716 94.3153 18.5673V16.8646H95.1389V20.7996H94.3153V19.1361C94.1215 19.2522 93.9194 19.3493 93.7087 19.4275C93.4984 19.5057 93.2517 19.5448 92.9692 19.5448C92.5671 19.5448 92.2517 19.4394 92.0225 19.2285C91.7938 19.0175 91.6789 18.7166 91.6789 18.3256V16.8646H92.503ZM97.1446 16.8646V18.4464H98.9605V16.8646H99.7876V20.7996H98.9605V19.1005H97.1446V20.7996H96.3169V16.8646H97.1446ZM101.758 16.8646V18.873C101.758 18.937 101.755 19.0187 101.751 19.1183C101.749 19.2155 101.744 19.3173 101.737 19.424C101.73 19.5282 101.723 19.6242 101.716 19.7119C101.709 19.7996 101.703 19.8647 101.698 19.9074L103.651 16.8646H104.653V20.7996H103.865V18.8126C103.865 18.7083 103.867 18.5875 103.872 18.45C103.878 18.3125 103.886 18.1798 103.893 18.0519C103.902 17.9239 103.908 17.8267 103.91 17.7604L101.965 20.7996H100.966V16.8646H101.758ZM108.243 16.8646H109.151L107.546 18.7557L109.288 20.7996H108.338L106.666 18.8019V20.7996H105.838V16.8646H106.666V18.7735L108.243 16.8646Z" fill="#112B3C"/>
<path fill-rule="evenodd" clip-rule="evenodd" d="M6.43061 3.10613C2.99588 4.81313 0.143926 6.24161 0.0928764 6.28056C0.00864379 6.34473 0 6.96914 0 12.997C0 19.2603 0.00585913 19.6473 0.10152 19.7226C0.30572 19.8833 12.7021 26 12.8235 26C12.9459 26 25.3384 19.883 25.5395 19.7233C25.6352 19.6474 25.641 19.2601 25.641 12.9988C25.641 6.73743 25.6352 6.35014 25.5395 6.27416C25.3212 6.1009 12.9407 -0.00234381 12.8122 6.7528e-07C12.737 0.00133277 9.86528 1.39908 6.43061 3.10613ZM14.765 1.60288C15.8356 2.13418 16.7024 2.57734 16.6911 2.58773C16.6798 2.59812 14.0357 3.91503 10.8153 5.51424C5.2221 8.29171 4.95307 8.4188 4.80566 8.3525C4.16156 8.06291 1.10778 6.51654 1.11811 6.48523C1.12733 6.45752 12.6708 0.68523 12.8049 0.641326C12.8123 0.638872 13.6944 1.07159 14.765 1.60288ZM19.2138 3.81246C19.6193 4.01435 19.9311 4.1977 19.907 4.21992C19.8314 4.28929 8.27574 10.0148 8.21144 10.0147C8.14913 10.0146 5.80487 8.86569 5.73164 8.79939C5.70928 8.77921 8.33287 7.45108 11.5618 5.84802L17.4324 2.93338L17.9545 3.18941C18.2417 3.33024 18.8083 3.61062 19.2138 3.81246ZM22.6489 5.51782C23.6883 6.03366 24.5384 6.47124 24.5378 6.49022C24.5362 6.5507 12.8753 12.3134 12.7897 12.296C12.619 12.2614 8.94456 10.4129 8.98179 10.3803C9.00318 10.3616 9.86918 9.92534 10.9062 9.41091C11.9431 8.89642 14.5536 7.59975 16.7073 6.52933C18.8609 5.45886 20.6536 4.58235 20.691 4.5815C20.7283 4.5806 21.6093 5.00196 22.6489 5.51782ZM3.27764 8.3019L4.55389 8.93916L4.5829 11.4937C4.61428 14.2559 4.61028 14.2243 4.92627 14.2243C5.0116 14.2243 5.38508 14.1306 5.75615 14.016C6.37836 13.824 6.43733 13.8147 6.51267 13.8962C6.55754 13.9447 6.90236 14.3881 7.27892 14.8815C7.65549 15.3748 8.0242 15.8039 8.0982 15.8348C8.20277 15.8786 8.26569 15.8714 8.37969 15.8028L8.52651 15.7145L8.54159 13.319L8.55667 10.9235L10.5145 11.8945L12.4723 12.8655L12.4724 19.0065C12.4725 22.3841 12.4528 25.1467 12.4289 25.1456C12.405 25.1447 9.76185 23.8401 6.55528 22.2466L0.725144 19.3494L0.710405 13.1865L0.695672 7.02354L1.34853 7.34406C1.70762 7.52034 2.5757 7.95132 3.27764 8.3019ZM24.9016 19.3455C24.8487 19.3919 13.4064 25.075 13.2667 25.1243C13.1748 25.1566 13.1686 24.7649 13.1696 19.0122L13.1705 12.8655L19.0432 9.95171L24.9159 7.03789L24.9306 13.1725C24.9387 16.5466 24.9257 19.3244 24.9016 19.3455ZM6.58933 9.94422C7.27882 10.2863 7.85374 10.5921 7.86697 10.6238C7.8802 10.6554 7.88415 11.5565 7.87579 12.626L7.86056 14.5706L7.32523 13.8711C7.01354 13.4638 6.73979 13.1596 6.66995 13.1428C6.60395 13.127 6.28497 13.196 5.96113 13.2962C5.63723 13.3963 5.35128 13.4783 5.32569 13.4783C5.30005 13.4783 5.27903 12.5432 5.27903 11.4002C5.27903 10.2573 5.29179 9.32214 5.30738 9.32214C5.32303 9.32214 5.89995 9.60206 6.58933 9.94422ZM1.41159 17.5607C1.32342 17.6843 1.32162 17.7149 1.3957 17.8321C1.49855 17.9947 5.86882 20.1866 6.09672 20.1899C6.25969 20.1922 6.43928 20.0477 6.43928 19.914C6.43928 19.8683 6.39359 19.7819 6.33774 19.722C6.18913 19.5626 1.83502 17.4213 1.65947 17.4213C1.56335 17.4213 1.47592 17.4704 1.41159 17.5607ZM1.41971 18.5951C1.33525 18.6809 1.32463 18.7335 1.36854 18.8482C1.41234 18.9626 1.60715 19.0852 2.29284 19.4299C2.77068 19.6701 3.21847 19.868 3.28803 19.8695C3.46282 19.8735 3.5967 19.7347 3.5967 19.5495C3.5967 19.369 3.52152 19.3191 2.48904 18.8152C1.76726 18.463 1.58661 18.4258 1.41971 18.5951Z" fill="#112B3C"/>
</g>
<defs>
<clipPath id="clip0_585_3">
<rect width="120" height="26" fill="white"/>
</clipPath>
</defs>
</svg>
