<svg width="45" height="26" viewBox="0 0 45 26" fill="none" xmlns="http://www.w3.org/2000/svg">
<path fill-rule="evenodd" clip-rule="evenodd" d="M8.00363 0.123419C7.74691 0.249111 7.44733 0.689385 7.44733 0.941032C7.44733 0.998394 7.50981 1.17544 7.58612 1.33465C7.87382 1.9343 7.14925 1.89853 19.0117 1.89853C28.0007 1.89853 29.7134 1.91759 29.7134 2.01743C29.7134 2.08289 29.4532 3.24816 29.1352 4.60702C28.8172 5.96587 27.887 9.99588 27.0683 13.5625C26.2495 17.1292 25.5584 20.1355 25.5326 20.2432L25.4856 20.4391H22.9889H20.4922L20.4355 20.1405C20.3277 19.5722 19.7871 18.6575 19.2384 18.1147C18.3159 17.2023 17.2004 16.7487 15.8961 16.7555C15.0416 16.7601 14.5874 16.8651 13.8184 17.236C12.7555 17.7485 11.8711 18.7576 11.4887 19.894L11.3053 20.4391H9.76801C8.02193 20.4391 7.78651 20.5011 7.56808 21.0181C7.40737 21.3986 7.5253 21.83 7.86158 22.0916C8.06902 22.2529 8.21626 22.267 9.69717 22.267H11.3072L11.4427 22.724C11.9031 24.276 13.4203 25.6101 15.0872 25.9286C16.5966 26.217 18.3966 25.6119 19.407 24.4766C19.7861 24.0507 20.2751 23.1844 20.4306 22.6634L20.536 22.3106L26.2522 22.2891L31.9685 22.2677L32.1272 22.7917C32.7089 24.7124 34.7872 26.1198 36.842 25.9845C38.7718 25.8573 40.4995 24.5397 41.0289 22.7913L41.1878 22.267H42.047C43.027 22.267 43.2805 22.1843 43.4785 21.7998C43.5556 21.6499 43.9394 19.8037 44.3311 17.6972C44.9501 14.3687 45.0363 13.787 44.9891 13.2552C44.6728 9.68504 42.1806 6.78253 38.6203 5.83809C37.7828 5.61595 37.6983 5.61082 34.3042 5.57513L30.8423 5.53883L30.9007 5.30886C31.3149 3.67659 31.9014 0.880014 31.8621 0.724987C31.8342 0.614962 31.6931 0.412843 31.5487 0.276009L31.286 0.0270603L19.7847 0.00677864C9.47204 -0.0114138 8.25445 0.000598126 8.00363 0.123419ZM4.17572 3.87549C3.67882 4.18041 3.59522 4.89148 4.00824 5.29998L4.26548 5.55441H8.41542H12.5654L12.8226 5.29998C13.2474 4.87981 13.1234 4.06708 12.5983 3.83049C12.43 3.75459 11.2906 3.72708 8.38928 3.72882C4.83956 3.73082 4.3857 3.74666 4.17572 3.87549ZM38.0128 7.60728C38.8334 7.78598 40.0906 8.38894 40.7563 8.92305C42.0107 9.92972 42.8496 11.3788 43.0993 12.9706C43.1941 13.575 43.1768 13.7024 42.5517 17.0168L41.9063 20.4391H41.5443C41.1946 20.4391 41.1784 20.4265 41.0704 20.0692C40.6312 18.6178 39.4288 17.3982 37.9925 16.9472C37.1959 16.6972 35.9601 16.6972 35.1635 16.9472C33.7272 17.3982 32.5248 18.6178 32.0856 20.0692L31.9737 20.4391H29.7088H27.4439L27.5188 20.1127C28.8103 14.4876 30.3319 7.88182 30.377 7.70399L30.4365 7.4694H33.9079C36.7506 7.4694 37.4941 7.49438 38.0128 7.60728ZM2.28592 9.46499C1.90678 9.69375 1.76192 10.1352 1.93318 10.5407C2.19272 11.1549 1.90977 11.1253 7.51765 11.1253H12.5654L12.8226 10.8709C13.2474 10.4507 13.1234 9.63795 12.5983 9.40136C12.4281 9.32468 11.0792 9.29743 7.46519 9.29769C2.78721 9.29795 2.55021 9.30561 2.28592 9.46499ZM0.582699 14.9297C-0.131047 15.1878 -0.21043 16.2953 0.463096 16.5988C0.61535 16.6675 2.43052 16.6962 6.62216 16.6962H12.5654L12.8226 16.4417C13.2474 16.0216 13.1234 15.2088 12.5983 14.9722C12.4263 14.8947 10.8838 14.87 6.54111 14.8751C3.33656 14.8788 0.655305 14.9035 0.582699 14.9297ZM17.1722 18.8934C17.697 19.1617 18.1773 19.641 18.4595 20.178C18.6302 20.5028 18.6656 20.7034 18.6669 21.3531C18.6681 22.008 18.6334 22.2067 18.4551 22.565C17.7879 23.9058 16.1573 24.5111 14.836 23.9084C14.147 23.594 13.7428 23.2096 13.4205 22.562C12.6826 21.0795 13.3975 19.3432 14.9952 18.7378C15.5237 18.5375 16.6308 18.6166 17.1722 18.8934ZM37.7921 18.8611C38.3669 19.1544 38.8347 19.6183 39.1056 20.1639C39.3121 20.58 39.3499 20.7651 39.3481 21.3531C39.3452 22.2633 39.1086 22.8065 38.4596 23.3931C37.3624 24.3848 35.7936 24.3848 34.6964 23.3931C33.3409 22.1677 33.501 20.0849 35.0289 19.068C35.6067 18.6834 35.8871 18.6125 36.71 18.6425C37.2266 18.6613 37.5148 18.7195 37.7921 18.8611Z" fill="#112B3C"/>
</svg>
