<svg width="35" height="35" viewBox="0 0 35 35" fill="none" xmlns="http://www.w3.org/2000/svg">
<g clip-path="url(#clip0_7_190)">
<path d="M19.872 22.061L16.6781 25.2548L15.1278 23.6893C14.8268 23.3838 14.3348 23.3801 14.0296 23.6814C13.7241 23.9826 13.7204 24.4743 14.0217 24.7798L16.1249 26.8986C16.2707 27.0474 16.4697 27.1314 16.6781 27.1323C16.8845 27.1308 17.0825 27.0498 17.231 26.9065L20.9781 23.1595C21.1238 23.014 21.206 22.8163 21.206 22.6103C21.206 22.4043 21.1238 22.2068 20.9781 22.061C20.672 21.7573 20.1781 21.7573 19.872 22.061Z" fill="#112B3C"/>
<path d="M34.9842 10.0805C34.9842 10.0571 34.9763 10.0415 34.9763 10.0181C34.9763 10.0102 34.9684 10.0026 34.9684 9.99468C34.9608 9.97125 34.9608 9.95574 34.9529 9.9323C34.9529 9.9247 34.9453 9.91679 34.9453 9.90887C34.9374 9.89336 34.9295 9.86993 34.9218 9.85441C34.9218 9.8468 34.9218 9.8468 34.9139 9.83889L30.6374 1.16114C30.5045 0.895195 30.2337 0.726314 29.9364 0.724792H5.05547C4.75849 0.726314 4.48737 0.895195 4.35439 1.16114L0.0778982 9.83889C0.0778982 9.8468 0.0778982 9.8468 0.0699867 9.85441C0.0623794 9.86993 0.0544679 9.89336 0.0468606 9.90887C0.0468606 9.91679 0.0389491 9.9247 0.0389491 9.9323C0.0292118 9.95178 0.0240389 9.97308 0.0234303 9.99468C0.0234303 10.0026 0.0155188 10.0102 0.0155188 10.0181C0.00912874 10.0382 0.00639009 10.0592 0.0079115 10.0805V10.1036C0.0079115 10.135 0 10.1584 0 10.1894V33.4421C0.00121716 33.8717 0.349325 34.2198 0.778983 34.221H34.2208C34.6504 34.2198 34.9985 33.8717 34.9997 33.4421V10.1815C35.001 10.1529 34.9982 10.124 34.9918 10.096C34.9912 10.0899 34.9885 10.0844 34.9842 10.0805ZM32.9665 9.40254H22.8242L21.5389 2.28276H29.4534L32.9665 9.40254ZM13.6012 10.9605H21.391V15.0502L21.2038 14.8554C21.0578 14.7027 20.856 14.6156 20.6446 14.6141C20.4334 14.6126 20.2304 14.6969 20.0822 14.8478L19.0616 15.8915L18.0569 14.8554C17.9084 14.706 17.7066 14.6217 17.4961 14.6217C17.2852 14.6217 17.0835 14.706 16.935 14.8554L15.9302 15.8915L14.9096 14.8478C14.7611 14.6987 14.5594 14.6147 14.3488 14.6141C14.1367 14.6141 13.9337 14.7014 13.788 14.8554L13.6012 15.0502V10.9605ZM19.9575 2.28276L21.2428 9.40254H13.757L15.0344 2.28276H19.9575ZM5.53869 2.28276H13.453L12.1676 9.40254H2.02535L5.53869 2.28276ZM1.55797 32.6631V10.9605H12.0432V17.0055C12.0435 17.325 12.2382 17.612 12.5349 17.7303C12.8316 17.8487 13.1706 17.7745 13.3906 17.5429L14.3643 16.5147L15.377 17.5508C15.5237 17.6984 15.7224 17.7821 15.9302 17.7845C16.1386 17.7851 16.3385 17.7008 16.4834 17.5508L17.4882 16.5147L18.4929 17.5508C18.6396 17.6984 18.8383 17.7821 19.0461 17.7845C19.2546 17.7851 19.4545 17.7008 19.5993 17.5508L20.612 16.5147L21.5857 17.5429C21.7345 17.6975 21.9399 17.7845 22.1541 17.7845C22.253 17.7854 22.351 17.7669 22.4426 17.73C22.739 17.612 22.9334 17.3247 22.9331 17.0055V10.9605H33.4263V32.6631H1.55797Z" fill="#112B3C"/>
</g>
<defs>
<clipPath id="clip0_7_190">
<rect width="35" height="35" fill="white"/>
</clipPath>
</defs>
</svg>
