<svg width="21" height="21" viewBox="0 0 21 21" fill="none" xmlns="http://www.w3.org/2000/svg">
<g clip-path="url(#clip0_524_568)">
<path d="M13.6705 0.123651C13.2562 0.33283 13.0881 0.591229 12.9773 1.18185L12.9117 1.55099L12.6287 1.66174L12.3498 1.76838L12.0504 1.5715C11.6443 1.3008 11.5131 1.25158 11.1768 1.25158C10.7461 1.25568 10.5574 1.35822 10.0611 1.85861C9.58945 2.33029 9.47461 2.51896 9.4459 2.8676C9.41309 3.21213 9.48691 3.46232 9.73711 3.83557L9.95859 4.15959L9.88066 4.36467C9.83555 4.47541 9.78223 4.59846 9.75762 4.63947C9.7166 4.7215 9.7084 4.7215 9.23262 4.81994C8.87578 4.88967 8.62559 5.02502 8.45332 5.2465C8.20723 5.55822 8.18262 5.65666 8.18262 6.39904C8.18262 7.16193 8.21953 7.30139 8.50664 7.62131C8.69941 7.83049 8.87168 7.91252 9.34746 8.01506L9.73301 8.10119L9.85195 8.376L9.9668 8.6508L9.76172 8.94611C9.49922 9.32756 9.41719 9.57365 9.4459 9.90998C9.47461 10.2914 9.59766 10.5088 10.0447 10.9559C10.4918 11.4029 10.7092 11.526 11.0906 11.5547C11.427 11.5834 11.673 11.5014 12.0545 11.2389L12.3498 11.0338L12.6041 11.1404C12.7436 11.1979 12.8707 11.2594 12.8871 11.2758C12.9035 11.2881 12.9486 11.4563 12.9855 11.649C13.0922 12.2233 13.3096 12.535 13.7361 12.7278C13.9699 12.8344 14.86 12.8754 15.2291 12.7975C15.5244 12.736 15.8156 12.5432 15.9797 12.2971C16.1027 12.1125 16.1437 11.9936 16.2422 11.485L16.2873 11.2594L16.558 11.1487L16.8328 11.0338L17.165 11.2553C17.5424 11.5137 17.7844 11.5875 18.133 11.5547C18.4816 11.526 18.6703 11.4112 19.142 10.9395C19.6424 10.4432 19.7449 10.2545 19.749 9.82385C19.749 9.48752 19.6998 9.35627 19.4291 8.95021L19.2281 8.6467L19.343 8.36779L19.4619 8.08889L19.8229 8.01916C20.4094 7.91252 20.6719 7.74435 20.8729 7.3342C21 7.084 21 7.0799 21 6.40314C21 5.7756 20.9918 5.70588 20.9016 5.51721C20.7949 5.28342 20.5037 4.99631 20.2822 4.90607C20.2043 4.87326 20.0197 4.82404 19.8803 4.79943C19.7408 4.77482 19.5891 4.75021 19.5398 4.73791C19.4783 4.7256 19.4209 4.63947 19.343 4.43849L19.2281 4.15549L19.4537 3.82736C19.79 3.33107 19.8475 2.92912 19.6424 2.46564C19.5357 2.21955 18.7811 1.46486 18.535 1.35822C18.0715 1.15314 17.6736 1.21056 17.1732 1.54279L16.8369 1.76838L16.558 1.65764C16.3611 1.57971 16.275 1.52228 16.2627 1.46076C16.2504 1.41154 16.2258 1.25978 16.2012 1.12033C16.1396 0.771698 16.0617 0.603534 15.8648 0.38205C15.5572 0.0498228 15.4629 0.0252132 14.6426 0.00880718L13.9248 -0.00349808L13.6705 0.123651ZM15.024 1.12853C15.0568 1.16135 15.1184 1.36642 15.1553 1.58791C15.2824 2.33439 15.3357 2.41232 15.873 2.58869C16.0207 2.63791 16.2709 2.74455 16.4268 2.82248C16.9025 3.06037 17.0051 3.03576 17.7105 2.53537L18.01 2.32209L18.3422 2.65842L18.6785 2.99064L18.4652 3.29006C17.9689 3.98732 17.9402 4.10627 18.1658 4.54514C18.2396 4.68869 18.3545 4.9676 18.4242 5.16037C18.4898 5.35724 18.576 5.55002 18.6088 5.58693C18.699 5.68947 18.9492 5.7674 19.4127 5.84943C19.6342 5.88635 19.8434 5.94377 19.8762 5.97658C19.95 6.05451 19.9582 6.71896 19.8803 6.8215C19.8475 6.87072 19.6916 6.91994 19.3963 6.97326C18.6375 7.10861 18.6129 7.12502 18.4365 7.62131C18.3709 7.79357 18.2725 8.03967 18.2068 8.16271C18.051 8.47853 17.9977 8.69592 18.0428 8.84357C18.0633 8.9133 18.1863 9.12248 18.3217 9.31525C18.7154 9.86896 18.7113 9.80334 18.3914 10.1315C18.2396 10.2873 18.0838 10.4268 18.0469 10.4391C17.9977 10.4555 17.8213 10.3571 17.5301 10.152C16.9928 9.77463 16.8861 9.75822 16.4062 9.99201C16.2381 10.074 15.9715 10.1848 15.8115 10.2381C15.3357 10.4022 15.2824 10.4883 15.1553 11.2389C15.1143 11.4891 15.065 11.6449 15.024 11.6778C14.9215 11.7557 14.216 11.7475 14.1545 11.6737C14.1258 11.6408 14.0684 11.4153 14.0232 11.1692C13.8961 10.4555 13.8674 10.4145 13.3219 10.2217C13.125 10.152 12.8543 10.0371 12.7189 9.9674C12.5549 9.88537 12.4113 9.84435 12.2883 9.84435C12.1078 9.84435 11.9848 9.91408 11.3859 10.3447C11.2998 10.4063 11.2055 10.4596 11.1809 10.4596C11.1234 10.4596 10.541 9.88127 10.541 9.81975C10.541 9.79514 10.5943 9.7008 10.6559 9.61467C11.0865 9.01584 11.1562 8.89279 11.1562 8.71232C11.1562 8.58928 11.1152 8.44572 11.0291 8.28166C10.9635 8.14221 10.8486 7.8715 10.7789 7.67873C10.6477 7.30139 10.5164 7.12092 10.3441 7.0758C10.2867 7.0635 10.0488 7.01428 9.81504 6.97326C9.57715 6.93225 9.35977 6.87482 9.32695 6.84611C9.25312 6.78459 9.24492 6.07912 9.32285 5.97658C9.35566 5.93557 9.51152 5.88635 9.76172 5.84533C10.5123 5.71818 10.5984 5.66076 10.7584 5.18498C10.8158 5.02912 10.9266 4.75432 11.0086 4.57795C11.2424 4.06525 11.2301 3.99963 10.742 3.31877C10.6312 3.16291 10.541 3.01525 10.541 2.99064C10.541 2.93732 11.0209 2.42873 11.1234 2.37541C11.1768 2.3467 11.2875 2.40002 11.591 2.6092C12.1201 2.97014 12.2186 3.01115 12.44 2.94963C12.5344 2.92502 12.7312 2.84299 12.8789 2.76916C13.0266 2.69533 13.2686 2.59689 13.4162 2.54767C13.7074 2.45334 13.8469 2.3508 13.9084 2.18674C13.9289 2.13342 13.9822 1.87912 14.0273 1.62892C14.0848 1.31721 14.134 1.15314 14.1791 1.11623C14.2816 1.0424 14.9461 1.0506 15.024 1.12853Z" fill="#112B3C"/>
<path d="M13.9454 3.92227C13.0881 4.14785 12.3745 4.84512 12.1161 5.72285C12.0668 5.89512 12.0422 6.1043 12.0422 6.42012C12.0463 6.81387 12.0627 6.91641 12.1653 7.21992C12.4401 8.00332 12.9979 8.56113 13.7813 8.83594C14.0848 8.93848 14.1874 8.95488 14.5811 8.95898C15.3399 8.95898 15.8772 8.7375 16.4104 8.2043C16.919 7.6957 17.1446 7.13789 17.1446 6.39551C17.1446 5.66953 16.9108 5.10352 16.4063 4.59492C15.8895 4.08223 15.3276 3.85254 14.5852 3.86074C14.3596 3.86074 14.0684 3.88945 13.9454 3.92227ZM15.2333 5.10762C15.5081 5.24707 15.7747 5.52188 15.9141 5.80488C16.0002 5.97715 16.0167 6.06738 16.0167 6.39961C16.0167 6.73184 16.0002 6.82207 15.91 7.01484C15.6803 7.49883 15.1717 7.83516 14.6549 7.84746C14.2981 7.85566 14.0643 7.78594 13.7854 7.59316C12.9733 7.03535 12.9323 5.91152 13.6993 5.26348C13.769 5.20605 13.9331 5.11582 14.0602 5.0584C14.2571 4.97637 14.3473 4.96406 14.6467 4.97637C14.9379 4.98457 15.0405 5.00918 15.2333 5.10762Z" fill="#112B3C"/>
<path d="M6.36562 5.8252C6.19746 5.92774 6.13184 6.07949 6.0457 6.57168C5.98828 6.91211 5.96777 6.97363 5.88984 6.99824C5.84473 7.01055 5.65195 7.08848 5.46328 7.16641L5.11875 7.30996L4.725 7.04336C4.26562 6.72754 4.10977 6.65781 3.80625 6.6209C3.53555 6.58809 3.15 6.67832 2.90391 6.83418C2.6291 7.00234 1.8416 7.82676 1.72266 8.06055C1.64062 8.22461 1.61602 8.34356 1.60781 8.64297C1.5873 9.09414 1.65293 9.27051 2.04258 9.81602L2.28457 10.1564L2.21074 10.3C2.16973 10.3779 2.0877 10.5707 2.03027 10.7266L1.92363 11.0137L1.44375 11.0998C0.701367 11.2352 0.406055 11.4074 0.159961 11.8627L0.0205078 12.1211V13.0234C0.0205078 14.0406 0.0328125 14.0898 0.377344 14.4631C0.60293 14.7092 0.877734 14.8281 1.44375 14.9348L1.91953 15.025L2.0877 15.4393C2.18203 15.6689 2.25586 15.8699 2.25586 15.8863C2.25586 15.9027 2.12871 16.1037 1.97285 16.3334C1.63652 16.842 1.59961 16.9363 1.59961 17.367C1.59961 17.8633 1.69395 18.0355 2.30918 18.659C2.93262 19.2906 3.13359 19.4014 3.63398 19.4014C4.06465 19.4014 4.15898 19.3645 4.66758 19.0281C4.89727 18.8723 5.09824 18.7451 5.11465 18.7451C5.13926 18.7451 5.95547 19.0691 5.97598 19.0896C5.98008 19.0938 6.01289 19.2783 6.05391 19.5039C6.09082 19.7295 6.15645 20.0084 6.20156 20.1273C6.3 20.398 6.5748 20.7016 6.85781 20.8574L7.07519 20.9805H7.97754C8.87988 20.9805 8.87988 20.9805 9.08906 20.8697C9.40898 20.7016 9.54023 20.5703 9.69199 20.2709C9.79043 20.074 9.85195 19.8648 9.90527 19.5367L9.9832 19.0814L10.2703 18.9666C10.4303 18.9051 10.6271 18.823 10.7051 18.7861L10.8486 18.7123L11.2178 18.9748C11.6895 19.3111 11.9273 19.4014 12.3375 19.4014C12.8256 19.4014 13.0594 19.2742 13.6582 18.6713C14.2652 18.0602 14.3719 17.8633 14.3719 17.3506C14.3719 16.9322 14.3145 16.7846 13.9412 16.2432L13.6869 15.874L13.81 15.5992C13.8797 15.4434 13.9617 15.2506 13.9904 15.1686C14.0437 15.0086 14.0273 15.0127 14.7164 14.9061C15.065 14.8527 15.2783 14.6148 15.266 14.2949C15.2619 14.1021 15.1594 13.9545 14.9584 13.8438L14.8066 13.7617L14.1463 13.8766C13.7812 13.9381 13.4244 14.016 13.3547 14.0488C13.1947 14.1268 13.1209 14.2457 12.9814 14.6641C12.924 14.8445 12.7887 15.1686 12.682 15.3818C12.5467 15.6648 12.4934 15.8207 12.4934 15.9438C12.4975 16.1283 12.4934 16.1201 13.0389 16.9117C13.1783 17.1127 13.2891 17.3137 13.2891 17.3588C13.2891 17.4121 13.1291 17.6049 12.8666 17.8756C12.5303 18.2119 12.4154 18.3063 12.3293 18.3063C12.2186 18.3063 12.1406 18.257 11.4187 17.7525C10.9963 17.4572 10.8814 17.4531 10.3564 17.7115C10.1309 17.8223 9.79043 17.9658 9.59766 18.0273C9.23672 18.1463 9.10547 18.2201 9.02344 18.3473C8.99883 18.3883 8.925 18.7164 8.85938 19.0732C8.79785 19.4342 8.72812 19.7459 8.71582 19.7746C8.61738 19.9305 7.71094 20.0043 7.40742 19.8771C7.23926 19.8074 7.21875 19.7459 7.0957 19.0117C6.96445 18.2324 6.95215 18.2201 6.32871 18.0109C6.11953 17.9412 5.7791 17.8018 5.57402 17.6951C5.04082 17.4285 4.9957 17.4408 4.31074 17.9207C3.60937 18.417 3.63398 18.417 3.10898 17.892C2.59219 17.3752 2.59219 17.3834 3.02695 16.76C3.57246 15.993 3.57656 15.9684 3.30176 15.4188C3.19922 15.2178 3.05977 14.8814 2.99004 14.6723C2.78086 14.0488 2.76855 14.0406 2.00977 13.9094C1.23047 13.7699 1.19355 13.7576 1.12383 13.5977C0.99668 13.2941 1.06641 12.3877 1.22637 12.2893C1.25098 12.2729 1.5627 12.2072 1.92363 12.1457C2.28047 12.0801 2.6209 11.9939 2.67832 11.957C2.79727 11.8832 2.86289 11.752 2.99414 11.3418C3.04746 11.1818 3.17871 10.8701 3.28945 10.6445C3.54375 10.1318 3.54375 10.0006 3.27715 9.62324C2.80547 8.96289 2.69473 8.77832 2.69473 8.67168C2.69473 8.58555 2.78906 8.4707 3.12539 8.13438C3.39199 7.87188 3.58887 7.71192 3.64219 7.71192C3.6873 7.71192 3.85957 7.80625 4.02773 7.92109C5.06543 8.63887 5.00391 8.62246 5.59043 8.33535C5.82422 8.22051 6.16465 8.07695 6.34102 8.01543C6.95215 7.81035 6.96855 7.79395 7.11621 6.94902C7.23516 6.27227 7.23926 6.19024 7.15723 6.03027C7.00957 5.74727 6.65273 5.65293 6.36562 5.8252Z" fill="#112B3C"/>
<path d="M7.41162 9.47638C6.22217 9.67736 5.20908 10.4567 4.70869 11.5559C4.51182 11.9947 4.41748 12.4664 4.41748 13.0242C4.41748 13.7994 4.59385 14.3942 5.004 15.0094C5.75869 16.1332 7.05479 16.732 8.396 16.5721C10.1187 16.367 11.4394 14.9848 11.5542 13.2662C11.5747 12.9463 11.5665 12.8725 11.5009 12.7617C11.1974 12.2449 10.4591 12.4664 10.4591 13.0735C10.4591 13.5492 10.213 14.1932 9.87256 14.6115C9.65107 14.8781 9.17529 15.2104 8.83076 15.3416C8.42061 15.4934 7.98174 15.5303 7.55928 15.4483C7.00967 15.3416 6.64873 15.1488 6.25088 14.751C5.85303 14.3531 5.66025 13.9922 5.55361 13.4426C5.47158 13.0201 5.5085 12.5813 5.66025 12.1711C5.7915 11.8266 6.12373 11.3508 6.39033 11.1293C6.80869 10.7889 7.45264 10.5428 7.92842 10.5428C8.52725 10.5428 8.75283 9.84142 8.26064 9.5133C8.1335 9.43126 7.78486 9.41486 7.41162 9.47638Z" fill="#112B3C"/>
</g>
<defs>
<clipPath id="clip0_524_568">
<rect width="21" height="21" fill="white"/>
</clipPath>
</defs>
</svg>
