<svg width="30" height="30" viewBox="0 0 30 30" fill="none" xmlns="http://www.w3.org/2000/svg">
<g clip-path="url(#clip0_458_156)">
<path d="M17.297 1.50565C17.1036 1.54081 16.7814 1.88651 16.7345 2.10917C16.7169 2.21463 16.6993 3.13456 16.6993 4.15995V6.02323L14.9884 6.05252C13.0724 6.08182 12.8263 6.12284 12.1056 6.48026C11.6251 6.72049 11.1446 7.10135 10.8224 7.48221C10.6993 7.6287 9.92004 8.64823 9.08801 9.74979L7.57043 11.7478L4.82238 12.4978C3.19347 12.9373 1.93371 13.3123 1.72277 13.4178C0.972771 13.781 0.298943 14.6072 0.0821462 15.4275C-0.0409007 15.8963 -0.0350413 18.6736 0.0938649 19.1072C0.257927 19.6639 0.51574 20.0916 0.931756 20.5017C1.54699 21.1111 2.35558 21.4392 3.22277 21.4451H3.54504L3.6798 21.8142C4.01965 22.7635 4.89855 23.6658 5.87707 24.0642C6.96691 24.5096 8.11535 24.4627 9.18762 23.9353C10.0841 23.49 10.9103 22.5818 11.1739 21.7615L11.2736 21.4451H13.9864H16.6935L16.7111 24.7146C16.7286 27.7557 16.7345 27.99 16.8341 28.1365C17.004 28.3826 17.2267 28.4998 17.5314 28.4939C17.8302 28.4881 18.0353 28.3709 18.1876 28.1131C18.2638 27.99 18.2814 27.7674 18.2814 26.9295V25.8982H19.6583C20.5782 25.8982 21.0763 25.8748 21.1818 25.8279C21.4806 25.6932 21.5743 25.4295 21.6622 24.5037C21.7032 24.0291 21.7618 23.6307 21.7853 23.6072C21.8087 23.5896 22.0372 23.5017 22.295 23.408C22.5528 23.3201 22.9454 23.156 23.1622 23.0447C23.379 22.9392 23.59 22.8689 23.631 22.8865C23.672 22.9099 23.9239 23.1209 24.1993 23.3553C25.0079 24.0349 25.2716 24.1404 25.6525 23.9412C25.7403 23.8943 26.3321 23.3318 26.9708 22.6932L28.1251 21.5271V21.2283C28.1251 20.8885 28.0431 20.7478 27.381 19.9685L26.9474 19.4588L27.2052 18.9432C27.3458 18.6619 27.5216 18.2517 27.5919 18.0349C27.7443 17.5838 27.6446 17.6248 28.7579 17.5193C29.5372 17.4432 29.6368 17.4139 29.8419 17.1678L30.0001 16.9803V15.2517C30.0001 12.9724 30.0528 13.0603 28.6173 12.9197C28.1427 12.8728 27.7443 12.8201 27.7267 12.8084C27.715 12.7908 27.6271 12.574 27.5392 12.3221C27.4513 12.0701 27.2872 11.6717 27.1642 11.4431C27.047 11.2088 26.9532 11.0096 26.9532 10.992C26.9532 10.9803 27.1876 10.6814 27.4806 10.3357C28.3946 9.24002 28.3946 9.24588 26.9943 7.7869C26.4083 7.17167 25.8458 6.62088 25.7462 6.56229C25.5118 6.40995 25.1075 6.40995 24.8732 6.55643C24.7794 6.61502 24.4454 6.8787 24.1407 7.13651L23.5841 7.60526L23.1446 7.3826C22.9044 7.26542 22.4884 7.08963 22.2247 7.00174C21.8966 6.89042 21.7384 6.80252 21.7384 6.74393C21.7384 6.6912 21.6974 6.30448 21.6564 5.88846C21.5216 4.54081 21.5275 4.54667 19.6759 4.52323L18.2814 4.49979V3.26932C18.2814 1.95682 18.2638 1.85135 17.9708 1.63456C17.8243 1.52909 17.5021 1.47049 17.297 1.50565ZM20.1505 6.80838C20.1915 7.20682 20.2384 7.5994 20.256 7.69315C20.3087 7.96854 20.5958 8.17948 21.088 8.31424C21.7384 8.49002 22.1017 8.64237 22.8282 9.02909C23.1857 9.21659 23.5548 9.37479 23.6427 9.37479C23.8829 9.37479 24.1232 9.23417 24.6974 8.75956C24.9845 8.51932 25.2364 8.3201 25.254 8.3201C25.2716 8.3201 25.506 8.5369 25.7696 8.80643L26.256 9.29862L25.8282 9.8201C25.2247 10.5467 25.1954 10.5994 25.1954 10.8865C25.1954 11.0857 25.2716 11.2849 25.5411 11.7947C25.9103 12.4861 26.045 12.8142 26.2501 13.5349C26.4611 14.2498 26.5489 14.3084 27.7325 14.4197L28.4767 14.49V15.2107V15.9314L28.2892 15.9607C28.1837 15.9783 27.8087 16.0193 27.4571 16.0545C26.6251 16.1307 26.4845 16.2244 26.3028 16.8338C26.0568 17.6775 25.8165 18.2459 25.4357 18.8963C25.0607 19.5291 25.1075 19.7224 25.8282 20.5779C26.0626 20.8533 26.2501 21.0994 26.2501 21.1287C26.2501 21.158 26.0275 21.4041 25.7638 21.6678L25.2716 22.1541L24.7794 21.7557C24.0353 21.1404 23.9474 21.0935 23.6603 21.0935C23.4669 21.0935 23.3087 21.1521 23.004 21.3279C22.4298 21.6619 21.7618 21.949 21.1349 22.1248C20.5431 22.2889 20.3556 22.4178 20.2736 22.7283C20.2267 22.9099 20.0978 23.9939 20.0978 24.2283C20.0978 24.3045 19.9454 24.3162 19.1896 24.3162H18.2814V22.2185V20.1267H19.2599C20.1095 20.1267 20.3087 20.1092 20.7013 19.992C22.0255 19.6111 23.1271 18.7029 23.7306 17.4959C24.1466 16.6697 24.2696 16.1424 24.2696 15.2342C24.2755 14.1502 24.047 13.3767 23.4728 12.4861C22.5411 11.0447 20.7775 10.1599 19.0724 10.2771C18.7853 10.2947 18.4864 10.3299 18.4161 10.3474L18.2814 10.3826V8.23807V6.09354H19.1837H20.0802L20.1505 6.80838ZM16.6993 13.74V19.8631H14.045H11.3966L11.297 19.4119C11.1271 18.6795 10.8282 18.1521 10.254 17.5721C9.46301 16.7693 8.69543 16.4236 7.58801 16.365C6.14074 16.2889 4.82238 16.9803 4.01965 18.24C3.76183 18.6385 3.54504 19.1951 3.48644 19.5935L3.43957 19.8748L3.08215 19.8338C2.43176 19.7635 1.96886 19.4412 1.68761 18.8728C1.55871 18.615 1.55285 18.5389 1.55285 17.2557C1.55285 16.0017 1.55871 15.8904 1.68176 15.6326C1.82824 15.3103 2.19152 14.9412 2.50207 14.8064C2.62511 14.7537 3.99035 14.367 5.53722 13.9451C7.0841 13.5232 8.41418 13.1307 8.49621 13.0721C8.57824 13.0135 9.28137 12.1228 10.0665 11.0974C12.2169 8.28495 12.2169 8.27909 12.5568 8.06229C12.879 7.85721 13.3185 7.69315 13.6525 7.65799C13.7638 7.64627 14.4962 7.6287 15.2814 7.6287L16.6993 7.61698V13.74ZM20.2794 11.9881C21.5509 12.3689 22.4825 13.4529 22.6818 14.7947C22.9278 16.4236 21.8146 18.0584 20.1739 18.4803C19.7521 18.5916 18.9962 18.6033 18.5802 18.5037L18.2814 18.4392V15.2342V12.0291L18.5333 11.9646C18.6681 11.9236 18.8439 11.8826 18.9259 11.8709C19.1837 11.824 19.9513 11.8943 20.2794 11.9881ZM7.79894 17.9881C9.39855 18.2928 10.2833 20.0154 9.56847 21.4392C9.35754 21.8553 8.88879 22.324 8.47863 22.5291C7.02551 23.2381 5.32629 22.365 5.02746 20.7596C4.8048 19.5525 5.66027 18.2869 6.88488 18.0174C7.33019 17.9178 7.41222 17.9178 7.79894 17.9881Z" fill="#112B3C"/>
</g>
<defs>
<clipPath id="clip0_458_156">
<rect width="30" height="30" fill="white"/>
</clipPath>
</defs>
</svg>
