<svg width="29" height="23" viewBox="0 0 29 23" fill="none" xmlns="http://www.w3.org/2000/svg">
<path fill-rule="evenodd" clip-rule="evenodd" d="M13.59 2.7781C10.8635 4.30595 8.57542 5.62265 8.50528 5.70409C8.38829 5.83999 8.37781 5.90904 8.37781 6.54351V7.23483H5.00251H1.62722L1.46162 7.40401C1.2848 7.58465 1.23885 7.88568 1.35437 8.1062C1.50399 8.3919 1.51102 8.39242 5.0607 8.39242H8.37781V9.43425V10.4761H6.64549H4.91317L4.74757 10.6453C4.57075 10.8259 4.5248 11.1269 4.64032 11.3475C4.77958 11.6134 4.92575 11.6337 6.70367 11.6337H8.37781V13.1385V14.6434H5.93884C3.29342 14.6434 3.25954 14.6472 3.12 14.9601C3.00482 15.2184 3.03882 15.3936 3.24493 15.6042L3.43755 15.801H5.90304H8.36858L8.38733 16.523C8.40376 17.1546 8.42036 17.259 8.51945 17.3563C8.58177 17.4175 10.8508 18.7121 13.5617 20.2333C17.3924 22.3828 18.5348 22.9992 18.6889 23C18.8449 23.0008 19.9374 22.4117 23.8161 20.2353C26.527 18.7142 28.796 17.4191 28.8584 17.3572C28.9662 17.2502 28.9717 17.1687 28.9717 15.6786V14.1125L28.8127 13.9728C28.5972 13.7834 28.2698 13.7833 28.0542 13.9727L27.8952 14.1122L27.8781 15.3768L27.861 16.6414L23.9123 18.8558C21.7405 20.0737 19.8041 21.1607 19.6092 21.2713L19.2548 21.4724L19.2693 16.6567L19.2838 11.8411L20.5868 11.1038C21.3035 10.6982 21.909 10.3651 21.9324 10.3634C21.9558 10.3617 21.9749 10.9034 21.9749 11.5672C21.9749 12.2785 21.9998 12.8473 22.0358 12.9525C22.1514 13.2916 22.53 13.4085 22.8983 13.2188C23.6587 12.8272 25.0534 12.0014 25.1211 11.9027C25.1893 11.8032 25.2042 11.49 25.2042 10.1507V8.51998L26.5011 7.79059C27.2145 7.38942 27.8136 7.06119 27.8325 7.06119C27.8514 7.06119 27.8669 7.70655 27.8669 8.49527C27.8669 10.0882 27.8743 10.1232 28.2426 10.2804C28.4067 10.3504 28.4602 10.3504 28.6243 10.2804C29.0056 10.1176 29 10.1535 29 7.88314V5.8368L28.8442 5.67984C28.7585 5.59354 27.6941 4.96554 26.4789 4.2843C25.2636 3.60306 23.0466 2.36039 21.5521 1.52281C20.0099 0.658438 18.7726 -5.78757e-05 18.6911 3.81527e-09C18.6081 5.78834e-05 16.4488 1.17605 13.59 2.7781ZM22.9541 3.62656C25.2666 4.92092 27.1782 5.99696 27.2021 6.01785C27.2259 6.03875 26.6701 6.37682 25.967 6.76907C24.8059 7.4168 24.6755 7.47618 24.5461 7.41593C24.4238 7.35904 21.2979 5.61177 17.3098 3.37125C16.6915 3.02386 16.1816 2.72074 16.1767 2.69759C16.1661 2.64793 18.5704 1.28116 18.6767 1.27648C18.7167 1.27468 20.6416 2.33226 22.9541 3.62656ZM19.2171 5.7589C21.5433 7.06408 23.4468 8.14498 23.4471 8.1609C23.4475 8.17682 23.2477 8.30016 23.0032 8.43496L22.5587 8.68014L19.8732 7.17266C18.3961 6.3436 16.4804 5.26959 15.6161 4.786C14.7519 4.30242 14.0444 3.8924 14.044 3.87486C14.043 3.83377 14.9106 3.35539 14.9545 3.37276C14.9728 3.37993 16.8909 4.45372 19.2171 5.7589ZM14.7231 5.6054C15.7358 6.17337 17.6224 7.23072 18.9155 7.95496C20.2087 8.67921 21.2871 9.29146 21.3121 9.31554C21.3539 9.35577 18.8016 10.8234 18.6898 10.8234C18.6499 10.8234 10.2004 6.10317 10.1468 6.05096C10.1186 6.02347 12.71 4.58273 12.7969 4.57758C12.8436 4.57486 13.7104 5.03737 14.7231 5.6054ZM13.7808 9.4137C16.0908 10.7075 18.0127 11.796 18.0519 11.8325C18.1081 11.885 18.12 12.9007 18.1085 16.6735L18.094 21.448L15.7995 20.1612C14.5376 19.4535 12.6068 18.3717 11.509 17.7573L9.51305 16.6403L9.51197 11.8507C9.51135 9.21645 9.52665 7.06119 9.54591 7.06119C9.56517 7.06119 11.4709 8.11981 13.7808 9.4137ZM24.0703 10.2012L24.0695 11.2575L23.6217 11.5034C23.3754 11.6387 23.159 11.7494 23.1409 11.7494C23.1228 11.7494 23.1079 11.2864 23.1079 10.7205V9.69158L23.5753 9.42412C23.8324 9.27705 24.0491 9.15406 24.0569 9.15076C24.0647 9.14752 24.0707 9.62022 24.0703 10.2012ZM2.4814 10.6453C2.06453 11.0712 2.47953 11.7796 3.0357 11.5915C3.12272 11.562 3.25314 11.4488 3.32549 11.3398C3.49205 11.0891 3.45744 10.8549 3.22153 10.6353C2.98409 10.4142 2.70382 10.418 2.4814 10.6453ZM28.0664 11.6481C27.747 11.9318 27.839 12.4233 28.2439 12.5962C28.4231 12.6727 28.4622 12.6708 28.6503 12.5769C29.2019 12.3014 29.0382 11.5179 28.429 11.5179C28.2864 11.5179 28.1634 11.5621 28.0664 11.6481ZM0.28247 14.7242C-0.051791 14.9135 -0.0961513 15.3164 0.185591 15.6042C0.378046 15.8008 0.378726 15.801 0.92493 15.801C1.69685 15.801 1.91921 15.6649 1.91921 15.1926C1.91921 15.0368 1.87604 14.9377 1.75361 14.8126C1.59164 14.6471 1.57521 14.6435 1.00294 14.6454C0.626758 14.6468 0.369547 14.6749 0.28247 14.7242Z" fill="white"/>
</svg>
