<svg width="66" height="65" viewBox="0 0 66 65" fill="none" xmlns="http://www.w3.org/2000/svg">
<g clip-path="url(#clip0_301_50)">
<path d="M29.7628 0.088994C21.2442 1.00306 13.5255 5.07825 8.09187 11.5529C4.28327 16.0851 1.88386 21.3029 0.868232 27.2189C0.525459 29.1739 0.398506 33.7316 0.614326 35.8263C1.64265 45.754 7.1905 54.6788 15.671 60.0489C17.2198 61.0392 20.2921 62.5372 22.044 63.1466C28.9883 65.6222 36.9991 65.6222 43.918 63.1593C45.7081 62.5372 48.7676 61.0392 50.3292 60.0489C57.8575 55.2755 63.1133 47.7091 64.8526 39.1525C65.4112 36.3849 65.5382 34.8107 65.462 31.5734C65.3858 28.5011 65.17 26.8507 64.4971 24.2101C61.6026 13.0255 52.4747 3.89759 41.2901 1.00306C38.4083 0.266728 37.0499 0.101689 33.5079 0.0636034C31.7305 0.0382128 30.0421 0.0509081 29.7628 0.088994ZM37.1895 2.72962C43.588 3.70716 49.2755 6.48743 53.8712 10.9181C58.6573 15.5265 61.7296 21.5441 62.796 28.4376C63.1007 30.4435 63.1007 34.6583 62.7833 36.6642C61.7803 43.1642 59.0382 48.6993 54.4805 53.4601L53.0333 54.9708L52.5762 54.6915C52.3223 54.5265 49.6944 53.1681 46.7237 51.67L41.3155 48.9405L40.9346 48.3185C40.5665 47.6964 40.5538 47.6583 40.503 45.6779L40.4649 43.672L40.9727 42.9991C42.0645 41.5519 43.4356 39.0509 44.0323 37.3878C44.2608 36.7404 44.4005 36.5626 44.8702 36.2579C45.543 35.839 46.1016 35.1661 46.4952 34.3156C46.7491 33.757 46.7745 33.4777 46.8126 30.9513C46.8634 27.9425 46.7364 27.0284 46.1524 26.1398C45.8477 25.6954 45.8477 25.632 45.7842 21.6964C45.7335 18.0656 45.7081 17.6212 45.4542 16.7833C44.3116 12.9113 41.5059 10.6261 36.7452 9.68665C35.1329 9.36927 30.8673 9.36927 29.255 9.68665C24.4942 10.6261 21.6885 12.9113 20.546 16.7833C20.2921 17.6212 20.2667 18.0656 20.2159 21.6964C20.1524 25.632 20.1524 25.6954 19.8477 26.1398C19.2637 27.0411 19.1368 27.9679 19.1876 30.9005C19.251 33.9474 19.3272 34.2648 20.2159 35.42C20.5967 35.9152 20.9014 36.5372 21.2442 37.5148C21.7901 39.1017 22.7803 41.1075 23.7325 42.5548L24.3673 43.5197V45.5001C24.3673 47.6964 24.2784 48.0519 23.6309 48.712C23.4024 48.9279 21.0665 50.2863 18.4385 51.7208C15.7979 53.1554 13.462 54.4503 13.2462 54.59L12.8526 54.8439L11.4688 53.4093C6.96198 48.712 4.15632 42.9991 3.20417 36.5753C2.89948 34.5187 2.91218 30.4181 3.21687 28.4376C3.9278 23.7784 5.54011 19.5509 7.96491 15.9327C13.1065 8.25208 21.0411 3.50403 30.3341 2.53919C31.8321 2.38685 35.5899 2.48841 37.1895 2.72962ZM37.2276 12.3527C40.6173 13.2413 42.6104 15.171 43.169 18.0782C43.2325 18.421 43.2833 20.5031 43.2833 22.7247V26.7491L43.6134 27.0538C44.2608 27.6505 44.2989 27.8663 44.2989 30.5323C44.2989 33.1857 44.2608 33.4142 43.6387 33.9855C43.4737 34.1505 43.1182 34.3536 42.8516 34.4425C42.3819 34.6075 42.3438 34.6583 41.9376 35.8009C41.1505 37.9972 40.1475 39.8888 38.8272 41.6407L38.0528 42.6564L38.1036 45.5509L38.1417 48.4327L38.5098 49.1945C39.2716 50.7433 39.6143 50.9718 45.4796 53.9044C48.3868 55.3644 50.7735 56.5958 50.7735 56.6466C50.7735 56.7989 48.3487 58.3478 46.9649 59.0841C43.7911 60.7472 40.3253 61.839 36.5548 62.3468C35.0567 62.5499 30.8926 62.5499 29.4454 62.3468C25.6622 61.8263 22.2471 60.7599 19.1622 59.1476C17.4737 58.2589 14.9346 56.6085 15.0743 56.4689C15.1251 56.4181 17.169 55.2882 19.6065 53.9552C22.0567 52.6095 24.3165 51.3527 24.6466 51.1368C25.4464 50.629 25.9796 50.007 26.4493 49.004L26.8428 48.1788L26.8809 45.4239L26.9317 42.6564L26.5509 42.1866C25.0909 40.3077 23.7706 37.5529 23.1104 34.9757C23.0089 34.6202 22.8438 34.379 22.5391 34.1759C21.7774 33.6554 21.7012 33.338 21.7012 30.5323C21.7012 27.8663 21.7393 27.6505 22.3868 27.0538L22.7169 26.7491V22.5978C22.7169 18.0656 22.7676 17.6339 23.4786 16.1866C24.5069 14.0792 26.7159 12.6827 29.8516 12.1241C30.6134 11.9972 31.6163 11.9591 33.4444 11.9845C35.6788 12.0226 36.1358 12.0734 37.2276 12.3527Z" fill="#112B3C"/>
</g>
<defs>
<clipPath id="clip0_301_50">
<rect width="65" height="65" fill="white" transform="translate(0.5)"/>
</clipPath>
</defs>
</svg>
