<svg width="31" height="31" viewBox="0 0 31 31" fill="none" xmlns="http://www.w3.org/2000/svg">
<path d="M15.0459 2.1853C14.5615 2.25796 13.9016 2.59097 13.5443 2.94819C13.1811 3.30542 13.8229 2.26401 6.4422 14.5005C1.91329 22.0144 0.236146 24.848 0.133217 25.1568C0.00606807 25.5201 -0.012096 25.6714 0.0121228 26.1921C0.0302868 26.7492 0.0545056 26.84 0.25431 27.2578C0.678138 28.1054 1.47736 28.6867 2.39162 28.8199C2.96681 28.8986 28.0332 28.8986 28.6084 28.8199C29.5227 28.6867 30.3219 28.1054 30.7457 27.2578C30.9455 26.84 30.9697 26.7492 30.9879 26.1921C31.0121 25.6714 30.994 25.5201 30.8668 25.1568C30.7639 24.848 29.0867 22.0144 24.5578 14.5005C17.1651 2.24585 17.8129 3.29937 17.4678 2.95425C16.8502 2.34273 15.9541 2.05816 15.0459 2.1853ZM15.8633 4.33472C16.0631 4.45581 15.3608 3.31753 22.7656 15.5904C27.0524 22.6986 28.9051 25.8289 28.9233 25.9802C28.9596 26.2466 28.8203 26.5191 28.5781 26.6644C28.4207 26.7552 27.343 26.7613 15.5 26.7613C3.65704 26.7613 2.57931 26.7552 2.42189 26.6644C2.1797 26.5191 2.04044 26.2466 2.07677 25.9802C2.09494 25.8289 3.94767 22.6986 8.23439 15.5904C15.6151 3.35386 14.9369 4.46187 15.1307 4.34077C15.3365 4.21362 15.6514 4.21362 15.8633 4.33472Z" fill="#112B3C"/>
<path d="M14.834 10.5709C14.5252 10.7041 14.2346 11.0129 14.162 11.2914C14.0893 11.5396 14.1135 12.6234 14.2346 15.1967C14.2709 15.9111 14.3194 17.1826 14.3436 18.0242C14.392 19.7316 14.4042 19.774 14.8401 19.992C15.1428 20.1494 15.7846 20.1373 16.1418 19.9738C16.5475 19.7801 16.6141 19.6105 16.6323 18.7084C16.6444 18.2906 16.6928 17.0131 16.7413 15.8627C16.9047 11.9393 16.9108 11.5396 16.8321 11.2854C16.7352 10.9826 16.5051 10.7344 16.1963 10.5891C15.8936 10.4498 15.1428 10.4377 14.834 10.5709Z" fill="#112B3C"/>
<path d="M14.9248 21.4873C13.8107 21.9959 13.7744 23.6004 14.8642 24.1272C15.1488 24.2725 15.2517 24.2907 15.615 24.2664C16.1115 24.2422 16.4324 24.0545 16.7412 23.6186C16.9107 23.3764 16.9228 23.3219 16.9228 22.8375C16.9228 22.3713 16.9046 22.2805 16.7654 22.0686C16.5595 21.7537 16.4384 21.6508 16.1054 21.4994C15.7603 21.342 15.2517 21.336 14.9248 21.4873Z" fill="#112B3C"/>
</svg>
