<svg width="23" height="26" viewBox="0 0 23 26" fill="none" xmlns="http://www.w3.org/2000/svg">
<path fill-rule="evenodd" clip-rule="evenodd" d="M10.5084 0.556177C8.28734 0.92607 6.52841 2.50655 5.89008 4.70596C5.76957 5.12127 5.7448 5.36806 5.74337 6.16789C5.74142 7.22426 5.83815 7.70077 6.22556 8.54397L6.41602 8.95845H5.65367C4.40931 8.95845 3.78969 9.18624 3.03884 9.91987C2.24561 10.6948 2.46935 9.84 0.343543 20.2164C-0.0337365 22.058 -0.0687082 22.4418 0.0868448 23.0311C0.378125 24.1347 1.06378 24.8788 2.1873 25.3105L2.62145 25.4773L11.2344 25.4955C17.4427 25.5087 19.9711 25.4934 20.2907 25.4409C21.825 25.1884 23 23.8147 23 22.2732C23 22.0772 22.514 19.6265 21.866 16.5544C20.5918 10.5137 20.6204 10.6108 19.9086 9.90948C19.2112 9.2223 18.4871 8.95845 17.2986 8.95845C16.8369 8.95845 16.5647 8.93388 16.5647 8.89218C16.5647 8.85568 16.6349 8.68901 16.7209 8.52171C16.8068 8.35434 16.9457 8.0017 17.0296 7.73798C17.1654 7.31125 17.1819 7.13843 17.1791 6.16789C17.1762 5.15181 17.1636 5.04006 16.9946 4.53205C16.3067 2.46402 14.6913 1.02056 12.5859 0.592422C12.0629 0.48606 11.0369 0.468162 10.5084 0.556177ZM12.892 1.5797C14.7347 2.14897 16.0414 3.68102 16.3119 5.58951C16.4628 6.65396 16.1696 7.86051 15.5246 8.83021C15.3459 9.09887 15.1996 9.36888 15.1996 9.43015C15.1996 9.49147 15.2714 9.61246 15.3592 9.69907C15.5166 9.8545 15.5338 9.85656 16.678 9.85656C17.9912 9.85656 18.4159 9.93187 18.9262 10.2551C19.2906 10.4858 19.6861 10.9806 19.8385 11.3962C19.8967 11.5549 20.4301 13.9943 21.0238 16.8169C21.9983 21.4497 22.1005 21.9958 22.0742 22.4301C22.0368 23.0458 21.851 23.4407 21.3773 23.9111C21.1302 24.1566 20.8936 24.3184 20.6269 24.4244L20.2374 24.5791H11.4944H2.75146L2.38081 24.4313C1.5673 24.107 0.975115 23.3039 0.917392 22.4467C0.891846 22.0683 1.02985 21.3434 2.001 16.7528C2.79735 12.9888 3.15968 11.3989 3.27474 11.1636C3.47774 10.7488 3.97885 10.2828 4.45988 10.0616C4.81805 9.89691 4.88071 9.88985 6.18084 9.86714L7.53012 9.8436L7.65967 9.68104C7.73091 9.59161 7.78922 9.47358 7.78922 9.4186C7.78922 9.36369 7.64296 9.09887 7.46427 8.83021C6.82145 7.86397 6.53095 6.68026 6.6748 5.61376C6.95516 3.53579 8.40773 1.96095 10.4869 1.48072C11.0629 1.34773 12.3066 1.39886 12.892 1.5797ZM10.5844 2.64492C9.91385 2.81948 9.41313 3.11059 8.89265 3.62842C8.13211 4.38508 7.83011 5.10716 7.8305 6.16789C7.83095 7.24318 8.12535 7.94628 8.89252 8.70402C9.66574 9.46774 10.4418 9.79241 11.4944 9.79241C12.5269 9.79241 13.3201 9.4669 14.0691 8.73584C14.9707 7.85602 15.3568 6.65261 15.1086 5.49655C14.8026 4.07138 13.7696 2.99249 12.3746 2.64101C11.8937 2.51983 11.0577 2.52163 10.5844 2.64492ZM12.6163 3.68128C13.4826 4.08164 14.0826 4.85274 14.2353 5.7622C14.4278 6.90883 13.77 8.12423 12.6693 8.65585C12.2635 8.85183 12.2043 8.86222 11.4944 8.86222C10.7774 8.86222 10.7293 8.85356 10.3166 8.64905C8.6184 7.80771 8.19198 5.67014 9.4563 4.33626C10.0603 3.69898 10.7182 3.42853 11.5919 3.45829C12.0876 3.47523 12.2441 3.50929 12.6163 3.68128ZM6.49247 14.5033C6.40491 14.5509 6.31189 14.6435 6.28576 14.709C6.25963 14.7746 6.23623 15.9574 6.23369 17.3375C6.22927 19.7824 6.23258 19.8511 6.36389 20.0158C6.53485 20.2303 6.86702 20.2469 7.04786 20.05C7.15739 19.9307 7.17403 19.79 7.19223 18.8311L7.21277 17.7471H7.52927C7.70335 17.7471 7.91513 17.7731 7.9999 17.8049C8.08466 17.8367 8.62919 18.3852 9.20993 19.0238C10.1735 20.0832 10.2847 20.1848 10.4801 20.1848C10.7419 20.1848 10.9094 20.0186 10.9094 19.7587C10.9094 19.6026 10.7242 19.362 9.9028 18.4518C8.90689 17.348 8.89759 17.3349 9.01733 17.2049C10.4593 15.6398 10.9094 15.0902 10.9094 14.8946C10.9094 14.621 10.7264 14.4602 10.4455 14.487C10.2569 14.5049 10.0931 14.657 9.16196 15.6782L8.09461 16.849H7.65375H7.21297L7.19229 15.7921C7.17364 14.8342 7.15953 14.7237 7.04168 14.612C6.8587 14.4386 6.67766 14.4028 6.49247 14.5033ZM13.152 14.4712C12.7059 14.5784 12.3976 14.821 12.1683 15.2452C12.0579 15.4496 12.0469 15.6369 12.0469 17.3301C12.0469 19.1122 12.0529 19.2013 12.1869 19.4471C12.3625 19.7692 12.5664 19.9585 12.8746 20.0855C13.0647 20.164 13.3895 20.1848 14.4201 20.1848C15.889 20.1848 16.0479 20.1465 16.4192 19.702C16.6672 19.405 16.7597 19.0892 16.7593 18.5415C16.7588 17.9676 16.6702 17.6688 16.4154 17.3825C16.0849 17.0109 15.7969 16.9162 14.9931 16.9145C14.3199 16.9132 14.2949 16.9182 14.1643 17.0822C14.0902 17.1751 14.0295 17.3011 14.0295 17.3622C14.0295 17.4233 14.0902 17.5493 14.1643 17.6422C14.2929 17.8035 14.3269 17.8112 14.9148 17.8112C15.4818 17.8112 15.5431 17.8237 15.6901 17.9687C15.8287 18.1055 15.8496 18.1843 15.8496 18.5695C15.8496 18.9209 15.8217 19.0479 15.7149 19.1818L15.5802 19.3509H14.422C13.3786 19.3509 13.2487 19.3387 13.1105 19.2282L12.957 19.1056V17.3622V15.6188L13.1105 15.4962C13.2522 15.3829 13.3852 15.3735 14.8522 15.3735H16.4406L16.6001 15.216C16.6879 15.1294 16.7597 15.0154 16.7597 14.9625C16.7597 14.7822 16.6156 14.5539 16.457 14.4825C16.2789 14.4024 13.4782 14.3928 13.152 14.4712Z" fill="#112B3C"/>
</svg>
